<svg width="32" height="32" viewBox="0 0 32 32" fill="none" xmlns="http://www.w3.org/2000/svg">
<g clip-path="url(#clip0_317_196)">
<path fill-rule="evenodd" clip-rule="evenodd" d="M16.3721 1.94922C8.72614 1.94922 2.50879 8.11962 2.50879 15.7052C2.50879 18.7133 3.48912 21.5022 5.14909 23.7703L3.41758 28.8776L8.74402 27.1853C10.9327 28.6217 13.554 29.4589 16.3721 29.4589C24.0146 29.4589 30.2342 23.2885 30.2342 15.7041C30.2342 8.11962 24.0146 1.94922 16.3721 1.94922Z" fill="#4AC14B"/>
<path fill-rule="evenodd" clip-rule="evenodd" d="M32 15.5881C32 24.1953 24.9666 31.175 16.2912 31.175C13.5358 31.175 10.948 30.4719 8.6978 29.2356L0 32L2.83481 23.6375C1.40399 21.2879 0.581269 18.5336 0.581269 15.5892C0.581269 6.97859 7.61463 0 16.2912 0C24.9666 0 32 6.97859 32 15.5881ZM16.2912 2.48269C9.00632 2.48269 3.08296 8.36134 3.08296 15.5881C3.08296 18.4542 4.01635 21.1101 5.59807 23.272L3.94928 28.1379L9.02421 26.526C11.109 27.8942 13.6073 28.6924 16.2912 28.6924C23.5727 28.6924 29.4983 22.8137 29.4983 15.5881C29.4983 8.36134 23.5727 2.48269 16.2912 2.48269ZM24.2233 19.1785C24.126 19.0187 23.8689 18.9237 23.4855 18.7325C23.0999 18.5414 21.2063 17.6169 20.853 17.4895C20.5009 17.3621 20.2416 17.2984 19.9867 17.6807C19.7296 18.0629 18.9919 18.9237 18.7661 19.1785C18.5425 19.4345 18.3178 19.4647 17.9333 19.2736C17.5476 19.0824 16.3057 18.6778 14.8358 17.3777C13.6922 16.3639 12.9187 15.1141 12.6929 14.7318C12.4693 14.3495 12.6706 14.1439 12.8617 13.9527C13.035 13.7806 13.2474 13.5067 13.4396 13.2842C13.633 13.0607 13.6967 12.8997 13.8253 12.6448C13.9538 12.39 13.8901 12.1675 13.7929 11.9764C13.6978 11.7852 12.9265 9.90506 12.6057 9.13934C12.2871 8.37587 11.9652 8.40382 11.7394 8.40382C11.5158 8.40382 11.1 8.47088 11.1 8.47088C11.1 8.47088 10.3276 8.5659 9.97548 8.9482C9.62336 9.33049 8.6285 10.2549 8.6285 12.134C8.6285 14.0142 10.0068 15.8318 10.2002 16.0855C10.3935 16.3415 12.8628 20.3254 16.7786 21.8546C20.6932 23.3838 20.6932 22.8741 21.3997 22.8092C22.105 22.7466 23.6778 21.8859 23.9986 20.9928C24.3194 20.1019 24.3194 19.3373 24.2233 19.1785Z" fill="white"/>
</g>
<defs>
<clipPath id="clip0_317_196">
<rect width="32" height="32" fill="white"/>
</clipPath>
</defs>
</svg>
