<svg xmlns="http://www.w3.org/2000/svg" viewBox="0 0 50.41 50.41"><defs><style>.cls-1{fill:#ffb600;}.cls-2{fill:#ff4502;}.cls-3{fill:#8000ed;}.cls-4{fill:#00b56f;}</style></defs><g id="Layer_2" data-name="Layer 2"><g id="MENU_DESKT_EXP." data-name="MENU DESKT EXP."><path class="cls-1" d="M50.41,24.48h0V11.11h0A11.13,11.13,0,0,1,39.29,0H25.92A24.49,24.49,0,0,0,50.41,24.48Z"/><path class="cls-2" d="M.1,25.82H0V39.19H.1A11.13,11.13,0,0,1,11.21,50.31v.1H24.58s0-.07,0-.1A24.49,24.49,0,0,0,.1,25.82Z"/><path class="cls-3" d="M25.92,50.31s0,.06,0,.1H39.3s0-.07,0-.1A11.13,11.13,0,0,1,50.41,39.19h0V25.82h0A24.49,24.49,0,0,0,25.92,50.31Z"/><circle cx="25.2" cy="25.2" r="6.41"/><path class="cls-4" d="M24.59,0H11.21A11.12,11.12,0,0,1,.1,11.11H0V24.48H.1A24.49,24.49,0,0,0,24.59,0Z"/></g></g></svg>