<svg xmlns="http://www.w3.org/2000/svg" viewBox="0 0 34.87 34.87"><defs><style>.cls-1{fill:#fff;}</style></defs><g id="Layer_2" data-name="Layer 2"><g id="HOME_DESKTOP" data-name="HOME DESKTOP"><rect width="34.87" height="34.87" rx="17.44"/><path class="cls-1" d="M15.11,17.44a2.33,2.33,0,1,1,2.33,2.33,2.33,2.33,0,0,1-2.33-2.33m-1.26,0a3.59,3.59,0,1,0,3.59-3.59,3.59,3.59,0,0,0-3.59,3.59m6.48-3.73a.84.84,0,1,0,.84-.84.84.84,0,0,0-.84.84m-5.72,9.42a4,4,0,0,1-1.3-.24,2.24,2.24,0,0,1-.8-.53,2.06,2.06,0,0,1-.52-.8,3.78,3.78,0,0,1-.24-1.3c0-.73,0-1,0-2.82s0-2.09,0-2.83a3.78,3.78,0,0,1,.24-1.3,2.13,2.13,0,0,1,.52-.8,2.21,2.21,0,0,1,.8-.52,3.78,3.78,0,0,1,1.3-.24c.74,0,1,0,2.83,0s2.08,0,2.82,0a3.78,3.78,0,0,1,1.3.24,2.06,2.06,0,0,1,.8.52,2.16,2.16,0,0,1,.53.8,4,4,0,0,1,.24,1.3c0,.74,0,1,0,2.83s0,2.08,0,2.82a4,4,0,0,1-.24,1.3,2.41,2.41,0,0,1-1.33,1.33,4,4,0,0,1-1.3.24c-.73,0-1,0-2.82,0s-2.09,0-2.83,0m0-12.64a5.08,5.08,0,0,0-1.7.32,3.61,3.61,0,0,0-2,2,5.07,5.07,0,0,0-.32,1.69c0,.75,0,1,0,2.89s0,2.13,0,2.88a5.19,5.19,0,0,0,.32,1.7,3.33,3.33,0,0,0,.81,1.23,3.45,3.45,0,0,0,1.24.81,5.31,5.31,0,0,0,1.7.33c.74,0,1,0,2.88,0s2.13,0,2.88,0a5.43,5.43,0,0,0,1.7-.33,3.65,3.65,0,0,0,2-2,5.43,5.43,0,0,0,.33-1.7c0-.75,0-1,0-2.88s0-2.14,0-2.89a5.3,5.3,0,0,0-.33-1.69,3.45,3.45,0,0,0-.81-1.24A3.33,3.33,0,0,0,22,10.81a5.19,5.19,0,0,0-1.7-.32c-.75,0-1,0-2.88,0s-2.14,0-2.88,0"/></g></g></svg>