<svg xmlns="http://www.w3.org/2000/svg" viewBox="0 0 34.87 34.87"><defs><style>.cls-1{fill:#fff;}</style></defs><g id="Layer_2" data-name="Layer 2"><g id="HOME_DESKTOP" data-name="HOME DESKTOP"><rect width="34.87" height="34.87" rx="17.44"/><path class="cls-1" d="M14.16,23.17V14.09h-3v9.08ZM12.65,12.85a1.58,1.58,0,1,0,0-3.14,1.57,1.57,0,1,0,0,3.14Zm3.18,10.32h3V18.1a2.11,2.11,0,0,1,.1-.74,1.64,1.64,0,0,1,1.54-1.1c1.1,0,1.53.83,1.53,2v4.86h3V18c0-2.79-1.49-4.08-3.47-4.08a3,3,0,0,0-2.74,1.53h0V14.09h-3c0,.85,0,9.08,0,9.08Z"/></g></g></svg>