<svg xmlns="http://www.w3.org/2000/svg" viewBox="0 0 112.63 48"><defs><style>.cls-1{fill:#333;}</style></defs><g id="Layer_2" data-name="Layer 2"><g id="DESKTOP"><path class="cls-1" d="M111.94,27.15a2.93,2.93,0,1,0-2.93,3,2.87,2.87,0,0,0,2.93-3Zm-3.7.16v2h-.63V24.94h1.58c.92,0,1.35.4,1.35,1.19a.9.9,0,0,1-.76.92v0c.37.05.5.38.58,1a4.28,4.28,0,0,0,.27,1.21h-.75c-.17-.4-.15-1-.29-1.46s-.31-.5-.73-.5Zm.79-.56c.62,0,.79-.33.79-.62s-.17-.61-.79-.61h-.79v1.23Zm-3.64.4A3.62,3.62,0,1,1,109,30.73a3.55,3.55,0,0,1-3.62-3.58Z"/><polygon class="cls-1" points="92.85 30.11 88.68 25.43 84.54 30.11 75.84 30.11 84.35 20.55 75.84 11 84.81 11 89.03 15.64 93.08 11 101.75 11 93.28 20.52 101.86 30.11 92.85 30.11"/><polygon class="cls-1" points="59.13 30.11 59.13 0 75.84 0 75.84 6.71 66.21 6.71 66.21 11 75.84 11 75.84 17.45 66.21 17.45 66.21 23.38 75.84 23.38 75.84 30.11 59.13 30.11"/><path class="cls-1" d="M52.08,0V12.32H52A7.15,7.15,0,0,0,46.23,9.9a9.76,9.76,0,0,0-9.36,7.32c-1.39-4.59-5-7.4-10.34-7.4-4.34,0-7.77,1.95-9.56,5.12V11H8V6.71h9.79V0H0V30.11H8V17.45h8a11.93,11.93,0,0,0-.36,3c0,6.28,4.79,10.69,10.92,10.69,5.15,0,8.54-2.42,10.34-6.83H30A3.43,3.43,0,0,1,26.53,26a4.11,4.11,0,0,1-4-4.1H36.48c.61,5,4.49,9.29,9.83,9.29a6.83,6.83,0,0,0,5.69-3h.08v1.95h7.05V0ZM22.75,17.54a3.86,3.86,0,0,1,3.78-3.16,3.66,3.66,0,0,1,3.81,3.16Zm25,8c-2.6,0-4.21-2.43-4.21-5,0-2.71,1.4-5.3,4.21-5.3s4.07,2.59,4.07,5.3S50.64,25.53,47.8,25.53Z"/><path class="cls-1" d="M59.13,45.17V34.38h6v.8h-5v4h4.77V40H60.11v4.4h5.2v.81Z"/><path class="cls-1" d="M66,45.17l2.9-3.88-2.76-3.66h1.12l2.25,3,2.21-3h1.12l-2.81,3.66L73,45.17H71.85L69.44,42l-2.3,3.21Z"/><path class="cls-1" d="M74.88,48H74V39.88c0-.75,0-1.51,0-2.25h.9l0,1.13a2.6,2.6,0,0,1,2.43-1.31c2.32,0,3.32,1.92,3.32,3.94s-1,4-3.32,4a2.63,2.63,0,0,1-2.4-1.26Zm4.75-6.61c0-1.6-.67-3.18-2.46-3.18s-2.29,1.38-2.29,3.18.61,3.19,2.29,3.19S79.63,43,79.63,41.39Z"/><path class="cls-1" d="M85.27,38.32c-1.5,0-2,1.27-2,2.58v4.27h-.91V39.84c0-.73,0-1.47,0-2.21h.9l.06,1.08a2.27,2.27,0,0,1,2.19-1.26,2.83,2.83,0,0,1,.41,0v.91A2.79,2.79,0,0,0,85.27,38.32Z"/><path class="cls-1" d="M87,41.56c0,1.7.8,3.1,2.46,3.1a2.08,2.08,0,0,0,2.1-1.7h.86a2.85,2.85,0,0,1-3.08,2.38c-2.3,0-3.31-1.7-3.31-3.81s1.06-4.08,3.43-4.08,3,2.1,3,4.11Zm0-.69h4.5c0-1.47-.7-2.74-2.13-2.74S87.18,39.11,87,40.87Z"/><path class="cls-1" d="M96,45.34c-1.54,0-2.71-.73-2.71-2.38h.91a1.63,1.63,0,0,0,1.85,1.7c1,0,1.83-.49,1.83-1.51S97,42,96,41.72c-1.19-.34-2.49-.71-2.49-2.17,0-1.63,1.36-2.1,2.63-2.1,1.45,0,2.54.56,2.59,2.13h-.91a1.47,1.47,0,0,0-1.66-1.4c-.76,0-1.68.29-1.68,1.28s.92,1.15,1.91,1.41c1.19.33,2.5.69,2.5,2.15C98.86,44.72,97.55,45.34,96,45.34Z"/><path class="cls-1" d="M102.32,45.34c-1.55,0-2.71-.73-2.71-2.38h.91a1.62,1.62,0,0,0,1.84,1.7c1,0,1.84-.49,1.84-1.51s-.94-1.15-1.93-1.43c-1.19-.34-2.48-.71-2.48-2.17,0-1.63,1.35-2.1,2.62-2.1,1.46,0,2.55.56,2.59,2.13h-.91a1.45,1.45,0,0,0-1.65-1.4c-.76,0-1.69.29-1.69,1.28s.93,1.15,1.91,1.41c1.19.33,2.51.69,2.51,2.15C105.17,44.72,103.85,45.34,102.32,45.34Z"/></g></g></svg>