<svg xmlns="http://www.w3.org/2000/svg" viewBox="0 0 79.35 32.04"><defs><style>.cls-1{fill:#333;}</style></defs><g id="Layer_2" data-name="Layer 2"><g id="DESKTOP"><polygon class="cls-1" points="79.35 2.28 66.14 2.28 66.96 0 79.35 0 79.35 2.28"/><path class="cls-1" d="M44.14,0H56.4l.81,2.28s-13.06,0-13.06,0Z"/><path class="cls-1" d="M34.4,0a8.91,8.91,0,0,1,5.28,2.28H17.45V0Z"/><rect class="cls-1" width="15.44" height="2.28"/><path class="cls-1" d="M79.35,6.55H64.63l.8-2.26H79.35Z"/><polygon class="cls-1" points="58.73 6.55 44.14 6.55 44.14 4.29 57.93 4.29 58.73 6.55"/><path class="cls-1" d="M41.41,4.28a6,6,0,0,1,.64,2.27H17.45V4.28Z"/><rect class="cls-1" y="4.28" width="15.44" height="2.27"/><polygon class="cls-1" points="63.13 10.84 63.93 8.56 74.99 8.56 74.99 10.83 63.13 10.84"/><polygon class="cls-1" points="59.44 8.56 60.24 10.84 48.49 10.84 48.49 8.56 59.44 8.56"/><path class="cls-1" d="M42.24,8.56a7.71,7.71,0,0,1-.32,2.28H35.18V8.56Z"/><rect class="cls-1" x="4.31" y="8.57" width="6.64" height="2.27"/><rect class="cls-1" x="21.92" y="8.56" width="6.63" height="2.28"/><path class="cls-1" d="M55,13.29V15H48.49V12.76H60.93l.77,2.11.75-2.11H75V15H68.49V13.3L67.88,15H55.62Z"/><path class="cls-1" d="M21.92,12.76h19A8.48,8.48,0,0,1,39.05,15H21.92Z"/><rect class="cls-1" x="4.31" y="12.75" width="6.64" height="2.27"/><rect class="cls-1" x="68.49" y="17.03" width="6.5" height="2.27"/><path class="cls-1" d="M55,17H48.49v2.26H55S55,17,55,17Z"/><path class="cls-1" d="M67.18,17s-.76,2.26-.79,2.26H57.13S56.32,17,56.32,17Z"/><path class="cls-1" d="M21.92,17H39a11.17,11.17,0,0,1,2,2.26s-19.14,0-19.14,0Z"/><polygon class="cls-1" points="10.94 19.3 10.94 17.03 4.32 17.03 4.32 19.29 10.94 19.3"/><rect class="cls-1" x="68.49" y="21.3" width="6.49" height="2.27"/><rect class="cls-1" x="48.49" y="21.3" width="6.53" height="2.27"/><path class="cls-1" d="M64.87,23.58s.8-2.28.81-2.28H57.81s.81,2.27.81,2.27S64.86,23.59,64.87,23.58Z"/><path class="cls-1" d="M21.92,23.57V21.3h6.72s0,2.27,0,2.27Z"/><path class="cls-1" d="M42,21.3a6.6,6.6,0,0,1,.43,2.28H35.3V21.3Z"/><rect class="cls-1" x="4.32" y="21.3" width="6.63" height="2.27"/><rect class="cls-1" x="68.49" y="25.49" width="10.86" height="2.27"/><rect class="cls-1" x="44.14" y="25.49" width="10.88" height="2.27"/><polygon class="cls-1" points="63.4 27.75 60.09 27.75 59.29 25.49 64.17 25.49 63.4 27.75"/><path class="cls-1" d="M0,25.49v2.26H15.43s0-2.26,0-2.26Z"/><path class="cls-1" d="M42.14,25.49a4.87,4.87,0,0,1-.85,2.26H17.45V25.49Z"/><polygon class="cls-1" points="61.9 32.03 61.59 32.03 60.82 29.76 62.7 29.76 61.9 32.03"/><rect class="cls-1" x="68.49" y="29.76" width="10.86" height="2.28"/><path class="cls-1" d="M17.45,32V29.76H39.81A8.47,8.47,0,0,1,34,32H17.45"/><rect class="cls-1" x="44.14" y="29.76" width="10.88" height="2.28"/><path class="cls-1" d="M15.43,29.77V32H0s0-2.28,0-2.28S15.43,29.78,15.43,29.77Z"/></g></g></svg>