<svg xmlns="http://www.w3.org/2000/svg" viewBox="0 0 18.82 18.82"><defs><style>.cls-1{fill:#fff;}</style></defs><g id="Layer_2" data-name="Layer 2"><g id="HOME_DESKTOP" data-name="HOME DESKTOP"><path class="cls-1" d="M6.27,9.41a3.14,3.14,0,1,1,3.14,3.14A3.15,3.15,0,0,1,6.27,9.41m-1.69,0A4.83,4.83,0,1,0,9.41,4.58,4.83,4.83,0,0,0,4.58,9.41m8.73-5a1.13,1.13,0,1,0,1.13-1.13,1.13,1.13,0,0,0-1.13,1.13M5.61,17.07a5.15,5.15,0,0,1-1.75-.32A2.9,2.9,0,0,1,2.78,16,2.83,2.83,0,0,1,2.07,15a5.41,5.41,0,0,1-.32-1.74c0-1-.05-1.3-.05-3.81s0-2.81.05-3.8a5.42,5.42,0,0,1,.32-1.75,3,3,0,0,1,.71-1.08,2.9,2.9,0,0,1,1.08-.71,5.15,5.15,0,0,1,1.75-.32c1-.05,1.29-.05,3.8-.05s2.81,0,3.81.05A5.41,5.41,0,0,1,15,2.07a2.94,2.94,0,0,1,1.09.71,3,3,0,0,1,.7,1.08,5.15,5.15,0,0,1,.32,1.75c.05,1,.06,1.29.06,3.8s0,2.81-.06,3.81A5.14,5.14,0,0,1,16.75,15,3.12,3.12,0,0,1,15,16.75a5.14,5.14,0,0,1-1.74.32c-1,.05-1.3.06-3.81.06s-2.81,0-3.8-.06M5.53.06A6.84,6.84,0,0,0,3.25.49,4.64,4.64,0,0,0,1.58,1.58,4.64,4.64,0,0,0,.49,3.25,6.84,6.84,0,0,0,.06,5.53C0,6.53,0,6.86,0,9.41s0,2.88.06,3.88a6.9,6.9,0,0,0,.43,2.29,4.6,4.6,0,0,0,1.09,1.66,4.51,4.51,0,0,0,1.67,1.09,7.07,7.07,0,0,0,2.28.44c1,0,1.33.05,3.88.05s2.88,0,3.88-.05a7.14,7.14,0,0,0,2.29-.44,4.89,4.89,0,0,0,2.75-2.75,7.14,7.14,0,0,0,.44-2.29c0-1,.05-1.32.05-3.88s0-2.88-.05-3.88a7.07,7.07,0,0,0-.44-2.28,4.51,4.51,0,0,0-1.09-1.67A4.6,4.6,0,0,0,15.58.49,6.9,6.9,0,0,0,13.29.06C12.29,0,12,0,9.41,0S6.54,0,5.53.06"/></g></g></svg>