<svg xmlns="http://www.w3.org/2000/svg" viewBox="0 0 114.6 26.93"><defs><style>.cls-1{fill:#333;}</style></defs><g id="Layer_2" data-name="Layer 2"><g id="DESKTOP"><path class="cls-1" d="M66.48,24c0,.2.1.29.19.29a.36.36,0,0,0,.29-.09L102.67,1a3.9,3.9,0,0,1,2.1-.66h7.83a1.9,1.9,0,0,1,2,1.81V17.28c0,1.82-.38,2.86-2,3.82l-9.55,5.73a.34.34,0,0,1-.29.1c-.09,0-.19-.1-.19-.39V9.07c0-.19-.09-.29-.19-.29a.32.32,0,0,0-.28.1l-26.16,17a3.81,3.81,0,0,1-2,.58H56.55a1.92,1.92,0,0,1-2-1.82V2.77c0-.1-.1-.29-.2-.29a.34.34,0,0,0-.28.1L36.88,13c-.09,0-.19.18-.19.28s.1.19.19.29L49.2,25.87c.1.1.19.29.29.38s-.19.2-.39.2H37.84a2.52,2.52,0,0,1-2-.58l-7.45-7.44c-.1-.1-.1-.1-.2-.1s-.18,0-.18.1L15.5,26a3.78,3.78,0,0,1-2,.57H2a1.91,1.91,0,0,1-2-1.81v-15A3.79,3.79,0,0,1,2,5.92L11.58.19c0-.19.1-.19.19-.19s.2.19.2.48V20.24c0,.19.09.29.18.29s.2-.1.29-.1L44.91.86A3.29,3.29,0,0,1,47,.29H64.38a1.92,1.92,0,0,1,2,1.81V24Z"/></g></g></svg>