<svg width="201" height="60" viewBox="0 0 201 60" fill="none" xmlns="http://www.w3.org/2000/svg">
<path d="M17.5 42C24.4036 42 30 36.4036 30 29.5C30 22.5964 24.4036 17 17.5 17C10.5964 17 5 22.5964 5 29.5C5 36.4036 10.5964 42 17.5 42Z" stroke="#FFBA00" stroke-width="10" stroke-miterlimit="10"/>
<path d="M61.496 22V5.72H67.656C68.976 5.72 70.1347 5.95467 71.132 6.424C72.144 6.87867 72.98 7.49467 73.64 8.272C74.3 9.04933 74.7987 9.922 75.136 10.89C75.4733 11.858 75.642 12.848 75.642 13.86C75.642 14.872 75.4733 15.862 75.136 16.83C74.7987 17.798 74.3 18.6707 73.64 19.448C72.98 20.2253 72.144 20.8487 71.132 21.318C70.1347 21.7727 68.976 22 67.656 22H61.496ZM67.502 8.69H64.884V18.986H67.502C68.5727 18.986 69.4527 18.7367 70.142 18.238C70.846 17.7393 71.3667 17.094 71.704 16.302C72.056 15.51 72.232 14.6887 72.232 13.838C72.232 12.9873 72.056 12.1733 71.704 11.396C71.3667 10.604 70.846 9.95867 70.142 9.46C69.4527 8.94667 68.5727 8.69 67.502 8.69ZM82.7695 10.12C83.5175 10.12 84.1335 10.2447 84.6175 10.494C85.1015 10.7287 85.4682 10.9853 85.7175 11.264C85.9815 11.5427 86.1428 11.7333 86.2015 11.836H86.3775V10.34H89.7215V22H86.3775V20.504H86.2015C86.1428 20.6067 85.9815 20.7973 85.7175 21.076C85.4682 21.3547 85.1015 21.6187 84.6175 21.868C84.1335 22.1027 83.5175 22.22 82.7695 22.22C81.9042 22.22 81.1488 22.0513 80.5035 21.714C79.8728 21.362 79.3448 20.9 78.9195 20.328C78.4942 19.7413 78.1715 19.0887 77.9515 18.37C77.7462 17.6513 77.6435 16.918 77.6435 16.17C77.6435 15.422 77.7462 14.6887 77.9515 13.97C78.1715 13.2513 78.4942 12.606 78.9195 12.034C79.3448 11.4473 79.8728 10.9853 80.5035 10.648C81.1488 10.296 81.9042 10.12 82.7695 10.12ZM83.7375 12.826C83.1362 12.826 82.6302 12.9947 82.2195 13.332C81.8235 13.6547 81.5228 14.0727 81.3175 14.586C81.1268 15.0993 81.0315 15.6273 81.0315 16.17C81.0315 16.7127 81.1268 17.2407 81.3175 17.754C81.5228 18.2673 81.8235 18.6927 82.2195 19.03C82.6302 19.3527 83.1362 19.514 83.7375 19.514C84.3388 19.514 84.8375 19.3527 85.2335 19.03C85.6442 18.6927 85.9448 18.2673 86.1355 17.754C86.3408 17.2407 86.4435 16.7127 86.4435 16.17C86.4435 15.6273 86.3408 15.0993 86.1355 14.586C85.9448 14.0727 85.6442 13.6547 85.2335 13.332C84.8375 12.9947 84.3388 12.826 83.7375 12.826ZM97.5401 22.22C96.6307 22.22 95.9047 22.088 95.3621 21.824C94.8194 21.5453 94.4087 21.2007 94.1301 20.79C93.8514 20.3647 93.6681 19.9173 93.5801 19.448C93.4921 18.9787 93.4481 18.546 93.4481 18.15V13.002H91.4681V10.34H93.4481V7.458H96.7921V10.34H99.2781V13.002H96.7921V18.062C96.7921 18.546 96.9167 18.92 97.1661 19.184C97.4301 19.448 97.8627 19.58 98.4641 19.58C98.7281 19.58 98.9701 19.558 99.1901 19.514C99.4101 19.47 99.5201 19.448 99.5201 19.448V22.022C99.5201 22.022 99.3221 22.0513 98.9261 22.11C98.5301 22.1833 98.0681 22.22 97.5401 22.22ZM106.553 10.12C107.301 10.12 107.917 10.2447 108.401 10.494C108.885 10.7287 109.251 10.9853 109.501 11.264C109.765 11.5427 109.926 11.7333 109.985 11.836H110.161V10.34H113.505V22H110.161V20.504H109.985C109.926 20.6067 109.765 20.7973 109.501 21.076C109.251 21.3547 108.885 21.6187 108.401 21.868C107.917 22.1027 107.301 22.22 106.553 22.22C105.687 22.22 104.932 22.0513 104.287 21.714C103.656 21.362 103.128 20.9 102.703 20.328C102.277 19.7413 101.955 19.0887 101.735 18.37C101.529 17.6513 101.427 16.918 101.427 16.17C101.427 15.422 101.529 14.6887 101.735 13.97C101.955 13.2513 102.277 12.606 102.703 12.034C103.128 11.4473 103.656 10.9853 104.287 10.648C104.932 10.296 105.687 10.12 106.553 10.12ZM107.521 12.826C106.919 12.826 106.413 12.9947 106.003 13.332C105.607 13.6547 105.306 14.0727 105.101 14.586C104.91 15.0993 104.815 15.6273 104.815 16.17C104.815 16.7127 104.91 17.2407 105.101 17.754C105.306 18.2673 105.607 18.6927 106.003 19.03C106.413 19.3527 106.919 19.514 107.521 19.514C108.122 19.514 108.621 19.3527 109.017 19.03C109.427 18.6927 109.728 18.2673 109.919 17.754C110.124 17.2407 110.227 16.7127 110.227 16.17C110.227 15.6273 110.124 15.0993 109.919 14.586C109.728 14.0727 109.427 13.6547 109.017 13.332C108.621 12.9947 108.122 12.826 107.521 12.826ZM126.719 22.22C125.634 22.22 124.651 22.0293 123.771 21.648C122.891 21.252 122.187 20.6947 121.659 19.976C121.131 19.2427 120.867 18.3627 120.867 17.336C120.867 16.3533 121.124 15.51 121.637 14.806C122.151 14.0873 122.891 13.4493 123.859 12.892C123.522 12.496 123.199 12.0267 122.891 11.484C122.598 10.9413 122.451 10.2813 122.451 9.504C122.451 8.624 122.664 7.89067 123.089 7.304C123.515 6.70267 124.057 6.25533 124.717 5.962C125.392 5.654 126.096 5.5 126.829 5.5C127.563 5.5 128.252 5.64667 128.897 5.94C129.543 6.21867 130.071 6.62933 130.481 7.172C130.892 7.71467 131.097 8.38933 131.097 9.196C131.097 10.164 130.804 10.978 130.217 11.638C129.645 12.298 128.927 12.8627 128.061 13.332L130.987 16.5C131.163 16.016 131.303 15.466 131.405 14.85C131.508 14.2193 131.559 13.5153 131.559 12.738H134.221C134.221 13.9847 134.104 15.0993 133.869 16.082C133.649 17.05 133.341 17.9007 132.945 18.634L136.003 21.956H131.911L130.965 20.9C130.364 21.3547 129.697 21.692 128.963 21.912C128.245 22.1173 127.497 22.22 126.719 22.22ZM125.223 9.372C125.223 9.78267 125.355 10.1787 125.619 10.56C125.883 10.9267 126.169 11.2787 126.477 11.616C126.991 11.3667 127.431 11.0587 127.797 10.692C128.164 10.3107 128.347 9.84867 128.347 9.306C128.347 8.80733 128.186 8.43333 127.863 8.184C127.555 7.92 127.211 7.788 126.829 7.788C126.419 7.788 126.045 7.92733 125.707 8.206C125.385 8.47 125.223 8.85867 125.223 9.372ZM123.903 17.094C123.903 17.8127 124.175 18.414 124.717 18.898C125.26 19.382 125.986 19.624 126.895 19.624C127.306 19.624 127.709 19.5727 128.105 19.47C128.501 19.3527 128.868 19.1693 129.205 18.92L125.443 14.696C124.959 15.0187 124.578 15.378 124.299 15.774C124.035 16.1553 123.903 16.5953 123.903 17.094ZM65.852 50V36.668H60.858V33.72H74.234V36.668H69.24V50H65.852ZM79.9317 50.22C78.905 50.22 78.0177 50.0513 77.2697 49.714C76.5217 49.362 75.9057 48.9 75.4217 48.328C74.9377 47.7413 74.571 47.0887 74.3217 46.37C74.087 45.6513 73.9697 44.9107 73.9697 44.148C73.9697 43.4147 74.0797 42.696 74.2997 41.992C74.5343 41.2733 74.8863 40.6207 75.3557 40.034C75.8397 39.4473 76.4483 38.9853 77.1817 38.648C77.9297 38.296 78.8097 38.12 79.8217 38.12C80.8923 38.12 81.8383 38.3547 82.6597 38.824C83.4957 39.2933 84.1483 39.99 84.6177 40.914C85.087 41.8233 85.3217 42.9307 85.3217 44.236V45.05H77.3357C77.3797 45.754 77.6217 46.3627 78.0617 46.876C78.5163 47.3893 79.1397 47.646 79.9317 47.646C80.3863 47.646 80.753 47.58 81.0317 47.448C81.325 47.3013 81.5523 47.14 81.7137 46.964C81.875 46.7733 81.985 46.6047 82.0437 46.458C82.1023 46.3113 82.1317 46.238 82.1317 46.238H85.2117C85.2117 46.238 85.175 46.3773 85.1017 46.656C85.043 46.92 84.911 47.25 84.7057 47.646C84.5003 48.042 84.1997 48.438 83.8037 48.834C83.4223 49.23 82.9163 49.56 82.2857 49.824C81.655 50.088 80.8703 50.22 79.9317 50.22ZM77.3357 43.026H82.1097C82.0657 42.2193 81.8237 41.618 81.3837 41.222C80.9437 40.826 80.401 40.628 79.7557 40.628C79.1103 40.628 78.5603 40.8407 78.1057 41.266C77.651 41.6767 77.3943 42.2633 77.3357 43.026ZM93.5338 50.22C92.5072 50.22 91.6125 50.0513 90.8498 49.714C90.0872 49.362 89.4565 48.9 88.9578 48.328C88.4592 47.756 88.0852 47.1107 87.8358 46.392C87.5865 45.6587 87.4618 44.918 87.4618 44.17C87.4618 43.422 87.5865 42.6887 87.8358 41.97C88.0852 41.2513 88.4592 40.606 88.9578 40.034C89.4565 39.4473 90.0872 38.9853 90.8498 38.648C91.6125 38.296 92.5072 38.12 93.5338 38.12C94.5752 38.12 95.4332 38.274 96.1078 38.582C96.7825 38.8753 97.3178 39.2493 97.7138 39.704C98.1245 40.144 98.4252 40.5913 98.6158 41.046C98.8065 41.486 98.9238 41.86 98.9678 42.168C99.0265 42.4613 99.0558 42.608 99.0558 42.608H95.9318C95.9318 42.608 95.9025 42.52 95.8438 42.344C95.7998 42.1533 95.6972 41.9407 95.5358 41.706C95.3892 41.4567 95.1618 41.244 94.8538 41.068C94.5458 40.8773 94.1352 40.782 93.6218 40.782C92.9912 40.782 92.4632 40.9433 92.0378 41.266C91.6272 41.574 91.3192 41.9847 91.1138 42.498C90.9085 43.0113 90.8058 43.5687 90.8058 44.17C90.8058 44.7713 90.9085 45.3287 91.1138 45.842C91.3192 46.3553 91.6272 46.7733 92.0378 47.096C92.4632 47.404 92.9912 47.558 93.6218 47.558C94.1352 47.558 94.5458 47.47 94.8538 47.294C95.1618 47.1033 95.3892 46.8907 95.5358 46.656C95.6972 46.4067 95.7998 46.194 95.8438 46.018C95.9025 45.8273 95.9318 45.732 95.9318 45.732H99.0558C99.0558 45.732 99.0265 45.886 98.9678 46.194C98.9238 46.4873 98.8065 46.8613 98.6158 47.316C98.4252 47.756 98.1245 48.2033 97.7138 48.658C97.3178 49.098 96.7825 49.472 96.1078 49.78C95.4332 50.0733 94.5752 50.22 93.5338 50.22ZM101.672 50V33.28H105.016V40.012H105.126C105.258 39.7773 105.448 39.5133 105.698 39.22C105.962 38.9267 106.306 38.67 106.732 38.45C107.172 38.23 107.729 38.12 108.404 38.12C109.313 38.12 110.054 38.3327 110.626 38.758C111.198 39.1687 111.616 39.704 111.88 40.364C112.144 41.0093 112.276 41.6913 112.276 42.41V50H108.932V42.982C108.932 42.4247 108.778 41.9333 108.47 41.508C108.176 41.0827 107.7 40.87 107.04 40.87C106.541 40.87 106.145 40.9873 105.852 41.222C105.558 41.4567 105.346 41.7573 105.214 42.124C105.082 42.4907 105.016 42.8793 105.016 43.29V50H101.672ZM114.837 50V38.34H118.181V40.012H118.291C118.423 39.7773 118.613 39.5133 118.863 39.22C119.127 38.9267 119.471 38.67 119.897 38.45C120.337 38.23 120.894 38.12 121.569 38.12C122.478 38.12 123.219 38.3327 123.791 38.758C124.363 39.1687 124.781 39.704 125.045 40.364C125.309 41.0093 125.441 41.6913 125.441 42.41V50H122.097V42.982C122.097 42.4247 121.943 41.9333 121.635 41.508C121.341 41.0827 120.865 40.87 120.205 40.87C119.706 40.87 119.31 40.9873 119.017 41.222C118.723 41.4567 118.511 41.7573 118.379 42.124C118.247 42.4907 118.181 42.8793 118.181 43.29V50H114.837ZM133.818 50.22C132.513 50.22 131.405 49.9413 130.496 49.384C129.587 48.812 128.89 48.0713 128.406 47.162C127.937 46.238 127.702 45.2407 127.702 44.17C127.702 43.0993 127.937 42.1093 128.406 41.2C128.89 40.276 129.587 39.5353 130.496 38.978C131.405 38.406 132.513 38.12 133.818 38.12C135.123 38.12 136.231 38.406 137.14 38.978C138.049 39.5353 138.739 40.276 139.208 41.2C139.692 42.1093 139.934 43.0993 139.934 44.17C139.934 45.2407 139.692 46.238 139.208 47.162C138.739 48.0713 138.049 48.812 137.14 49.384C136.231 49.9413 135.123 50.22 133.818 50.22ZM133.818 47.492C134.405 47.492 134.896 47.338 135.292 47.03C135.703 46.722 136.018 46.3187 136.238 45.82C136.458 45.3067 136.568 44.7567 136.568 44.17C136.568 43.5687 136.458 43.0187 136.238 42.52C136.018 42.0213 135.703 41.618 135.292 41.31C134.896 41.002 134.405 40.848 133.818 40.848C133.231 40.848 132.733 41.002 132.322 41.31C131.911 41.618 131.596 42.0213 131.376 42.52C131.171 43.0187 131.068 43.5687 131.068 44.17C131.068 44.7567 131.171 45.3067 131.376 45.82C131.596 46.3187 131.911 46.722 132.322 47.03C132.733 47.338 133.231 47.492 133.818 47.492ZM142.428 50V33.28H145.772V50H142.428ZM154.379 50.22C153.073 50.22 151.966 49.9413 151.057 49.384C150.147 48.812 149.451 48.0713 148.967 47.162C148.497 46.238 148.263 45.2407 148.263 44.17C148.263 43.0993 148.497 42.1093 148.967 41.2C149.451 40.276 150.147 39.5353 151.057 38.978C151.966 38.406 153.073 38.12 154.379 38.12C155.684 38.12 156.791 38.406 157.701 38.978C158.61 39.5353 159.299 40.276 159.769 41.2C160.253 42.1093 160.495 43.0993 160.495 44.17C160.495 45.2407 160.253 46.238 159.769 47.162C159.299 48.0713 158.61 48.812 157.701 49.384C156.791 49.9413 155.684 50.22 154.379 50.22ZM154.379 47.492C154.965 47.492 155.457 47.338 155.853 47.03C156.263 46.722 156.579 46.3187 156.799 45.82C157.019 45.3067 157.129 44.7567 157.129 44.17C157.129 43.5687 157.019 43.0187 156.799 42.52C156.579 42.0213 156.263 41.618 155.853 41.31C155.457 41.002 154.965 40.848 154.379 40.848C153.792 40.848 153.293 41.002 152.883 41.31C152.472 41.618 152.157 42.0213 151.937 42.52C151.731 43.0187 151.629 43.5687 151.629 44.17C151.629 44.7567 151.731 45.3067 151.937 45.82C152.157 46.3187 152.472 46.722 152.883 47.03C153.293 47.338 153.792 47.492 154.379 47.492ZM168.774 54.664C167.688 54.664 166.794 54.532 166.09 54.268C165.4 54.004 164.85 53.6667 164.44 53.256C164.029 52.86 163.728 52.464 163.538 52.068C163.347 51.672 163.222 51.3347 163.164 51.056C163.12 50.792 163.098 50.66 163.098 50.66H166.354C166.354 50.66 166.376 50.726 166.42 50.858C166.478 51.0047 166.588 51.166 166.75 51.342C166.911 51.5327 167.146 51.694 167.454 51.826C167.776 51.9727 168.202 52.046 168.73 52.046C169.639 52.046 170.306 51.7893 170.732 51.276C171.172 50.7627 171.392 50.088 171.392 49.252V48.02H171.238C171.091 48.2547 170.871 48.5113 170.578 48.79C170.284 49.0687 169.91 49.3033 169.456 49.494C169.001 49.6847 168.451 49.78 167.806 49.78C166.94 49.78 166.185 49.6187 165.54 49.296C164.894 48.9587 164.352 48.5113 163.912 47.954C163.486 47.3967 163.164 46.7733 162.944 46.084C162.738 45.3947 162.636 44.6833 162.636 43.95C162.636 43.2313 162.738 42.5273 162.944 41.838C163.164 41.134 163.486 40.5033 163.912 39.946C164.352 39.3887 164.894 38.9487 165.54 38.626C166.185 38.2887 166.94 38.12 167.806 38.12C168.451 38.12 169.001 38.2227 169.456 38.428C169.91 38.6187 170.284 38.8533 170.578 39.132C170.886 39.396 171.106 39.6527 171.238 39.902H171.392V38.34H174.736V49.252C174.736 50.22 174.523 51.1147 174.098 51.936C173.672 52.7573 173.02 53.4173 172.14 53.916C171.26 54.4147 170.138 54.664 168.774 54.664ZM168.73 47.14C169.346 47.14 169.852 46.986 170.248 46.678C170.658 46.37 170.966 45.974 171.172 45.49C171.377 44.9913 171.48 44.478 171.48 43.95C171.48 43.4073 171.377 42.894 171.172 42.41C170.966 41.926 170.658 41.53 170.248 41.222C169.852 40.914 169.346 40.76 168.73 40.76C168.128 40.76 167.622 40.914 167.212 41.222C166.816 41.53 166.515 41.926 166.31 42.41C166.104 42.894 166.002 43.4073 166.002 43.95C166.002 44.478 166.104 44.9913 166.31 45.49C166.515 45.974 166.816 46.37 167.212 46.678C167.622 46.986 168.128 47.14 168.73 47.14ZM178.238 54.29C177.842 54.29 177.526 54.2753 177.292 54.246C177.057 54.2167 176.94 54.202 176.94 54.202V51.518C176.94 51.518 177.035 51.5253 177.226 51.54C177.431 51.5547 177.68 51.562 177.974 51.562C178.678 51.562 179.257 51.4593 179.712 51.254C180.166 51.0633 180.562 50.682 180.9 50.11L176.588 38.34H179.932L182.638 46.238L185.278 38.34H188.644L184.464 49.538C184.082 50.6087 183.62 51.496 183.078 52.2C182.55 52.904 181.897 53.4247 181.12 53.762C180.342 54.114 179.382 54.29 178.238 54.29Z" fill="white"/>
</svg>
