<svg width="243" height="85" viewBox="0 0 243 85" fill="none" xmlns="http://www.w3.org/2000/svg">
<path d="M42.137 72.6724C58.8912 72.6724 72.4732 59.0904 72.4732 42.3362C72.4732 25.582 58.8912 12 42.137 12C25.3828 12 11.8008 25.582 11.8008 42.3362C11.8008 59.0904 25.3828 72.6724 42.137 72.6724Z" stroke="#8300F1" stroke-width="23" stroke-miterlimit="10"/>
<path d="M121.876 41.22C120.527 41.22 119.346 40.9853 118.334 40.516C117.337 40.032 116.501 39.394 115.826 38.602C115.151 37.7953 114.645 36.8933 114.308 35.896C113.971 34.8987 113.802 33.8793 113.802 32.838C113.802 31.8113 113.971 30.7993 114.308 29.802C114.645 28.8047 115.151 27.91 115.826 27.118C116.501 26.3113 117.337 25.6733 118.334 25.204C119.346 24.7347 120.527 24.5 121.876 24.5C123.005 24.5 123.966 24.6467 124.758 24.94C125.565 25.2187 126.232 25.5853 126.76 26.04C127.303 26.48 127.735 26.9567 128.058 27.47C128.395 27.9687 128.645 28.4453 128.806 28.9C128.967 29.34 129.07 29.7067 129.114 30C129.173 30.2787 129.202 30.418 129.202 30.418H125.836C125.836 30.418 125.807 30.3227 125.748 30.132C125.704 29.9267 125.609 29.6847 125.462 29.406C125.315 29.1127 125.095 28.8267 124.802 28.548C124.523 28.2693 124.142 28.0347 123.658 27.844C123.189 27.6387 122.602 27.536 121.898 27.536C120.886 27.536 120.035 27.8 119.346 28.328C118.671 28.8413 118.158 29.5013 117.806 30.308C117.469 31.1147 117.3 31.958 117.3 32.838C117.3 33.718 117.469 34.5687 117.806 35.39C118.158 36.1967 118.671 36.864 119.346 37.392C120.035 37.9053 120.886 38.162 121.898 38.162C122.602 38.162 123.189 38.0667 123.658 37.876C124.142 37.6853 124.523 37.4507 124.802 37.172C125.095 36.8787 125.315 36.5927 125.462 36.314C125.609 36.0207 125.704 35.7787 125.748 35.588C125.807 35.3973 125.836 35.302 125.836 35.302H129.202C129.202 35.302 129.173 35.4487 129.114 35.742C129.07 36.0207 128.967 36.3873 128.806 36.842C128.645 37.282 128.395 37.7587 128.058 38.272C127.735 38.7707 127.303 39.2473 126.76 39.702C126.232 40.142 125.565 40.5087 124.758 40.802C123.966 41.0807 123.005 41.22 121.876 41.22ZM137.326 41.22C136.021 41.22 134.913 40.9413 134.004 40.384C133.095 39.812 132.398 39.0713 131.914 38.162C131.445 37.238 131.21 36.2407 131.21 35.17C131.21 34.0993 131.445 33.1093 131.914 32.2C132.398 31.276 133.095 30.5353 134.004 29.978C134.913 29.406 136.021 29.12 137.326 29.12C138.631 29.12 139.739 29.406 140.648 29.978C141.557 30.5353 142.247 31.276 142.716 32.2C143.2 33.1093 143.442 34.0993 143.442 35.17C143.442 36.2407 143.2 37.238 142.716 38.162C142.247 39.0713 141.557 39.812 140.648 40.384C139.739 40.9413 138.631 41.22 137.326 41.22ZM137.326 38.492C137.913 38.492 138.404 38.338 138.8 38.03C139.211 37.722 139.526 37.3187 139.746 36.82C139.966 36.3067 140.076 35.7567 140.076 35.17C140.076 34.5687 139.966 34.0187 139.746 33.52C139.526 33.0213 139.211 32.618 138.8 32.31C138.404 32.002 137.913 31.848 137.326 31.848C136.739 31.848 136.241 32.002 135.83 32.31C135.419 32.618 135.104 33.0213 134.884 33.52C134.679 34.0187 134.576 34.5687 134.576 35.17C134.576 35.7567 134.679 36.3067 134.884 36.82C135.104 37.3187 135.419 37.722 135.83 38.03C136.241 38.338 136.739 38.492 137.326 38.492ZM145.715 41V29.34H149.059V31.012H149.169C149.301 30.7773 149.492 30.5133 149.741 30.22C150.005 29.9267 150.35 29.67 150.775 29.45C151.215 29.23 151.773 29.12 152.447 29.12C153.357 29.12 154.097 29.3327 154.669 29.758C155.241 30.1687 155.659 30.704 155.923 31.364C156.187 32.0093 156.319 32.6913 156.319 33.41V41H152.975V33.982C152.975 33.4247 152.821 32.9333 152.513 32.508C152.22 32.0827 151.743 31.87 151.083 31.87C150.585 31.87 150.189 31.9873 149.895 32.222C149.602 32.4567 149.389 32.7573 149.257 33.124C149.125 33.4907 149.059 33.8793 149.059 34.29V41H145.715ZM163.77 41.22C162.802 41.22 162.003 41.088 161.372 40.824C160.741 40.56 160.235 40.2373 159.854 39.856C159.487 39.46 159.209 39.0713 159.018 38.69C158.842 38.294 158.725 37.964 158.666 37.7C158.622 37.436 158.6 37.304 158.6 37.304H161.702C161.702 37.304 161.724 37.3773 161.768 37.524C161.812 37.6707 161.907 37.8393 162.054 38.03C162.215 38.2207 162.443 38.3893 162.736 38.536C163.029 38.6827 163.425 38.756 163.924 38.756C164.54 38.756 164.958 38.6313 165.178 38.382C165.413 38.1327 165.53 37.8833 165.53 37.634C165.53 37.106 165.097 36.754 164.232 36.578L162.648 36.27C161.973 36.138 161.335 35.9473 160.734 35.698C160.147 35.434 159.671 35.0747 159.304 34.62C158.952 34.1507 158.776 33.5493 158.776 32.816C158.776 32.112 158.959 31.4813 159.326 30.924C159.693 30.3667 160.213 29.9267 160.888 29.604C161.577 29.2813 162.399 29.12 163.352 29.12C164.247 29.12 164.987 29.2447 165.574 29.494C166.175 29.7287 166.652 30.0293 167.004 30.396C167.356 30.748 167.62 31.1073 167.796 31.474C167.972 31.826 168.082 32.1267 168.126 32.376C168.185 32.6107 168.214 32.728 168.214 32.728H165.222C165.222 32.728 165.178 32.6327 165.09 32.442C165.002 32.2367 164.819 32.0387 164.54 31.848C164.276 31.6427 163.865 31.54 163.308 31.54C162.736 31.54 162.34 31.6573 162.12 31.892C161.9 32.112 161.79 32.3467 161.79 32.596C161.79 32.8893 161.915 33.1093 162.164 33.256C162.428 33.4027 162.765 33.52 163.176 33.608L164.694 33.916C165.809 34.136 166.725 34.5247 167.444 35.082C168.163 35.6247 168.522 36.4167 168.522 37.458C168.522 38.162 168.339 38.8 167.972 39.372C167.605 39.944 167.07 40.3987 166.366 40.736C165.662 41.0587 164.797 41.22 163.77 41.22ZM174.31 41.22C173.489 41.22 172.807 41.044 172.264 40.692C171.736 40.34 171.34 39.8707 171.076 39.284C170.812 38.6827 170.68 38.008 170.68 37.26V29.34H174.002V36.6C174.002 37.1573 174.149 37.612 174.442 37.964C174.736 38.3013 175.168 38.47 175.74 38.47C176.224 38.47 176.606 38.3527 176.884 38.118C177.178 37.8833 177.39 37.5827 177.522 37.216C177.654 36.8493 177.72 36.4607 177.72 36.05V29.34H181.064V41H177.72V39.35H177.588C177.339 39.8047 176.95 40.23 176.422 40.626C175.909 41.022 175.205 41.22 174.31 41.22ZM183.834 41V24.28H187.178V41H183.834ZM195.386 41.22C194.476 41.22 193.75 41.088 193.208 40.824C192.665 40.5453 192.254 40.2007 191.976 39.79C191.697 39.3647 191.514 38.9173 191.426 38.448C191.338 37.9787 191.294 37.546 191.294 37.15V32.002H189.314V29.34H191.294V26.458H194.638V29.34H197.124V32.002H194.638V37.062C194.638 37.546 194.762 37.92 195.012 38.184C195.276 38.448 195.708 38.58 196.31 38.58C196.574 38.58 196.816 38.558 197.036 38.514C197.256 38.47 197.366 38.448 197.366 38.448V41.022C197.366 41.022 197.168 41.0513 196.772 41.11C196.376 41.1833 195.914 41.22 195.386 41.22ZM201.578 27.756C200.992 27.756 200.515 27.5727 200.148 27.206C199.782 26.8247 199.598 26.3773 199.598 25.864C199.598 25.3213 199.782 24.8667 200.148 24.5C200.515 24.1187 200.992 23.928 201.578 23.928C202.136 23.928 202.605 24.1187 202.986 24.5C203.368 24.8667 203.558 25.3213 203.558 25.864C203.558 26.3773 203.368 26.8247 202.986 27.206C202.605 27.5727 202.136 27.756 201.578 27.756ZM199.906 41V29.34H203.25V41H199.906ZM206.108 41V29.34H209.452V31.012H209.562C209.694 30.7773 209.885 30.5133 210.134 30.22C210.398 29.9267 210.743 29.67 211.168 29.45C211.608 29.23 212.165 29.12 212.84 29.12C213.749 29.12 214.49 29.3327 215.062 29.758C215.634 30.1687 216.052 30.704 216.316 31.364C216.58 32.0093 216.712 32.6913 216.712 33.41V41H213.368V33.982C213.368 33.4247 213.214 32.9333 212.906 32.508C212.613 32.0827 212.136 31.87 211.476 31.87C210.977 31.87 210.581 31.9873 210.288 32.222C209.995 32.4567 209.782 32.7573 209.65 33.124C209.518 33.4907 209.452 33.8793 209.452 34.29V41H206.108ZM225.112 45.664C224.026 45.664 223.132 45.532 222.428 45.268C221.738 45.004 221.188 44.6667 220.778 44.256C220.367 43.86 220.066 43.464 219.876 43.068C219.685 42.672 219.56 42.3347 219.502 42.056C219.458 41.792 219.436 41.66 219.436 41.66H222.692C222.692 41.66 222.714 41.726 222.758 41.858C222.816 42.0047 222.926 42.166 223.088 42.342C223.249 42.5327 223.484 42.694 223.792 42.826C224.114 42.9727 224.54 43.046 225.068 43.046C225.977 43.046 226.644 42.7893 227.07 42.276C227.51 41.7627 227.73 41.088 227.73 40.252V39.02H227.576C227.429 39.2547 227.209 39.5113 226.916 39.79C226.622 40.0687 226.248 40.3033 225.794 40.494C225.339 40.6847 224.789 40.78 224.144 40.78C223.278 40.78 222.523 40.6187 221.878 40.296C221.232 39.9587 220.69 39.5113 220.25 38.954C219.824 38.3967 219.502 37.7733 219.282 37.084C219.076 36.3947 218.974 35.6833 218.974 34.95C218.974 34.2313 219.076 33.5273 219.282 32.838C219.502 32.134 219.824 31.5033 220.25 30.946C220.69 30.3887 221.232 29.9487 221.878 29.626C222.523 29.2887 223.278 29.12 224.144 29.12C224.789 29.12 225.339 29.2227 225.794 29.428C226.248 29.6187 226.622 29.8533 226.916 30.132C227.224 30.396 227.444 30.6527 227.576 30.902H227.73V29.34H231.074V40.252C231.074 41.22 230.861 42.1147 230.436 42.936C230.01 43.7573 229.358 44.4173 228.478 44.916C227.598 45.4147 226.476 45.664 225.112 45.664ZM225.068 38.14C225.684 38.14 226.19 37.986 226.586 37.678C226.996 37.37 227.304 36.974 227.51 36.49C227.715 35.9913 227.818 35.478 227.818 34.95C227.818 34.4073 227.715 33.894 227.51 33.41C227.304 32.926 226.996 32.53 226.586 32.222C226.19 31.914 225.684 31.76 225.068 31.76C224.466 31.76 223.96 31.914 223.55 32.222C223.154 32.53 222.853 32.926 222.648 33.41C222.442 33.894 222.34 34.4073 222.34 34.95C222.34 35.478 222.442 35.9913 222.648 36.49C222.853 36.974 223.154 37.37 223.55 37.678C223.96 37.986 224.466 38.14 225.068 38.14ZM119.786 69.22C118.701 69.22 117.718 69.0293 116.838 68.648C115.958 68.252 115.254 67.6947 114.726 66.976C114.198 66.2427 113.934 65.3627 113.934 64.336C113.934 63.3533 114.191 62.51 114.704 61.806C115.217 61.0873 115.958 60.4493 116.926 59.892C116.589 59.496 116.266 59.0267 115.958 58.484C115.665 57.9413 115.518 57.2813 115.518 56.504C115.518 55.624 115.731 54.8907 116.156 54.304C116.581 53.7027 117.124 53.2553 117.784 52.962C118.459 52.654 119.163 52.5 119.896 52.5C120.629 52.5 121.319 52.6467 121.964 52.94C122.609 53.2187 123.137 53.6293 123.548 54.172C123.959 54.7147 124.164 55.3893 124.164 56.196C124.164 57.164 123.871 57.978 123.284 58.638C122.712 59.298 121.993 59.8627 121.128 60.332L124.054 63.5C124.23 63.016 124.369 62.466 124.472 61.85C124.575 61.2193 124.626 60.5153 124.626 59.738H127.288C127.288 60.9847 127.171 62.0993 126.936 63.082C126.716 64.05 126.408 64.9007 126.012 65.634L129.07 68.956H124.978L124.032 67.9C123.431 68.3547 122.763 68.692 122.03 68.912C121.311 69.1173 120.563 69.22 119.786 69.22ZM118.29 56.372C118.29 56.7827 118.422 57.1787 118.686 57.56C118.95 57.9267 119.236 58.2787 119.544 58.616C120.057 58.3667 120.497 58.0587 120.864 57.692C121.231 57.3107 121.414 56.8487 121.414 56.306C121.414 55.8073 121.253 55.4333 120.93 55.184C120.622 54.92 120.277 54.788 119.896 54.788C119.485 54.788 119.111 54.9273 118.774 55.206C118.451 55.47 118.29 55.8587 118.29 56.372ZM116.97 64.094C116.97 64.8127 117.241 65.414 117.784 65.898C118.327 66.382 119.053 66.624 119.962 66.624C120.373 66.624 120.776 66.5727 121.172 66.47C121.568 66.3527 121.935 66.1693 122.272 65.92L118.51 61.696C118.026 62.0187 117.645 62.378 117.366 62.774C117.102 63.1553 116.97 63.5953 116.97 64.094ZM142.339 69.22C141.283 69.22 140.381 69.0953 139.633 68.846C138.9 68.582 138.284 68.252 137.785 67.856C137.301 67.4453 136.913 67.02 136.619 66.58C136.326 66.1253 136.106 65.7 135.959 65.304C135.827 64.8933 135.739 64.5633 135.695 64.314C135.666 64.05 135.651 63.918 135.651 63.918H139.083C139.083 63.918 139.113 64.0427 139.171 64.292C139.245 64.5413 139.391 64.8347 139.611 65.172C139.831 65.4947 140.169 65.7807 140.623 66.03C141.078 66.2647 141.694 66.382 142.471 66.382C143.425 66.382 144.129 66.184 144.583 65.788C145.038 65.3773 145.265 64.8933 145.265 64.336C145.265 63.8373 145.089 63.4413 144.737 63.148C144.4 62.8547 143.872 62.6347 143.153 62.488L140.975 62.07C140.095 61.9087 139.274 61.652 138.511 61.3C137.763 60.948 137.155 60.464 136.685 59.848C136.216 59.2173 135.981 58.4107 135.981 57.428C135.981 56.4307 136.231 55.5653 136.729 54.832C137.228 54.084 137.925 53.512 138.819 53.116C139.729 52.7053 140.792 52.5 142.009 52.5C143.153 52.5 144.099 52.6687 144.847 53.006C145.61 53.3287 146.211 53.732 146.651 54.216C147.106 54.6853 147.436 55.162 147.641 55.646C147.861 56.13 148.001 56.5333 148.059 56.856C148.133 57.1787 148.169 57.34 148.169 57.34H144.825C144.825 57.34 144.796 57.2373 144.737 57.032C144.693 56.8267 144.576 56.592 144.385 56.328C144.195 56.064 143.901 55.8293 143.505 55.624C143.124 55.4187 142.596 55.316 141.921 55.316C140.997 55.316 140.33 55.5213 139.919 55.932C139.509 56.328 139.303 56.7607 139.303 57.23C139.303 57.714 139.509 58.088 139.919 58.352C140.33 58.616 140.865 58.814 141.525 58.946L143.835 59.408C144.715 59.5693 145.522 59.8407 146.255 60.222C146.989 60.6033 147.568 61.1167 147.993 61.762C148.433 62.3927 148.653 63.1773 148.653 64.116C148.653 65.084 148.411 65.9567 147.927 66.734C147.443 67.4967 146.732 68.1053 145.793 68.56C144.855 69 143.703 69.22 142.339 69.22ZM155.672 57.12C156.42 57.12 157.036 57.2447 157.52 57.494C158.004 57.7287 158.37 57.9853 158.62 58.264C158.884 58.5427 159.045 58.7333 159.104 58.836H159.28V57.34H162.624V69H159.28V67.504H159.104C159.045 67.6067 158.884 67.7973 158.62 68.076C158.37 68.3547 158.004 68.6187 157.52 68.868C157.036 69.1027 156.42 69.22 155.672 69.22C154.806 69.22 154.051 69.0513 153.406 68.714C152.775 68.362 152.247 67.9 151.822 67.328C151.396 66.7413 151.074 66.0887 150.854 65.37C150.648 64.6513 150.546 63.918 150.546 63.17C150.546 62.422 150.648 61.6887 150.854 60.97C151.074 60.2513 151.396 59.606 151.822 59.034C152.247 58.4473 152.775 57.9853 153.406 57.648C154.051 57.296 154.806 57.12 155.672 57.12ZM156.64 59.826C156.038 59.826 155.532 59.9947 155.122 60.332C154.726 60.6547 154.425 61.0727 154.22 61.586C154.029 62.0993 153.934 62.6273 153.934 63.17C153.934 63.7127 154.029 64.2407 154.22 64.754C154.425 65.2673 154.726 65.6927 155.122 66.03C155.532 66.3527 156.038 66.514 156.64 66.514C157.241 66.514 157.74 66.3527 158.136 66.03C158.546 65.6927 158.847 65.2673 159.038 64.754C159.243 64.2407 159.346 63.7127 159.346 63.17C159.346 62.6273 159.243 62.0993 159.038 61.586C158.847 61.0727 158.546 60.6547 158.136 60.332C157.74 59.9947 157.241 59.826 156.64 59.826ZM165.465 69V52.28H168.809V69H165.465ZM177.262 69.22C176.235 69.22 175.348 69.0513 174.6 68.714C173.852 68.362 173.236 67.9 172.752 67.328C172.268 66.7413 171.901 66.0887 171.652 65.37C171.417 64.6513 171.3 63.9107 171.3 63.148C171.3 62.4147 171.41 61.696 171.63 60.992C171.864 60.2733 172.216 59.6207 172.686 59.034C173.17 58.4473 173.778 57.9853 174.512 57.648C175.26 57.296 176.14 57.12 177.152 57.12C178.222 57.12 179.168 57.3547 179.99 57.824C180.826 58.2933 181.478 58.99 181.948 59.914C182.417 60.8233 182.652 61.9307 182.652 63.236V64.05H174.666C174.71 64.754 174.952 65.3627 175.392 65.876C175.846 66.3893 176.47 66.646 177.262 66.646C177.716 66.646 178.083 66.58 178.362 66.448C178.655 66.3013 178.882 66.14 179.044 65.964C179.205 65.7733 179.315 65.6047 179.374 65.458C179.432 65.3113 179.462 65.238 179.462 65.238H182.542C182.542 65.238 182.505 65.3773 182.432 65.656C182.373 65.92 182.241 66.25 182.036 66.646C181.83 67.042 181.53 67.438 181.134 67.834C180.752 68.23 180.246 68.56 179.616 68.824C178.985 69.088 178.2 69.22 177.262 69.22ZM174.666 62.026H179.44C179.396 61.2193 179.154 60.618 178.714 60.222C178.274 59.826 177.731 59.628 177.086 59.628C176.44 59.628 175.89 59.8407 175.436 60.266C174.981 60.6767 174.724 61.2633 174.666 62.026ZM189.959 69.22C188.991 69.22 188.192 69.088 187.561 68.824C186.931 68.56 186.425 68.2373 186.043 67.856C185.677 67.46 185.398 67.0713 185.207 66.69C185.031 66.294 184.914 65.964 184.855 65.7C184.811 65.436 184.789 65.304 184.789 65.304H187.891C187.891 65.304 187.913 65.3773 187.957 65.524C188.001 65.6707 188.097 65.8393 188.243 66.03C188.405 66.2207 188.632 66.3893 188.925 66.536C189.219 66.6827 189.615 66.756 190.113 66.756C190.729 66.756 191.147 66.6313 191.367 66.382C191.602 66.1327 191.719 65.8833 191.719 65.634C191.719 65.106 191.287 64.754 190.421 64.578L188.837 64.27C188.163 64.138 187.525 63.9473 186.923 63.698C186.337 63.434 185.86 63.0747 185.493 62.62C185.141 62.1507 184.965 61.5493 184.965 60.816C184.965 60.112 185.149 59.4813 185.515 58.924C185.882 58.3667 186.403 57.9267 187.077 57.604C187.767 57.2813 188.588 57.12 189.541 57.12C190.436 57.12 191.177 57.2447 191.763 57.494C192.365 57.7287 192.841 58.0293 193.193 58.396C193.545 58.748 193.809 59.1073 193.985 59.474C194.161 59.826 194.271 60.1267 194.315 60.376C194.374 60.6107 194.403 60.728 194.403 60.728H191.411C191.411 60.728 191.367 60.6327 191.279 60.442C191.191 60.2367 191.008 60.0387 190.729 59.848C190.465 59.6427 190.055 59.54 189.497 59.54C188.925 59.54 188.529 59.6573 188.309 59.892C188.089 60.112 187.979 60.3467 187.979 60.596C187.979 60.8893 188.104 61.1093 188.353 61.256C188.617 61.4027 188.955 61.52 189.365 61.608L190.883 61.916C191.998 62.136 192.915 62.5247 193.633 63.082C194.352 63.6247 194.711 64.4167 194.711 65.458C194.711 66.162 194.528 66.8 194.161 67.372C193.795 67.944 193.259 68.3987 192.555 68.736C191.851 69.0587 190.986 69.22 189.959 69.22Z" fill="white"/>
</svg>
