<svg width="254" height="85" viewBox="0 0 254 85" fill="none" xmlns="http://www.w3.org/2000/svg">
<path d="M42.637 72.7543C59.3912 72.7543 72.9732 59.1723 72.9732 42.4181C72.9732 25.6639 59.3912 12.0819 42.637 12.0819C25.8828 12.0819 12.3008 25.6639 12.3008 42.4181C12.3008 59.1723 25.8828 72.7543 42.637 72.7543Z" stroke="#FFBA00" stroke-width="23" stroke-miterlimit="10"/>
<path d="M114.918 36.9181V20.6381H121.078C122.398 20.6381 123.557 20.8728 124.554 21.3421C125.566 21.7968 126.402 22.4128 127.062 23.1901C127.722 23.9674 128.221 24.8401 128.558 25.8081C128.895 26.7761 129.064 27.7661 129.064 28.7781C129.064 29.7901 128.895 30.7801 128.558 31.7481C128.221 32.7161 127.722 33.5888 127.062 34.3661C126.402 35.1434 125.566 35.7668 124.554 36.2361C123.557 36.6908 122.398 36.9181 121.078 36.9181H114.918ZM120.924 23.6081H118.306V33.9041H120.924C121.995 33.9041 122.875 33.6548 123.564 33.1561C124.268 32.6574 124.789 32.0121 125.126 31.2201C125.478 30.4281 125.654 29.6068 125.654 28.7561C125.654 27.9054 125.478 27.0914 125.126 26.3141C124.789 25.5221 124.268 24.8768 123.564 24.3781C122.875 23.8648 121.995 23.6081 120.924 23.6081ZM136.191 25.0381C136.939 25.0381 137.555 25.1628 138.039 25.4121C138.523 25.6468 138.89 25.9034 139.139 26.1821C139.403 26.4608 139.565 26.6514 139.623 26.7541H139.799V25.2581H143.143V36.9181H139.799V35.4221H139.623C139.565 35.5248 139.403 35.7154 139.139 35.9941C138.89 36.2728 138.523 36.5368 138.039 36.7861C137.555 37.0208 136.939 37.1381 136.191 37.1381C135.326 37.1381 134.571 36.9694 133.925 36.6321C133.295 36.2801 132.767 35.8181 132.341 35.2461C131.916 34.6594 131.593 34.0068 131.373 33.2881C131.168 32.5694 131.065 31.8361 131.065 31.0881C131.065 30.3401 131.168 29.6068 131.373 28.8881C131.593 28.1694 131.916 27.5241 132.341 26.9521C132.767 26.3654 133.295 25.9034 133.925 25.5661C134.571 25.2141 135.326 25.0381 136.191 25.0381ZM137.159 27.7441C136.558 27.7441 136.052 27.9128 135.641 28.2501C135.245 28.5728 134.945 28.9908 134.739 29.5041C134.549 30.0174 134.453 30.5454 134.453 31.0881C134.453 31.6308 134.549 32.1588 134.739 32.6721C134.945 33.1854 135.245 33.6108 135.641 33.9481C136.052 34.2708 136.558 34.4321 137.159 34.4321C137.761 34.4321 138.259 34.2708 138.655 33.9481C139.066 33.6108 139.367 33.1854 139.557 32.6721C139.763 32.1588 139.865 31.6308 139.865 31.0881C139.865 30.5454 139.763 30.0174 139.557 29.5041C139.367 28.9908 139.066 28.5728 138.655 28.2501C138.259 27.9128 137.761 27.7441 137.159 27.7441ZM150.962 37.1381C150.053 37.1381 149.327 37.0061 148.784 36.7421C148.241 36.4634 147.831 36.1188 147.552 35.7081C147.273 35.2828 147.09 34.8354 147.002 34.3661C146.914 33.8968 146.87 33.4641 146.87 33.0681V27.9201H144.89V25.2581H146.87V22.3761H150.214V25.2581H152.7V27.9201H150.214V32.9801C150.214 33.4641 150.339 33.8381 150.588 34.1021C150.852 34.3661 151.285 34.4981 151.886 34.4981C152.15 34.4981 152.392 34.4761 152.612 34.4321C152.832 34.3881 152.942 34.3661 152.942 34.3661V36.9401C152.942 36.9401 152.744 36.9694 152.348 37.0281C151.952 37.1014 151.49 37.1381 150.962 37.1381ZM159.975 25.0381C160.723 25.0381 161.339 25.1628 161.823 25.4121C162.307 25.6468 162.673 25.9034 162.923 26.1821C163.187 26.4608 163.348 26.6514 163.407 26.7541H163.583V25.2581H166.927V36.9181H163.583V35.4221H163.407C163.348 35.5248 163.187 35.7154 162.923 35.9941C162.673 36.2728 162.307 36.5368 161.823 36.7861C161.339 37.0208 160.723 37.1381 159.975 37.1381C159.109 37.1381 158.354 36.9694 157.709 36.6321C157.078 36.2801 156.55 35.8181 156.125 35.2461C155.699 34.6594 155.377 34.0068 155.157 33.2881C154.951 32.5694 154.849 31.8361 154.849 31.0881C154.849 30.3401 154.951 29.6068 155.157 28.8881C155.377 28.1694 155.699 27.5241 156.125 26.9521C156.55 26.3654 157.078 25.9034 157.709 25.5661C158.354 25.2141 159.109 25.0381 159.975 25.0381ZM160.943 27.7441C160.341 27.7441 159.835 27.9128 159.425 28.2501C159.029 28.5728 158.728 28.9908 158.523 29.5041C158.332 30.0174 158.237 30.5454 158.237 31.0881C158.237 31.6308 158.332 32.1588 158.523 32.6721C158.728 33.1854 159.029 33.6108 159.425 33.9481C159.835 34.2708 160.341 34.4321 160.943 34.4321C161.544 34.4321 162.043 34.2708 162.439 33.9481C162.849 33.6108 163.15 33.1854 163.341 32.6721C163.546 32.1588 163.649 31.6308 163.649 31.0881C163.649 30.5454 163.546 30.0174 163.341 29.5041C163.15 28.9908 162.849 28.5728 162.439 28.2501C162.043 27.9128 161.544 27.7441 160.943 27.7441ZM180.141 37.1381C179.056 37.1381 178.073 36.9474 177.193 36.5661C176.313 36.1701 175.609 35.6128 175.081 34.8941C174.553 34.1608 174.289 33.2808 174.289 32.2541C174.289 31.2714 174.546 30.4281 175.059 29.7241C175.573 29.0054 176.313 28.3674 177.281 27.8101C176.944 27.4141 176.621 26.9448 176.313 26.4021C176.02 25.8594 175.873 25.1994 175.873 24.4221C175.873 23.5421 176.086 22.8088 176.511 22.2221C176.937 21.6208 177.479 21.1734 178.139 20.8801C178.814 20.5721 179.518 20.4181 180.251 20.4181C180.985 20.4181 181.674 20.5648 182.319 20.8581C182.965 21.1368 183.493 21.5474 183.903 22.0901C184.314 22.6328 184.519 23.3074 184.519 24.1141C184.519 25.0821 184.226 25.8961 183.639 26.5561C183.067 27.2161 182.349 27.7808 181.483 28.2501L184.409 31.4181C184.585 30.9341 184.725 30.3841 184.827 29.7681C184.93 29.1374 184.981 28.4334 184.981 27.6561H187.643C187.643 28.9028 187.526 30.0174 187.291 31.0001C187.071 31.9681 186.763 32.8188 186.367 33.5521L189.425 36.8741H185.333L184.387 35.8181C183.786 36.2728 183.119 36.6101 182.385 36.8301C181.667 37.0354 180.919 37.1381 180.141 37.1381ZM178.645 24.2901C178.645 24.7008 178.777 25.0968 179.041 25.4781C179.305 25.8448 179.591 26.1968 179.899 26.5341C180.413 26.2848 180.853 25.9768 181.219 25.6101C181.586 25.2288 181.769 24.7668 181.769 24.2241C181.769 23.7254 181.608 23.3514 181.285 23.1021C180.977 22.8381 180.633 22.7061 180.251 22.7061C179.841 22.7061 179.467 22.8454 179.129 23.1241C178.807 23.3881 178.645 23.7768 178.645 24.2901ZM177.325 32.0121C177.325 32.7308 177.597 33.3321 178.139 33.8161C178.682 34.3001 179.408 34.5421 180.317 34.5421C180.728 34.5421 181.131 34.4908 181.527 34.3881C181.923 34.2708 182.29 34.0874 182.627 33.8381L178.865 29.6141C178.381 29.9368 178 30.2961 177.721 30.6921C177.457 31.0734 177.325 31.5134 177.325 32.0121ZM119.274 64.9181V51.5861H114.28V48.6381H127.656V51.5861H122.662V64.9181H119.274ZM133.354 65.1381C132.327 65.1381 131.44 64.9694 130.692 64.6321C129.944 64.2801 129.328 63.8181 128.844 63.2461C128.36 62.6594 127.993 62.0068 127.744 61.2881C127.509 60.5694 127.392 59.8288 127.392 59.0661C127.392 58.3328 127.502 57.6141 127.722 56.9101C127.956 56.1914 128.308 55.5388 128.778 54.9521C129.262 54.3654 129.87 53.9034 130.604 53.5661C131.352 53.2141 132.232 53.0381 133.244 53.0381C134.314 53.0381 135.26 53.2728 136.082 53.7421C136.918 54.2114 137.57 54.9081 138.04 55.8321C138.509 56.7414 138.744 57.8488 138.744 59.1541V59.9681H130.758C130.802 60.6721 131.044 61.2808 131.484 61.7941C131.938 62.3074 132.562 62.5641 133.354 62.5641C133.808 62.5641 134.175 62.4981 134.454 62.3661C134.747 62.2194 134.974 62.0581 135.136 61.8821C135.297 61.6914 135.407 61.5228 135.466 61.3761C135.524 61.2294 135.554 61.1561 135.554 61.1561H138.634C138.634 61.1561 138.597 61.2954 138.524 61.5741C138.465 61.8381 138.333 62.1681 138.128 62.5641C137.922 62.9601 137.622 63.3561 137.226 63.7521C136.844 64.1481 136.338 64.4781 135.708 64.7421C135.077 65.0061 134.292 65.1381 133.354 65.1381ZM130.758 57.9441H135.532C135.488 57.1374 135.246 56.5361 134.806 56.1401C134.366 55.7441 133.823 55.5461 133.178 55.5461C132.532 55.5461 131.982 55.7588 131.528 56.1841C131.073 56.5948 130.816 57.1814 130.758 57.9441ZM146.956 65.1381C145.929 65.1381 145.034 64.9694 144.272 64.6321C143.509 64.2801 142.878 63.8181 142.38 63.2461C141.881 62.6741 141.507 62.0288 141.258 61.3101C141.008 60.5768 140.884 59.8361 140.884 59.0881C140.884 58.3401 141.008 57.6068 141.258 56.8881C141.507 56.1694 141.881 55.5241 142.38 54.9521C142.878 54.3654 143.509 53.9034 144.272 53.5661C145.034 53.2141 145.929 53.0381 146.956 53.0381C147.997 53.0381 148.855 53.1921 149.53 53.5001C150.204 53.7934 150.74 54.1674 151.136 54.6221C151.546 55.0621 151.847 55.5094 152.038 55.9641C152.228 56.4041 152.346 56.7781 152.39 57.0861C152.448 57.3794 152.478 57.5261 152.478 57.5261H149.354C149.354 57.5261 149.324 57.4381 149.266 57.2621C149.222 57.0714 149.119 56.8588 148.958 56.6241C148.811 56.3748 148.584 56.1621 148.276 55.9861C147.968 55.7954 147.557 55.7001 147.044 55.7001C146.413 55.7001 145.885 55.8614 145.46 56.1841C145.049 56.4921 144.741 56.9028 144.536 57.4161C144.33 57.9294 144.228 58.4868 144.228 59.0881C144.228 59.6894 144.33 60.2468 144.536 60.7601C144.741 61.2734 145.049 61.6914 145.46 62.0141C145.885 62.3221 146.413 62.4761 147.044 62.4761C147.557 62.4761 147.968 62.3881 148.276 62.2121C148.584 62.0214 148.811 61.8088 148.958 61.5741C149.119 61.3248 149.222 61.1121 149.266 60.9361C149.324 60.7454 149.354 60.6501 149.354 60.6501H152.478C152.478 60.6501 152.448 60.8041 152.39 61.1121C152.346 61.4054 152.228 61.7794 152.038 62.2341C151.847 62.6741 151.546 63.1214 151.136 63.5761C150.74 64.0161 150.204 64.3901 149.53 64.6981C148.855 64.9914 147.997 65.1381 146.956 65.1381ZM155.094 64.9181V48.1981H158.438V54.9301H158.548C158.68 54.6954 158.87 54.4314 159.12 54.1381C159.384 53.8448 159.728 53.5881 160.154 53.3681C160.594 53.1481 161.151 53.0381 161.826 53.0381C162.735 53.0381 163.476 53.2508 164.048 53.6761C164.62 54.0868 165.038 54.6221 165.302 55.2821C165.566 55.9274 165.698 56.6094 165.698 57.3281V64.9181H162.354V57.9001C162.354 57.3428 162.2 56.8514 161.892 56.4261C161.598 56.0008 161.122 55.7881 160.462 55.7881C159.963 55.7881 159.567 55.9054 159.274 56.1401C158.98 56.3748 158.768 56.6754 158.636 57.0421C158.504 57.4088 158.438 57.7974 158.438 58.2081V64.9181H155.094ZM168.258 64.9181V53.2581H171.602V54.9301H171.712C171.844 54.6954 172.035 54.4314 172.284 54.1381C172.548 53.8448 172.893 53.5881 173.318 53.3681C173.758 53.1481 174.316 53.0381 174.99 53.0381C175.9 53.0381 176.64 53.2508 177.212 53.6761C177.784 54.0868 178.202 54.6221 178.466 55.2821C178.73 55.9274 178.862 56.6094 178.862 57.3281V64.9181H175.518V57.9001C175.518 57.3428 175.364 56.8514 175.056 56.4261C174.763 56.0008 174.286 55.7881 173.626 55.7881C173.128 55.7881 172.732 55.9054 172.438 56.1401C172.145 56.3748 171.932 56.6754 171.8 57.0421C171.668 57.4088 171.602 57.7974 171.602 58.2081V64.9181H168.258ZM187.24 65.1381C185.935 65.1381 184.827 64.8594 183.918 64.3021C183.009 63.7301 182.312 62.9894 181.828 62.0801C181.359 61.1561 181.124 60.1588 181.124 59.0881C181.124 58.0174 181.359 57.0274 181.828 56.1181C182.312 55.1941 183.009 54.4534 183.918 53.8961C184.827 53.3241 185.935 53.0381 187.24 53.0381C188.545 53.0381 189.653 53.3241 190.562 53.8961C191.471 54.4534 192.161 55.1941 192.63 56.1181C193.114 57.0274 193.356 58.0174 193.356 59.0881C193.356 60.1588 193.114 61.1561 192.63 62.0801C192.161 62.9894 191.471 63.7301 190.562 64.3021C189.653 64.8594 188.545 65.1381 187.24 65.1381ZM187.24 62.4101C187.827 62.4101 188.318 62.2561 188.714 61.9481C189.125 61.6401 189.44 61.2368 189.66 60.7381C189.88 60.2248 189.99 59.6748 189.99 59.0881C189.99 58.4868 189.88 57.9368 189.66 57.4381C189.44 56.9394 189.125 56.5361 188.714 56.2281C188.318 55.9201 187.827 55.7661 187.24 55.7661C186.653 55.7661 186.155 55.9201 185.744 56.2281C185.333 56.5361 185.018 56.9394 184.798 57.4381C184.593 57.9368 184.49 58.4868 184.49 59.0881C184.49 59.6748 184.593 60.2248 184.798 60.7381C185.018 61.2368 185.333 61.6401 185.744 61.9481C186.155 62.2561 186.653 62.4101 187.24 62.4101ZM195.85 64.9181V48.1981H199.194V64.9181H195.85ZM207.801 65.1381C206.495 65.1381 205.388 64.8594 204.479 64.3021C203.569 63.7301 202.873 62.9894 202.389 62.0801C201.919 61.1561 201.685 60.1588 201.685 59.0881C201.685 58.0174 201.919 57.0274 202.389 56.1181C202.873 55.1941 203.569 54.4534 204.479 53.8961C205.388 53.3241 206.495 53.0381 207.801 53.0381C209.106 53.0381 210.213 53.3241 211.123 53.8961C212.032 54.4534 212.721 55.1941 213.191 56.1181C213.675 57.0274 213.917 58.0174 213.917 59.0881C213.917 60.1588 213.675 61.1561 213.191 62.0801C212.721 62.9894 212.032 63.7301 211.123 64.3021C210.213 64.8594 209.106 65.1381 207.801 65.1381ZM207.801 62.4101C208.387 62.4101 208.879 62.2561 209.275 61.9481C209.685 61.6401 210.001 61.2368 210.221 60.7381C210.441 60.2248 210.551 59.6748 210.551 59.0881C210.551 58.4868 210.441 57.9368 210.221 57.4381C210.001 56.9394 209.685 56.5361 209.275 56.2281C208.879 55.9201 208.387 55.7661 207.801 55.7661C207.214 55.7661 206.715 55.9201 206.305 56.2281C205.894 56.5361 205.579 56.9394 205.359 57.4381C205.153 57.9368 205.051 58.4868 205.051 59.0881C205.051 59.6748 205.153 60.2248 205.359 60.7381C205.579 61.2368 205.894 61.6401 206.305 61.9481C206.715 62.2561 207.214 62.4101 207.801 62.4101ZM222.196 69.5821C221.11 69.5821 220.216 69.4501 219.512 69.1861C218.822 68.9221 218.272 68.5848 217.862 68.1741C217.451 67.7781 217.15 67.3821 216.96 66.9861C216.769 66.5901 216.644 66.2528 216.586 65.9741C216.542 65.7101 216.52 65.5781 216.52 65.5781H219.776C219.776 65.5781 219.798 65.6441 219.842 65.7761C219.9 65.9228 220.01 66.0841 220.172 66.2601C220.333 66.4508 220.568 66.6121 220.876 66.7441C221.198 66.8908 221.624 66.9641 222.152 66.9641C223.061 66.9641 223.728 66.7074 224.154 66.1941C224.594 65.6808 224.814 65.0061 224.814 64.1701V62.9381H224.66C224.513 63.1728 224.293 63.4294 224 63.7081C223.706 63.9868 223.332 64.2214 222.878 64.4121C222.423 64.6028 221.873 64.6981 221.228 64.6981C220.362 64.6981 219.607 64.5368 218.962 64.2141C218.316 63.8768 217.774 63.4294 217.334 62.8721C216.908 62.3148 216.586 61.6914 216.366 61.0021C216.16 60.3128 216.058 59.6014 216.058 58.8681C216.058 58.1494 216.16 57.4454 216.366 56.7561C216.586 56.0521 216.908 55.4214 217.334 54.8641C217.774 54.3068 218.316 53.8668 218.962 53.5441C219.607 53.2068 220.362 53.0381 221.228 53.0381C221.873 53.0381 222.423 53.1408 222.878 53.3461C223.332 53.5368 223.706 53.7714 224 54.0501C224.308 54.3141 224.528 54.5708 224.66 54.8201H224.814V53.2581H228.158V64.1701C228.158 65.1381 227.945 66.0328 227.52 66.8541C227.094 67.6754 226.442 68.3354 225.562 68.8341C224.682 69.3328 223.56 69.5821 222.196 69.5821ZM222.152 62.0581C222.768 62.0581 223.274 61.9041 223.67 61.5961C224.08 61.2881 224.388 60.8921 224.594 60.4081C224.799 59.9094 224.902 59.3961 224.902 58.8681C224.902 58.3254 224.799 57.8121 224.594 57.3281C224.388 56.8441 224.08 56.4481 223.67 56.1401C223.274 55.8321 222.768 55.6781 222.152 55.6781C221.55 55.6781 221.044 55.8321 220.634 56.1401C220.238 56.4481 219.937 56.8441 219.732 57.3281C219.526 57.8121 219.424 58.3254 219.424 58.8681C219.424 59.3961 219.526 59.9094 219.732 60.4081C219.937 60.8921 220.238 61.2881 220.634 61.5961C221.044 61.9041 221.55 62.0581 222.152 62.0581ZM231.66 69.2081C231.264 69.2081 230.948 69.1934 230.714 69.1641C230.479 69.1348 230.362 69.1201 230.362 69.1201V66.4361C230.362 66.4361 230.457 66.4434 230.648 66.4581C230.853 66.4728 231.102 66.4801 231.396 66.4801C232.1 66.4801 232.679 66.3774 233.134 66.1721C233.588 65.9814 233.984 65.6001 234.322 65.0281L230.01 53.2581H233.354L236.06 61.1561L238.7 53.2581H242.066L237.886 64.4561C237.504 65.5268 237.042 66.4141 236.5 67.1181C235.972 67.8221 235.319 68.3428 234.542 68.6801C233.764 69.0321 232.804 69.2081 231.66 69.2081Z" fill="white"/>
</svg>
