<svg width="266" height="60" viewBox="0 0 266 60" fill="none" xmlns="http://www.w3.org/2000/svg">
<path d="M17.5 42.0345C24.4036 42.0345 30 36.438 30 29.5345C30 22.6309 24.4036 17.0345 17.5 17.0345C10.5964 17.0345 5 22.6309 5 29.5345C5 36.438 10.5964 42.0345 17.5 42.0345Z" stroke="#00B96F" stroke-width="10" stroke-miterlimit="10"/>
<path d="M68.954 22.2545C67.6047 22.2545 66.424 22.0198 65.412 21.5505C64.4147 21.0665 63.5787 20.4285 62.904 19.6365C62.2293 18.8298 61.7233 17.9278 61.386 16.9305C61.0487 15.9332 60.88 14.9138 60.88 13.8725C60.88 12.8458 61.0487 11.8338 61.386 10.8365C61.7233 9.83915 62.2293 8.94448 62.904 8.15248C63.5787 7.34582 64.4147 6.70782 65.412 6.23848C66.424 5.76915 67.6047 5.53448 68.954 5.53448C70.0833 5.53448 71.044 5.68115 71.836 5.97448C72.6427 6.25315 73.31 6.61982 73.838 7.07448C74.3807 7.51448 74.8133 7.99115 75.136 8.50448C75.4733 9.00315 75.7227 9.47982 75.884 9.93448C76.0453 10.3745 76.148 10.7412 76.192 11.0345C76.2507 11.3132 76.28 11.4525 76.28 11.4525H72.914C72.914 11.4525 72.8847 11.3572 72.826 11.1665C72.782 10.9612 72.6867 10.7192 72.54 10.4405C72.3933 10.1472 72.1733 9.86115 71.88 9.58248C71.6013 9.30382 71.22 9.06915 70.736 8.87848C70.2667 8.67315 69.68 8.57048 68.976 8.57048C67.964 8.57048 67.1133 8.83448 66.424 9.36248C65.7493 9.87582 65.236 10.5358 64.884 11.3425C64.5467 12.1492 64.378 12.9925 64.378 13.8725C64.378 14.7525 64.5467 15.6032 64.884 16.4245C65.236 17.2312 65.7493 17.8985 66.424 18.4265C67.1133 18.9398 67.964 19.1965 68.976 19.1965C69.68 19.1965 70.2667 19.1012 70.736 18.9105C71.22 18.7198 71.6013 18.4852 71.88 18.2065C72.1733 17.9132 72.3933 17.6272 72.54 17.3485C72.6867 17.0552 72.782 16.8132 72.826 16.6225C72.8847 16.4318 72.914 16.3365 72.914 16.3365H76.28C76.28 16.3365 76.2507 16.4832 76.192 16.7765C76.148 17.0552 76.0453 17.4218 75.884 17.8765C75.7227 18.3165 75.4733 18.7932 75.136 19.3065C74.8133 19.8052 74.3807 20.2818 73.838 20.7365C73.31 21.1765 72.6427 21.5432 71.836 21.8365C71.044 22.1152 70.0833 22.2545 68.954 22.2545ZM78.442 22.0345V10.3745H81.764V12.0685H81.874C82.006 11.7605 82.1893 11.4598 82.424 11.1665C82.6587 10.8732 82.9813 10.6312 83.392 10.4405C83.8027 10.2498 84.3307 10.1545 84.976 10.1545C85.2987 10.1545 85.5553 10.1765 85.746 10.2205C85.9367 10.2498 86.032 10.2645 86.032 10.2645V13.5645C86.032 13.5645 85.922 13.5425 85.702 13.4985C85.4967 13.4545 85.2253 13.4325 84.888 13.4325C83.8467 13.4325 83.0693 13.7185 82.556 14.2905C82.0427 14.8478 81.786 15.7645 81.786 17.0405V22.0345H78.442ZM93.1875 22.2545C92.1608 22.2545 91.2735 22.0858 90.5255 21.7485C89.7775 21.3965 89.1615 20.9345 88.6775 20.3625C88.1935 19.7758 87.8268 19.1232 87.5775 18.4045C87.3428 17.6858 87.2255 16.9452 87.2255 16.1825C87.2255 15.4492 87.3355 14.7305 87.5555 14.0265C87.7902 13.3078 88.1422 12.6552 88.6115 12.0685C89.0955 11.4818 89.7042 11.0198 90.4375 10.6825C91.1855 10.3305 92.0655 10.1545 93.0775 10.1545C94.1482 10.1545 95.0942 10.3892 95.9155 10.8585C96.7515 11.3278 97.4042 12.0245 97.8735 12.9485C98.3428 13.8578 98.5775 14.9652 98.5775 16.2705V17.0845H90.5915C90.6355 17.7885 90.8775 18.3972 91.3175 18.9105C91.7722 19.4238 92.3955 19.6805 93.1875 19.6805C93.6422 19.6805 94.0088 19.6145 94.2875 19.4825C94.5808 19.3358 94.8082 19.1745 94.9695 18.9985C95.1308 18.8078 95.2408 18.6392 95.2995 18.4925C95.3582 18.3458 95.3875 18.2725 95.3875 18.2725H98.4675C98.4675 18.2725 98.4308 18.4118 98.3575 18.6905C98.2988 18.9545 98.1668 19.2845 97.9615 19.6805C97.7562 20.0765 97.4555 20.4725 97.0595 20.8685C96.6782 21.2645 96.1722 21.5945 95.5415 21.8585C94.9108 22.1225 94.1262 22.2545 93.1875 22.2545ZM90.5915 15.0605H95.3655C95.3215 14.2538 95.0795 13.6525 94.6395 13.2565C94.1995 12.8605 93.6568 12.6625 93.0115 12.6625C92.3662 12.6625 91.8162 12.8752 91.3615 13.3005C90.9068 13.7112 90.6502 14.2978 90.5915 15.0605ZM105.844 10.1545C106.592 10.1545 107.208 10.2792 107.692 10.5285C108.176 10.7632 108.542 11.0198 108.792 11.2985C109.056 11.5772 109.217 11.7678 109.276 11.8705H109.452V10.3745H112.796V22.0345H109.452V20.5385H109.276C109.217 20.6412 109.056 20.8318 108.792 21.1105C108.542 21.3892 108.176 21.6532 107.692 21.9025C107.208 22.1372 106.592 22.2545 105.844 22.2545C104.978 22.2545 104.223 22.0858 103.578 21.7485C102.947 21.3965 102.419 20.9345 101.994 20.3625C101.568 19.7758 101.246 19.1232 101.026 18.4045C100.82 17.6858 100.718 16.9525 100.718 16.2045C100.718 15.4565 100.82 14.7232 101.026 14.0045C101.246 13.2858 101.568 12.6405 101.994 12.0685C102.419 11.4818 102.947 11.0198 103.578 10.6825C104.223 10.3305 104.978 10.1545 105.844 10.1545ZM106.812 12.8605C106.21 12.8605 105.704 13.0292 105.294 13.3665C104.898 13.6892 104.597 14.1072 104.392 14.6205C104.201 15.1338 104.106 15.6618 104.106 16.2045C104.106 16.7472 104.201 17.2752 104.392 17.7885C104.597 18.3018 104.898 18.7272 105.294 19.0645C105.704 19.3872 106.21 19.5485 106.812 19.5485C107.413 19.5485 107.912 19.3872 108.308 19.0645C108.718 18.7272 109.019 18.3018 109.21 17.7885C109.415 17.2752 109.518 16.7472 109.518 16.2045C109.518 15.6618 109.415 15.1338 109.21 14.6205C109.019 14.1072 108.718 13.6892 108.308 13.3665C107.912 13.0292 107.413 12.8605 106.812 12.8605ZM120.614 22.2545C119.705 22.2545 118.979 22.1225 118.436 21.8585C117.894 21.5798 117.483 21.2352 117.204 20.8245C116.926 20.3992 116.742 19.9518 116.654 19.4825C116.566 19.0132 116.522 18.5805 116.522 18.1845V13.0365H114.542V10.3745H116.522V7.49248H119.866V10.3745H122.352V13.0365H119.866V18.0965C119.866 18.5805 119.991 18.9545 120.24 19.2185C120.504 19.4825 120.937 19.6145 121.538 19.6145C121.802 19.6145 122.044 19.5925 122.264 19.5485C122.484 19.5045 122.594 19.4825 122.594 19.4825V22.0565C122.594 22.0565 122.396 22.0858 122 22.1445C121.604 22.2178 121.142 22.2545 120.614 22.2545ZM126.807 8.79048C126.22 8.79048 125.743 8.60715 125.377 8.24048C125.01 7.85915 124.827 7.41182 124.827 6.89848C124.827 6.35582 125.01 5.90115 125.377 5.53448C125.743 5.15315 126.22 4.96248 126.807 4.96248C127.364 4.96248 127.833 5.15315 128.215 5.53448C128.596 5.90115 128.787 6.35582 128.787 6.89848C128.787 7.41182 128.596 7.85915 128.215 8.24048C127.833 8.60715 127.364 8.79048 126.807 8.79048ZM125.135 22.0345V10.3745H128.479V22.0345H125.135ZM134.835 22.0345L130.567 10.3745H133.911L136.639 18.2725L139.257 10.3745H142.623L138.333 22.0345H134.835ZM149.627 22.2545C148.6 22.2545 147.713 22.0858 146.965 21.7485C146.217 21.3965 145.601 20.9345 145.117 20.3625C144.633 19.7758 144.266 19.1232 144.017 18.4045C143.782 17.6858 143.665 16.9452 143.665 16.1825C143.665 15.4492 143.775 14.7305 143.995 14.0265C144.23 13.3078 144.582 12.6552 145.051 12.0685C145.535 11.4818 146.144 11.0198 146.877 10.6825C147.625 10.3305 148.505 10.1545 149.517 10.1545C150.588 10.1545 151.534 10.3892 152.355 10.8585C153.191 11.3278 153.844 12.0245 154.313 12.9485C154.782 13.8578 155.017 14.9652 155.017 16.2705V17.0845H147.031C147.075 17.7885 147.317 18.3972 147.757 18.9105C148.212 19.4238 148.835 19.6805 149.627 19.6805C150.082 19.6805 150.448 19.6145 150.727 19.4825C151.02 19.3358 151.248 19.1745 151.409 18.9985C151.57 18.8078 151.68 18.6392 151.739 18.4925C151.798 18.3458 151.827 18.2725 151.827 18.2725H154.907C154.907 18.2725 154.87 18.4118 154.797 18.6905C154.738 18.9545 154.606 19.2845 154.401 19.6805C154.196 20.0765 153.895 20.4725 153.499 20.8685C153.118 21.2645 152.612 21.5945 151.981 21.8585C151.35 22.1225 150.566 22.2545 149.627 22.2545ZM147.031 15.0605H151.805C151.761 14.2538 151.519 13.6525 151.079 13.2565C150.639 12.8605 150.096 12.6625 149.451 12.6625C148.806 12.6625 148.256 12.8752 147.801 13.3005C147.346 13.7112 147.09 14.2978 147.031 15.0605ZM168.077 22.2545C166.992 22.2545 166.009 22.0638 165.129 21.6825C164.249 21.2865 163.545 20.7292 163.017 20.0105C162.489 19.2772 162.225 18.3972 162.225 17.3705C162.225 16.3878 162.482 15.5445 162.995 14.8405C163.508 14.1218 164.249 13.4838 165.217 12.9265C164.88 12.5305 164.557 12.0612 164.249 11.5185C163.956 10.9758 163.809 10.3158 163.809 9.53848C163.809 8.65848 164.022 7.92515 164.447 7.33848C164.872 6.73715 165.415 6.28982 166.075 5.99648C166.75 5.68848 167.454 5.53448 168.187 5.53448C168.92 5.53448 169.61 5.68115 170.255 5.97448C170.9 6.25315 171.428 6.66382 171.839 7.20648C172.25 7.74915 172.455 8.42382 172.455 9.23048C172.455 10.1985 172.162 11.0125 171.575 11.6725C171.003 12.3325 170.284 12.8972 169.419 13.3665L172.345 16.5345C172.521 16.0505 172.66 15.5005 172.763 14.8845C172.866 14.2538 172.917 13.5498 172.917 12.7725H175.579C175.579 14.0192 175.462 15.1338 175.227 16.1165C175.007 17.0845 174.699 17.9352 174.303 18.6685L177.361 21.9905H173.269L172.323 20.9345C171.722 21.3892 171.054 21.7265 170.321 21.9465C169.602 22.1518 168.854 22.2545 168.077 22.2545ZM166.581 9.40648C166.581 9.81715 166.713 10.2132 166.977 10.5945C167.241 10.9612 167.527 11.3132 167.835 11.6505C168.348 11.4012 168.788 11.0932 169.155 10.7265C169.522 10.3452 169.705 9.88315 169.705 9.34048C169.705 8.84182 169.544 8.46782 169.221 8.21848C168.913 7.95448 168.568 7.82248 168.187 7.82248C167.776 7.82248 167.402 7.96182 167.065 8.24048C166.742 8.50448 166.581 8.89315 166.581 9.40648ZM165.261 17.1285C165.261 17.8472 165.532 18.4485 166.075 18.9325C166.618 19.4165 167.344 19.6585 168.253 19.6585C168.664 19.6585 169.067 19.6072 169.463 19.5045C169.859 19.3872 170.226 19.2038 170.563 18.9545L166.801 14.7305C166.317 15.0532 165.936 15.4125 165.657 15.8085C165.393 16.1898 165.261 16.6298 165.261 17.1285ZM184.559 22.0345V5.75448H192.083C193.139 5.75448 194.026 5.93782 194.745 6.30448C195.478 6.67115 196.035 7.16248 196.417 7.77848C196.798 8.37982 196.989 9.04715 196.989 9.78048C196.989 10.4992 196.857 11.1005 196.593 11.5845C196.329 12.0538 196.006 12.4352 195.625 12.7285C195.258 13.0072 194.899 13.1978 194.547 13.3005V13.4765C194.943 13.5645 195.383 13.7552 195.867 14.0485C196.351 14.3418 196.769 14.7598 197.121 15.3025C197.473 15.8452 197.649 16.5492 197.649 17.4145C197.649 18.1772 197.465 18.9105 197.099 19.6145C196.747 20.3185 196.167 20.8978 195.361 21.3525C194.569 21.8072 193.535 22.0345 192.259 22.0345H184.559ZM191.511 8.59248H187.947V12.3765H191.511C192.273 12.3765 192.831 12.1932 193.183 11.8265C193.535 11.4598 193.711 11.0125 193.711 10.4845C193.711 9.97115 193.535 9.53115 193.183 9.16448C192.831 8.78315 192.273 8.59248 191.511 8.59248ZM191.775 14.9725H187.947V19.1965H191.775C192.64 19.1965 193.263 18.9912 193.645 18.5805C194.041 18.1552 194.239 17.6492 194.239 17.0625C194.239 16.4905 194.041 15.9992 193.645 15.5885C193.263 15.1778 192.64 14.9725 191.775 14.9725ZM199.936 22.0345V10.3745H203.258V12.0685H203.368C203.5 11.7605 203.683 11.4598 203.918 11.1665C204.153 10.8732 204.475 10.6312 204.886 10.4405C205.297 10.2498 205.825 10.1545 206.47 10.1545C206.793 10.1545 207.049 10.1765 207.24 10.2205C207.431 10.2498 207.526 10.2645 207.526 10.2645V13.5645C207.526 13.5645 207.416 13.5425 207.196 13.4985C206.991 13.4545 206.719 13.4325 206.382 13.4325C205.341 13.4325 204.563 13.7185 204.05 14.2905C203.537 14.8478 203.28 15.7645 203.28 17.0405V22.0345H199.936ZM213.846 10.1545C214.594 10.1545 215.21 10.2792 215.694 10.5285C216.178 10.7632 216.544 11.0198 216.794 11.2985C217.058 11.5772 217.219 11.7678 217.278 11.8705H217.454V10.3745H220.798V22.0345H217.454V20.5385H217.278C217.219 20.6412 217.058 20.8318 216.794 21.1105C216.544 21.3892 216.178 21.6532 215.694 21.9025C215.21 22.1372 214.594 22.2545 213.846 22.2545C212.98 22.2545 212.225 22.0858 211.58 21.7485C210.949 21.3965 210.421 20.9345 209.996 20.3625C209.57 19.7758 209.248 19.1232 209.028 18.4045C208.822 17.6858 208.72 16.9525 208.72 16.2045C208.72 15.4565 208.822 14.7232 209.028 14.0045C209.248 13.2858 209.57 12.6405 209.996 12.0685C210.421 11.4818 210.949 11.0198 211.58 10.6825C212.225 10.3305 212.98 10.1545 213.846 10.1545ZM214.814 12.8605C214.212 12.8605 213.706 13.0292 213.296 13.3665C212.9 13.6892 212.599 14.1072 212.394 14.6205C212.203 15.1338 212.108 15.6618 212.108 16.2045C212.108 16.7472 212.203 17.2752 212.394 17.7885C212.599 18.3018 212.9 18.7272 213.296 19.0645C213.706 19.3872 214.212 19.5485 214.814 19.5485C215.415 19.5485 215.914 19.3872 216.31 19.0645C216.72 18.7272 217.021 18.3018 217.212 17.7885C217.417 17.2752 217.52 16.7472 217.52 16.2045C217.52 15.6618 217.417 15.1338 217.212 14.6205C217.021 14.1072 216.72 13.6892 216.31 13.3665C215.914 13.0292 215.415 12.8605 214.814 12.8605ZM223.419 22.0345V10.3745H226.763V12.0465H226.873C227.005 11.8118 227.195 11.5478 227.445 11.2545C227.709 10.9612 228.053 10.7045 228.479 10.4845C228.919 10.2645 229.476 10.1545 230.151 10.1545C231.06 10.1545 231.801 10.3672 232.373 10.7925C232.945 11.2032 233.363 11.7385 233.627 12.3985C233.891 13.0438 234.023 13.7258 234.023 14.4445V22.0345H230.679V15.0165C230.679 14.4592 230.525 13.9678 230.217 13.5425C229.923 13.1172 229.447 12.9045 228.787 12.9045C228.288 12.9045 227.892 13.0218 227.599 13.2565C227.305 13.4912 227.093 13.7918 226.961 14.1585C226.829 14.5252 226.763 14.9138 226.763 15.3245V22.0345H223.419ZM241.41 22.2545C240.545 22.2545 239.789 22.0858 239.144 21.7485C238.513 21.3965 237.985 20.9345 237.56 20.3625C237.135 19.7758 236.812 19.1232 236.592 18.4045C236.387 17.6858 236.284 16.9525 236.284 16.2045C236.284 15.4565 236.387 14.7232 236.592 14.0045C236.812 13.2858 237.135 12.6405 237.56 12.0685C237.985 11.4818 238.513 11.0198 239.144 10.6825C239.789 10.3305 240.545 10.1545 241.41 10.1545C242.158 10.1545 242.774 10.2792 243.258 10.5285C243.742 10.7632 244.109 11.0198 244.358 11.2985C244.622 11.5772 244.783 11.7678 244.842 11.8705H245.018V5.31448H248.362V22.0345H245.018V20.5385H244.842C244.783 20.6412 244.622 20.8318 244.358 21.1105C244.109 21.3892 243.742 21.6532 243.258 21.9025C242.774 22.1372 242.158 22.2545 241.41 22.2545ZM242.378 19.5485C242.979 19.5485 243.478 19.3872 243.874 19.0645C244.285 18.7272 244.585 18.3018 244.776 17.7885C244.981 17.2752 245.084 16.7472 245.084 16.2045C245.084 15.6618 244.981 15.1338 244.776 14.6205C244.585 14.1072 244.285 13.6892 243.874 13.3665C243.478 13.0292 242.979 12.8605 242.378 12.8605C241.777 12.8605 241.271 13.0292 240.86 13.3665C240.464 13.6892 240.163 14.1072 239.958 14.6205C239.767 15.1338 239.672 15.6618 239.672 16.2045C239.672 16.7472 239.767 17.2752 239.958 17.7885C240.163 18.3018 240.464 18.7272 240.86 19.0645C241.271 19.3872 241.777 19.5485 242.378 19.5485ZM61.496 50.0345V33.7545H72.716V36.7025H64.884V40.3545H71.704V43.1925H64.884V47.0865H72.826V50.0345H61.496ZM74.9952 50.0345L78.5372 44.2265L74.9952 38.3745H78.4712L80.7812 42.2245L83.1352 38.3745H86.6112L82.9372 44.2265L86.5892 50.0345H83.1352L80.7812 46.1845L78.4932 50.0345H74.9952ZM88.996 54.3245V38.3745H92.34V39.8705H92.494C92.5673 39.7678 92.7287 39.5772 92.978 39.2985C93.242 39.0198 93.616 38.7632 94.1 38.5285C94.584 38.2792 95.2 38.1545 95.948 38.1545C96.8133 38.1545 97.5613 38.3305 98.192 38.6825C98.8373 39.0198 99.3727 39.4818 99.798 40.0685C100.223 40.6405 100.539 41.2858 100.744 42.0045C100.964 42.7232 101.074 43.4565 101.074 44.2045C101.074 44.9525 100.964 45.6858 100.744 46.4045C100.539 47.1232 100.223 47.7758 99.798 48.3625C99.3727 48.9345 98.8373 49.3965 98.192 49.7485C97.5613 50.0858 96.8133 50.2545 95.948 50.2545C95.2 50.2545 94.584 50.1372 94.1 49.9025C93.616 49.6532 93.242 49.3892 92.978 49.1105C92.7287 48.8318 92.5673 48.6412 92.494 48.5385H92.34V54.3245H88.996ZM92.274 44.2045C92.274 44.7472 92.3693 45.2752 92.56 45.7885C92.7653 46.3018 93.066 46.7272 93.462 47.0645C93.8727 47.3872 94.3787 47.5485 94.98 47.5485C95.5813 47.5485 96.08 47.3872 96.476 47.0645C96.8867 46.7272 97.1873 46.3018 97.378 45.7885C97.5833 45.2752 97.686 44.7472 97.686 44.2045C97.686 43.6618 97.5833 43.1338 97.378 42.6205C97.1873 42.1072 96.8867 41.6892 96.476 41.3665C96.08 41.0292 95.5813 40.8605 94.98 40.8605C94.3787 40.8605 93.8727 41.0292 93.462 41.3665C93.066 41.6892 92.7653 42.1072 92.56 42.6205C92.3693 43.1338 92.274 43.6618 92.274 44.2045ZM109.172 50.2545C108.145 50.2545 107.258 50.0858 106.51 49.7485C105.762 49.3965 105.146 48.9345 104.662 48.3625C104.178 47.7758 103.811 47.1232 103.562 46.4045C103.327 45.6858 103.21 44.9452 103.21 44.1825C103.21 43.4492 103.32 42.7305 103.54 42.0265C103.775 41.3078 104.127 40.6552 104.596 40.0685C105.08 39.4818 105.689 39.0198 106.422 38.6825C107.17 38.3305 108.05 38.1545 109.062 38.1545C110.133 38.1545 111.079 38.3892 111.9 38.8585C112.736 39.3278 113.389 40.0245 113.858 40.9485C114.327 41.8578 114.562 42.9652 114.562 44.2705V45.0845H106.576C106.62 45.7885 106.862 46.3972 107.302 46.9105C107.757 47.4238 108.38 47.6805 109.172 47.6805C109.627 47.6805 109.993 47.6145 110.272 47.4825C110.565 47.3358 110.793 47.1745 110.954 46.9985C111.115 46.8078 111.225 46.6392 111.284 46.4925C111.343 46.3458 111.372 46.2725 111.372 46.2725H114.452C114.452 46.2725 114.415 46.4118 114.342 46.6905C114.283 46.9545 114.151 47.2845 113.946 47.6805C113.741 48.0765 113.44 48.4725 113.044 48.8685C112.663 49.2645 112.157 49.5945 111.526 49.8585C110.895 50.1225 110.111 50.2545 109.172 50.2545ZM106.576 43.0605H111.35C111.306 42.2538 111.064 41.6525 110.624 41.2565C110.184 40.8605 109.641 40.6625 108.996 40.6625C108.351 40.6625 107.801 40.8752 107.346 41.3005C106.891 41.7112 106.635 42.2978 106.576 43.0605ZM116.964 50.0345V38.3745H120.286V40.0685H120.396C120.528 39.7605 120.711 39.4598 120.946 39.1665C121.18 38.8732 121.503 38.6312 121.914 38.4405C122.324 38.2498 122.852 38.1545 123.498 38.1545C123.82 38.1545 124.077 38.1765 124.268 38.2205C124.458 38.2498 124.554 38.2645 124.554 38.2645V41.5645C124.554 41.5645 124.444 41.5425 124.224 41.4985C124.018 41.4545 123.747 41.4325 123.41 41.4325C122.368 41.4325 121.591 41.7185 121.078 42.2905C120.564 42.8478 120.308 43.7645 120.308 45.0405V50.0345H116.964ZM128.676 36.7905C128.089 36.7905 127.613 36.6072 127.246 36.2405C126.879 35.8592 126.696 35.4118 126.696 34.8985C126.696 34.3558 126.879 33.9012 127.246 33.5345C127.613 33.1532 128.089 32.9625 128.676 32.9625C129.233 32.9625 129.703 33.1532 130.084 33.5345C130.465 33.9012 130.656 34.3558 130.656 34.8985C130.656 35.4118 130.465 35.8592 130.084 36.2405C129.703 36.6072 129.233 36.7905 128.676 36.7905ZM127.004 50.0345V38.3745H130.348V50.0345H127.004ZM139.014 50.2545C137.987 50.2545 137.1 50.0858 136.352 49.7485C135.604 49.3965 134.988 48.9345 134.504 48.3625C134.02 47.7758 133.653 47.1232 133.404 46.4045C133.169 45.6858 133.052 44.9452 133.052 44.1825C133.052 43.4492 133.162 42.7305 133.382 42.0265C133.616 41.3078 133.968 40.6552 134.438 40.0685C134.922 39.4818 135.53 39.0198 136.264 38.6825C137.012 38.3305 137.892 38.1545 138.904 38.1545C139.974 38.1545 140.92 38.3892 141.742 38.8585C142.578 39.3278 143.23 40.0245 143.7 40.9485C144.169 41.8578 144.404 42.9652 144.404 44.2705V45.0845H136.418C136.462 45.7885 136.704 46.3972 137.144 46.9105C137.598 47.4238 138.222 47.6805 139.014 47.6805C139.468 47.6805 139.835 47.6145 140.114 47.4825C140.407 47.3358 140.634 47.1745 140.796 46.9985C140.957 46.8078 141.067 46.6392 141.126 46.4925C141.184 46.3458 141.214 46.2725 141.214 46.2725H144.294C144.294 46.2725 144.257 46.4118 144.184 46.6905C144.125 46.9545 143.993 47.2845 143.788 47.6805C143.582 48.0765 143.282 48.4725 142.886 48.8685C142.504 49.2645 141.998 49.5945 141.368 49.8585C140.737 50.1225 139.952 50.2545 139.014 50.2545ZM136.418 43.0605H141.192C141.148 42.2538 140.906 41.6525 140.466 41.2565C140.026 40.8605 139.483 40.6625 138.838 40.6625C138.192 40.6625 137.642 40.8752 137.188 41.3005C136.733 41.7112 136.476 42.2978 136.418 43.0605ZM146.676 50.0345V38.3745H150.02V40.0465H150.13C150.262 39.8118 150.453 39.5478 150.702 39.2545C150.966 38.9612 151.311 38.7045 151.736 38.4845C152.176 38.2645 152.734 38.1545 153.408 38.1545C154.318 38.1545 155.058 38.3672 155.63 38.7925C156.202 39.2032 156.62 39.7385 156.884 40.3985C157.148 41.0438 157.28 41.7258 157.28 42.4445V50.0345H153.936V43.0165C153.936 42.4592 153.782 41.9678 153.474 41.5425C153.181 41.1172 152.704 40.9045 152.044 40.9045C151.546 40.9045 151.15 41.0218 150.856 41.2565C150.563 41.4912 150.35 41.7918 150.218 42.1585C150.086 42.5252 150.02 42.9138 150.02 43.3245V50.0345H146.676ZM165.614 50.2545C164.587 50.2545 163.693 50.0858 162.93 49.7485C162.167 49.3965 161.537 48.9345 161.038 48.3625C160.539 47.7905 160.165 47.1452 159.916 46.4265C159.667 45.6932 159.542 44.9525 159.542 44.2045C159.542 43.4565 159.667 42.7232 159.916 42.0045C160.165 41.2858 160.539 40.6405 161.038 40.0685C161.537 39.4818 162.167 39.0198 162.93 38.6825C163.693 38.3305 164.587 38.1545 165.614 38.1545C166.655 38.1545 167.513 38.3085 168.188 38.6165C168.863 38.9098 169.398 39.2838 169.794 39.7385C170.205 40.1785 170.505 40.6258 170.696 41.0805C170.887 41.5205 171.004 41.8945 171.048 42.2025C171.107 42.4958 171.136 42.6425 171.136 42.6425H168.012C168.012 42.6425 167.983 42.5545 167.924 42.3785C167.88 42.1878 167.777 41.9752 167.616 41.7405C167.469 41.4912 167.242 41.2785 166.934 41.1025C166.626 40.9118 166.215 40.8165 165.702 40.8165C165.071 40.8165 164.543 40.9778 164.118 41.3005C163.707 41.6085 163.399 42.0192 163.194 42.5325C162.989 43.0458 162.886 43.6032 162.886 44.2045C162.886 44.8058 162.989 45.3632 163.194 45.8765C163.399 46.3898 163.707 46.8078 164.118 47.1305C164.543 47.4385 165.071 47.5925 165.702 47.5925C166.215 47.5925 166.626 47.5045 166.934 47.3285C167.242 47.1378 167.469 46.9252 167.616 46.6905C167.777 46.4412 167.88 46.2285 167.924 46.0525C167.983 45.8618 168.012 45.7665 168.012 45.7665H171.136C171.136 45.7665 171.107 45.9205 171.048 46.2285C171.004 46.5218 170.887 46.8958 170.696 47.3505C170.505 47.7905 170.205 48.2378 169.794 48.6925C169.398 49.1325 168.863 49.5065 168.188 49.8145C167.513 50.1078 166.655 50.2545 165.614 50.2545ZM179.211 50.2545C178.184 50.2545 177.297 50.0858 176.549 49.7485C175.801 49.3965 175.185 48.9345 174.701 48.3625C174.217 47.7758 173.85 47.1232 173.601 46.4045C173.366 45.6858 173.249 44.9452 173.249 44.1825C173.249 43.4492 173.359 42.7305 173.579 42.0265C173.814 41.3078 174.166 40.6552 174.635 40.0685C175.119 39.4818 175.728 39.0198 176.461 38.6825C177.209 38.3305 178.089 38.1545 179.101 38.1545C180.172 38.1545 181.118 38.3892 181.939 38.8585C182.775 39.3278 183.428 40.0245 183.897 40.9485C184.366 41.8578 184.601 42.9652 184.601 44.2705V45.0845H176.615C176.659 45.7885 176.901 46.3972 177.341 46.9105C177.796 47.4238 178.419 47.6805 179.211 47.6805C179.666 47.6805 180.032 47.6145 180.311 47.4825C180.604 47.3358 180.832 47.1745 180.993 46.9985C181.154 46.8078 181.264 46.6392 181.323 46.4925C181.382 46.3458 181.411 46.2725 181.411 46.2725H184.491C184.491 46.2725 184.454 46.4118 184.381 46.6905C184.322 46.9545 184.19 47.2845 183.985 47.6805C183.78 48.0765 183.479 48.4725 183.083 48.8685C182.702 49.2645 182.196 49.5945 181.565 49.8585C180.934 50.1225 180.15 50.2545 179.211 50.2545ZM176.615 43.0605H181.389C181.345 42.2538 181.103 41.6525 180.663 41.2565C180.223 40.8605 179.68 40.6625 179.035 40.6625C178.39 40.6625 177.84 40.8752 177.385 41.3005C176.93 41.7112 176.674 42.2978 176.615 43.0605Z" fill="white"/>
</svg>
