<svg width="216" height="60" viewBox="0 0 216 60" fill="none" xmlns="http://www.w3.org/2000/svg">
<path d="M17.5 43.5172C24.4036 43.5172 30 37.9208 30 31.0172C30 24.1137 24.4036 18.5172 17.5 18.5172C10.5964 18.5172 5 24.1137 5 31.0172C5 37.9208 10.5964 43.5172 17.5 43.5172Z" stroke="#FF4502" stroke-width="10" stroke-miterlimit="10"/>
<path d="M61.496 22.5172V6.23724H66.072L69.79 14.6192L73.618 6.23724H78.04V22.5172H74.696V11.4292L71.352 18.7112H68.206L64.84 11.3852V22.5172H61.496ZM85.6484 10.6372C86.3964 10.6372 87.0124 10.7619 87.4964 11.0112C87.9804 11.2459 88.3471 11.5026 88.5964 11.7812C88.8604 12.0599 89.0217 12.2506 89.0804 12.3532H89.2564V10.8572H92.6004V22.5172H89.2564V21.0212H89.0804C89.0217 21.1239 88.8604 21.3146 88.5964 21.5932C88.3471 21.8719 87.9804 22.1359 87.4964 22.3852C87.0124 22.6199 86.3964 22.7372 85.6484 22.7372C84.7831 22.7372 84.0277 22.5686 83.3824 22.2312C82.7517 21.8792 82.2237 21.4172 81.7984 20.8452C81.3731 20.2586 81.0504 19.6059 80.8304 18.8872C80.6251 18.1686 80.5224 17.4352 80.5224 16.6872C80.5224 15.9392 80.6251 15.2059 80.8304 14.4872C81.0504 13.7686 81.3731 13.1232 81.7984 12.5512C82.2237 11.9646 82.7517 11.5026 83.3824 11.1652C84.0277 10.8132 84.7831 10.6372 85.6484 10.6372ZM86.6164 13.3432C86.0151 13.3432 85.5091 13.5119 85.0984 13.8492C84.7024 14.1719 84.4017 14.5899 84.1964 15.1032C84.0057 15.6166 83.9104 16.1446 83.9104 16.6872C83.9104 17.2299 84.0057 17.7579 84.1964 18.2712C84.4017 18.7846 84.7024 19.2099 85.0984 19.5472C85.5091 19.8699 86.0151 20.0312 86.6164 20.0312C87.2177 20.0312 87.7164 19.8699 88.1124 19.5472C88.5231 19.2099 88.8237 18.7846 89.0144 18.2712C89.2197 17.7579 89.3224 17.2299 89.3224 16.6872C89.3224 16.1446 89.2197 15.6166 89.0144 15.1032C88.8237 14.5899 88.5231 14.1719 88.1124 13.8492C87.7164 13.5119 87.2177 13.3432 86.6164 13.3432ZM95.1569 22.5172V10.8572H98.4789V12.5512H98.5889C98.7209 12.2432 98.9042 11.9426 99.1389 11.6492C99.3735 11.3559 99.6962 11.1139 100.107 10.9232C100.518 10.7326 101.046 10.6372 101.691 10.6372C102.014 10.6372 102.27 10.6592 102.461 10.7032C102.652 10.7326 102.747 10.7472 102.747 10.7472V14.0472C102.747 14.0472 102.637 14.0252 102.417 13.9812C102.212 13.9372 101.94 13.9152 101.603 13.9152C100.562 13.9152 99.7842 14.2012 99.2709 14.7732C98.7575 15.3306 98.5009 16.2472 98.5009 17.5232V22.5172H95.1569ZM104.809 22.5172V5.79724H108.153V15.4332L112.003 10.8572H115.809L111.233 16.1812L116.007 22.5172H112.069L108.153 17.2812V22.5172H104.809ZM122.707 22.7372C121.68 22.7372 120.793 22.5686 120.045 22.2312C119.297 21.8792 118.681 21.4172 118.197 20.8452C117.713 20.2586 117.346 19.6059 117.097 18.8872C116.862 18.1686 116.745 17.4279 116.745 16.6652C116.745 15.9319 116.855 15.2132 117.075 14.5092C117.31 13.7906 117.662 13.1379 118.131 12.5512C118.615 11.9646 119.224 11.5026 119.957 11.1652C120.705 10.8132 121.585 10.6372 122.597 10.6372C123.668 10.6372 124.614 10.8719 125.435 11.3412C126.271 11.8106 126.924 12.5072 127.393 13.4312C127.862 14.3406 128.097 15.4479 128.097 16.7532V17.5672H120.111C120.155 18.2712 120.397 18.8799 120.837 19.3932C121.292 19.9066 121.915 20.1632 122.707 20.1632C123.162 20.1632 123.528 20.0972 123.807 19.9652C124.1 19.8186 124.328 19.6572 124.489 19.4812C124.65 19.2906 124.76 19.1219 124.819 18.9752C124.878 18.8286 124.907 18.7552 124.907 18.7552H127.987C127.987 18.7552 127.95 18.8946 127.877 19.1732C127.818 19.4372 127.686 19.7672 127.481 20.1632C127.276 20.5592 126.975 20.9552 126.579 21.3512C126.198 21.7472 125.692 22.0772 125.061 22.3412C124.43 22.6052 123.646 22.7372 122.707 22.7372ZM120.111 15.5432H124.885C124.841 14.7366 124.599 14.1352 124.159 13.7392C123.719 13.3432 123.176 13.1452 122.531 13.1452C121.886 13.1452 121.336 13.3579 120.881 13.7832C120.426 14.1939 120.17 14.7806 120.111 15.5432ZM135.718 22.7372C134.808 22.7372 134.082 22.6052 133.54 22.3412C132.997 22.0626 132.586 21.7179 132.308 21.3072C132.029 20.8819 131.846 20.4346 131.758 19.9652C131.67 19.4959 131.626 19.0632 131.626 18.6672V13.5192H129.646V10.8572H131.626V7.97524H134.97V10.8572H137.456V13.5192H134.97V18.5792C134.97 19.0632 135.094 19.4372 135.344 19.7012C135.608 19.9652 136.04 20.0972 136.642 20.0972C136.906 20.0972 137.148 20.0752 137.368 20.0312C137.588 19.9872 137.698 19.9652 137.698 19.9652V22.5392C137.698 22.5392 137.5 22.5686 137.104 22.6272C136.708 22.7006 136.246 22.7372 135.718 22.7372ZM141.91 9.27324C141.324 9.27324 140.847 9.08991 140.48 8.72324C140.114 8.34191 139.93 7.89457 139.93 7.38124C139.93 6.83858 140.114 6.38391 140.48 6.01724C140.847 5.63591 141.324 5.44524 141.91 5.44524C142.468 5.44524 142.937 5.63591 143.318 6.01724C143.7 6.38391 143.89 6.83858 143.89 7.38124C143.89 7.89457 143.7 8.34191 143.318 8.72324C142.937 9.08991 142.468 9.27324 141.91 9.27324ZM140.238 22.5172V10.8572H143.582V22.5172H140.238ZM146.44 22.5172V10.8572H149.784V12.5292H149.894C150.026 12.2946 150.217 12.0306 150.466 11.7372C150.73 11.4439 151.075 11.1872 151.5 10.9672C151.94 10.7472 152.497 10.6372 153.172 10.6372C154.081 10.6372 154.822 10.8499 155.394 11.2752C155.966 11.6859 156.384 12.2212 156.648 12.8812C156.912 13.5266 157.044 14.2086 157.044 14.9272V22.5172H153.7V15.4992C153.7 14.9419 153.546 14.4506 153.238 14.0252C152.945 13.5999 152.468 13.3872 151.808 13.3872C151.309 13.3872 150.913 13.5046 150.62 13.7392C150.327 13.9739 150.114 14.2746 149.982 14.6412C149.85 15.0079 149.784 15.3966 149.784 15.8072V22.5172H146.44ZM165.444 27.1812C164.358 27.1812 163.464 27.0492 162.76 26.7852C162.07 26.5212 161.52 26.1839 161.11 25.7732C160.699 25.3772 160.398 24.9812 160.208 24.5852C160.017 24.1892 159.892 23.8519 159.834 23.5732C159.79 23.3092 159.768 23.1772 159.768 23.1772H163.024C163.024 23.1772 163.046 23.2432 163.09 23.3752C163.148 23.5219 163.258 23.6832 163.42 23.8592C163.581 24.0499 163.816 24.2112 164.124 24.3432C164.446 24.4899 164.872 24.5632 165.4 24.5632C166.309 24.5632 166.976 24.3066 167.402 23.7932C167.842 23.2799 168.062 22.6052 168.062 21.7692V20.5372H167.908C167.761 20.7719 167.541 21.0286 167.248 21.3072C166.954 21.5859 166.58 21.8206 166.126 22.0112C165.671 22.2019 165.121 22.2972 164.476 22.2972C163.61 22.2972 162.855 22.1359 162.21 21.8132C161.564 21.4759 161.022 21.0286 160.582 20.4712C160.156 19.9139 159.834 19.2906 159.614 18.6012C159.408 17.9119 159.306 17.2006 159.306 16.4672C159.306 15.7486 159.408 15.0446 159.614 14.3552C159.834 13.6512 160.156 13.0206 160.582 12.4632C161.022 11.9059 161.564 11.4659 162.21 11.1432C162.855 10.8059 163.61 10.6372 164.476 10.6372C165.121 10.6372 165.671 10.7399 166.126 10.9452C166.58 11.1359 166.954 11.3706 167.248 11.6492C167.556 11.9132 167.776 12.1699 167.908 12.4192H168.062V10.8572H171.406V21.7692C171.406 22.7372 171.193 23.6319 170.768 24.4532C170.342 25.2746 169.69 25.9346 168.81 26.4332C167.93 26.9319 166.808 27.1812 165.444 27.1812ZM165.4 19.6572C166.016 19.6572 166.522 19.5032 166.918 19.1952C167.328 18.8872 167.636 18.4912 167.842 18.0072C168.047 17.5086 168.15 16.9952 168.15 16.4672C168.15 15.9246 168.047 15.4112 167.842 14.9272C167.636 14.4432 167.328 14.0472 166.918 13.7392C166.522 13.4312 166.016 13.2772 165.4 13.2772C164.798 13.2772 164.292 13.4312 163.882 13.7392C163.486 14.0472 163.185 14.4432 162.98 14.9272C162.774 15.4112 162.672 15.9246 162.672 16.4672C162.672 16.9952 162.774 17.5086 162.98 18.0072C163.185 18.4912 163.486 18.8872 163.882 19.1952C164.292 19.5032 164.798 19.6572 165.4 19.6572ZM184.62 22.7372C183.535 22.7372 182.552 22.5466 181.672 22.1652C180.792 21.7692 180.088 21.2119 179.56 20.4932C179.032 19.7599 178.768 18.8799 178.768 17.8532C178.768 16.8706 179.025 16.0272 179.538 15.3232C180.051 14.6046 180.792 13.9666 181.76 13.4092C181.423 13.0132 181.1 12.5439 180.792 12.0012C180.499 11.4586 180.352 10.7986 180.352 10.0212C180.352 9.14124 180.565 8.40791 180.99 7.82124C181.415 7.21991 181.958 6.77257 182.618 6.47924C183.293 6.17124 183.997 6.01724 184.73 6.01724C185.463 6.01724 186.153 6.16391 186.798 6.45724C187.443 6.73591 187.971 7.14658 188.382 7.68924C188.793 8.23191 188.998 8.90658 188.998 9.71324C188.998 10.6812 188.705 11.4952 188.118 12.1552C187.546 12.8152 186.827 13.3799 185.962 13.8492L188.888 17.0172C189.064 16.5332 189.203 15.9832 189.306 15.3672C189.409 14.7366 189.46 14.0326 189.46 13.2552H192.122C192.122 14.5019 192.005 15.6166 191.77 16.5992C191.55 17.5672 191.242 18.4179 190.846 19.1512L193.904 22.4732H189.812L188.866 21.4172C188.265 21.8719 187.597 22.2092 186.864 22.4292C186.145 22.6346 185.397 22.7372 184.62 22.7372ZM183.124 9.88924C183.124 10.2999 183.256 10.6959 183.52 11.0772C183.784 11.4439 184.07 11.7959 184.378 12.1332C184.891 11.8839 185.331 11.5759 185.698 11.2092C186.065 10.8279 186.248 10.3659 186.248 9.82324C186.248 9.32458 186.087 8.95058 185.764 8.70124C185.456 8.43724 185.111 8.30524 184.73 8.30524C184.319 8.30524 183.945 8.44458 183.608 8.72324C183.285 8.98724 183.124 9.37591 183.124 9.88924ZM181.804 17.6112C181.804 18.3299 182.075 18.9312 182.618 19.4152C183.161 19.8992 183.887 20.1412 184.796 20.1412C185.207 20.1412 185.61 20.0899 186.006 19.9872C186.402 19.8699 186.769 19.6866 187.106 19.4372L183.344 15.2132C182.86 15.5359 182.479 15.8952 182.2 16.2912C181.936 16.6726 181.804 17.1126 181.804 17.6112ZM67.568 50.7372C66.512 50.7372 65.61 50.6126 64.862 50.3632C64.1287 50.0992 63.5127 49.7692 63.014 49.3732C62.53 48.9626 62.1413 48.5372 61.848 48.0972C61.5547 47.6426 61.3347 47.2172 61.188 46.8212C61.056 46.4106 60.968 46.0806 60.924 45.8312C60.8947 45.5672 60.88 45.4352 60.88 45.4352H64.312C64.312 45.4352 64.3413 45.5599 64.4 45.8092C64.4733 46.0586 64.62 46.3519 64.84 46.6892C65.06 47.0119 65.3973 47.2979 65.852 47.5472C66.3067 47.7819 66.9227 47.8992 67.7 47.8992C68.6533 47.8992 69.3573 47.7012 69.812 47.3052C70.2667 46.8946 70.494 46.4106 70.494 45.8532C70.494 45.3546 70.318 44.9586 69.966 44.6652C69.6287 44.3719 69.1007 44.1519 68.382 44.0052L66.204 43.5872C65.324 43.4259 64.5027 43.1692 63.74 42.8172C62.992 42.4652 62.3833 41.9812 61.914 41.3652C61.4447 40.7346 61.21 39.9279 61.21 38.9452C61.21 37.9479 61.4593 37.0826 61.958 36.3492C62.4567 35.6012 63.1533 35.0292 64.048 34.6332C64.9573 34.2226 66.0207 34.0172 67.238 34.0172C68.382 34.0172 69.328 34.1859 70.076 34.5232C70.8387 34.8459 71.44 35.2492 71.88 35.7332C72.3347 36.2026 72.6647 36.6792 72.87 37.1632C73.09 37.6472 73.2293 38.0506 73.288 38.3732C73.3613 38.6959 73.398 38.8572 73.398 38.8572H70.054C70.054 38.8572 70.0247 38.7546 69.966 38.5492C69.922 38.3439 69.8047 38.1092 69.614 37.8452C69.4233 37.5812 69.13 37.3466 68.734 37.1412C68.3527 36.9359 67.8247 36.8332 67.15 36.8332C66.226 36.8332 65.5587 37.0386 65.148 37.4492C64.7373 37.8452 64.532 38.2779 64.532 38.7472C64.532 39.2312 64.7373 39.6052 65.148 39.8692C65.5587 40.1332 66.094 40.3312 66.754 40.4632L69.064 40.9252C69.944 41.0866 70.7507 41.3579 71.484 41.7392C72.2173 42.1206 72.7967 42.6339 73.222 43.2792C73.662 43.9099 73.882 44.6946 73.882 45.6332C73.882 46.6012 73.64 47.4739 73.156 48.2512C72.672 49.0139 71.9607 49.6226 71.022 50.0772C70.0833 50.5172 68.932 50.7372 67.568 50.7372ZM81.8903 50.7372C80.585 50.7372 79.4777 50.4586 78.5683 49.9012C77.659 49.3292 76.9623 48.5886 76.4783 47.6792C76.009 46.7552 75.7743 45.7579 75.7743 44.6872C75.7743 43.6166 76.009 42.6266 76.4783 41.7172C76.9623 40.7932 77.659 40.0526 78.5683 39.4952C79.4777 38.9232 80.585 38.6372 81.8903 38.6372C83.1957 38.6372 84.303 38.9232 85.2123 39.4952C86.1217 40.0526 86.811 40.7932 87.2803 41.7172C87.7643 42.6266 88.0063 43.6166 88.0063 44.6872C88.0063 45.7579 87.7643 46.7552 87.2803 47.6792C86.811 48.5886 86.1217 49.3292 85.2123 49.9012C84.303 50.4586 83.1957 50.7372 81.8903 50.7372ZM81.8903 48.0092C82.477 48.0092 82.9683 47.8552 83.3643 47.5472C83.775 47.2392 84.0903 46.8359 84.3103 46.3372C84.5303 45.8239 84.6403 45.2739 84.6403 44.6872C84.6403 44.0859 84.5303 43.5359 84.3103 43.0372C84.0903 42.5386 83.775 42.1352 83.3643 41.8272C82.9683 41.5192 82.477 41.3652 81.8903 41.3652C81.3037 41.3652 80.805 41.5192 80.3943 41.8272C79.9837 42.1352 79.6683 42.5386 79.4483 43.0372C79.243 43.5359 79.1403 44.0859 79.1403 44.6872C79.1403 45.2739 79.243 45.8239 79.4483 46.3372C79.6683 46.8359 79.9837 47.2392 80.3943 47.5472C80.805 47.8552 81.3037 48.0092 81.8903 48.0092ZM96.2194 50.7372C95.1927 50.7372 94.2981 50.5686 93.5354 50.2312C92.7727 49.8792 92.1421 49.4172 91.6434 48.8452C91.1447 48.2732 90.7707 47.6279 90.5214 46.9092C90.2721 46.1759 90.1474 45.4352 90.1474 44.6872C90.1474 43.9392 90.2721 43.2059 90.5214 42.4872C90.7707 41.7686 91.1447 41.1232 91.6434 40.5512C92.1421 39.9646 92.7727 39.5026 93.5354 39.1652C94.2981 38.8132 95.1927 38.6372 96.2194 38.6372C97.2607 38.6372 98.1187 38.7912 98.7934 39.0992C99.4681 39.3926 100.003 39.7666 100.399 40.2212C100.81 40.6612 101.111 41.1086 101.301 41.5632C101.492 42.0032 101.609 42.3772 101.653 42.6852C101.712 42.9786 101.741 43.1252 101.741 43.1252H98.6174C98.6174 43.1252 98.5881 43.0372 98.5294 42.8612C98.4854 42.6706 98.3827 42.4579 98.2214 42.2232C98.0747 41.9739 97.8474 41.7612 97.5394 41.5852C97.2314 41.3946 96.8207 41.2992 96.3074 41.2992C95.6767 41.2992 95.1487 41.4606 94.7234 41.7832C94.3127 42.0912 94.0047 42.5019 93.7994 43.0152C93.5941 43.5286 93.4914 44.0859 93.4914 44.6872C93.4914 45.2886 93.5941 45.8459 93.7994 46.3592C94.0047 46.8726 94.3127 47.2906 94.7234 47.6132C95.1487 47.9212 95.6767 48.0752 96.3074 48.0752C96.8207 48.0752 97.2314 47.9872 97.5394 47.8112C97.8474 47.6206 98.0747 47.4079 98.2214 47.1732C98.3827 46.9239 98.4854 46.7112 98.5294 46.5352C98.5881 46.3446 98.6174 46.2492 98.6174 46.2492H101.741C101.741 46.2492 101.712 46.4032 101.653 46.7112C101.609 47.0046 101.492 47.3786 101.301 47.8332C101.111 48.2732 100.81 48.7206 100.399 49.1752C100.003 49.6152 99.4681 49.9892 98.7934 50.2972C98.1187 50.5906 97.2607 50.7372 96.2194 50.7372ZM106.117 37.2732C105.531 37.2732 105.054 37.0899 104.687 36.7232C104.321 36.3419 104.137 35.8946 104.137 35.3812C104.137 34.8386 104.321 34.3839 104.687 34.0172C105.054 33.6359 105.531 33.4452 106.117 33.4452C106.675 33.4452 107.144 33.6359 107.525 34.0172C107.907 34.3839 108.097 34.8386 108.097 35.3812C108.097 35.8946 107.907 36.3419 107.525 36.7232C107.144 37.0899 106.675 37.2732 106.117 37.2732ZM104.445 50.5172V38.8572H107.789V50.5172H104.445ZM115.619 38.6372C116.367 38.6372 116.983 38.7619 117.467 39.0112C117.951 39.2459 118.318 39.5026 118.567 39.7812C118.831 40.0599 118.992 40.2506 119.051 40.3532H119.227V38.8572H122.571V50.5172H119.227V49.0212H119.051C118.992 49.1239 118.831 49.3146 118.567 49.5932C118.318 49.8719 117.951 50.1359 117.467 50.3852C116.983 50.6199 116.367 50.7372 115.619 50.7372C114.754 50.7372 113.998 50.5686 113.353 50.2312C112.722 49.8792 112.194 49.4172 111.769 48.8452C111.344 48.2586 111.021 47.6059 110.801 46.8872C110.596 46.1686 110.493 45.4352 110.493 44.6872C110.493 43.9392 110.596 43.2059 110.801 42.4872C111.021 41.7686 111.344 41.1232 111.769 40.5512C112.194 39.9646 112.722 39.5026 113.353 39.1652C113.998 38.8132 114.754 38.6372 115.619 38.6372ZM116.587 41.3432C115.986 41.3432 115.48 41.5119 115.069 41.8492C114.673 42.1719 114.372 42.5899 114.167 43.1032C113.976 43.6166 113.881 44.1446 113.881 44.6872C113.881 45.2299 113.976 45.7579 114.167 46.2712C114.372 46.7846 114.673 47.2099 115.069 47.5472C115.48 47.8699 115.986 48.0312 116.587 48.0312C117.188 48.0312 117.687 47.8699 118.083 47.5472C118.494 47.2099 118.794 46.7846 118.985 46.2712C119.19 45.7579 119.293 45.2299 119.293 44.6872C119.293 44.1446 119.19 43.6166 118.985 43.1032C118.794 42.5899 118.494 42.1719 118.083 41.8492C117.687 41.5119 117.188 41.3432 116.587 41.3432ZM125.412 50.5172V33.7972H128.756V50.5172H125.412ZM136.82 50.5172V34.2372H141.396L145.114 42.6192L148.942 34.2372H153.364V50.5172H150.02V39.4292L146.676 46.7112H143.53L140.164 39.3852V50.5172H136.82ZM161.809 50.7372C160.782 50.7372 159.895 50.5686 159.147 50.2312C158.399 49.8792 157.783 49.4172 157.299 48.8452C156.815 48.2586 156.448 47.6059 156.199 46.8872C155.964 46.1686 155.847 45.4279 155.847 44.6652C155.847 43.9319 155.957 43.2132 156.177 42.5092C156.411 41.7906 156.763 41.1379 157.233 40.5512C157.717 39.9646 158.325 39.5026 159.059 39.1652C159.807 38.8132 160.687 38.6372 161.699 38.6372C162.769 38.6372 163.715 38.8719 164.537 39.3412C165.373 39.8106 166.025 40.5072 166.495 41.4312C166.964 42.3406 167.199 43.4479 167.199 44.7532V45.5672H159.213C159.257 46.2712 159.499 46.8799 159.939 47.3932C160.393 47.9066 161.017 48.1632 161.809 48.1632C162.263 48.1632 162.63 48.0972 162.909 47.9652C163.202 47.8186 163.429 47.6572 163.591 47.4812C163.752 47.2906 163.862 47.1219 163.921 46.9752C163.979 46.8286 164.009 46.7552 164.009 46.7552H167.089C167.089 46.7552 167.052 46.8946 166.979 47.1732C166.92 47.4372 166.788 47.7672 166.583 48.1632C166.377 48.5592 166.077 48.9552 165.681 49.3512C165.299 49.7472 164.793 50.0772 164.163 50.3412C163.532 50.6052 162.747 50.7372 161.809 50.7372ZM159.213 43.5432H163.987C163.943 42.7366 163.701 42.1352 163.261 41.7392C162.821 41.3432 162.278 41.1452 161.633 41.1452C160.987 41.1452 160.437 41.3579 159.983 41.7832C159.528 42.1939 159.271 42.7806 159.213 43.5432ZM174.465 50.7372C173.599 50.7372 172.844 50.5686 172.199 50.2312C171.568 49.8792 171.04 49.4172 170.615 48.8452C170.189 48.2586 169.867 47.6059 169.647 46.8872C169.441 46.1686 169.339 45.4352 169.339 44.6872C169.339 43.9392 169.441 43.2059 169.647 42.4872C169.867 41.7686 170.189 41.1232 170.615 40.5512C171.04 39.9646 171.568 39.5026 172.199 39.1652C172.844 38.8132 173.599 38.6372 174.465 38.6372C175.213 38.6372 175.829 38.7619 176.313 39.0112C176.797 39.2459 177.163 39.5026 177.413 39.7812C177.677 40.0599 177.838 40.2506 177.897 40.3532H178.073V33.7972H181.417V50.5172H178.073V49.0212H177.897C177.838 49.1239 177.677 49.3146 177.413 49.5932C177.163 49.8719 176.797 50.1359 176.313 50.3852C175.829 50.6199 175.213 50.7372 174.465 50.7372ZM175.433 48.0312C176.034 48.0312 176.533 47.8699 176.929 47.5472C177.339 47.2099 177.64 46.7846 177.831 46.2712C178.036 45.7579 178.139 45.2299 178.139 44.6872C178.139 44.1446 178.036 43.6166 177.831 43.1032C177.64 42.5899 177.339 42.1719 176.929 41.8492C176.533 41.5119 176.034 41.3432 175.433 41.3432C174.831 41.3432 174.325 41.5119 173.915 41.8492C173.519 42.1719 173.218 42.5899 173.013 43.1032C172.822 43.6166 172.727 44.1446 172.727 44.6872C172.727 45.2299 172.822 45.7579 173.013 46.2712C173.218 46.7846 173.519 47.2099 173.915 47.5472C174.325 47.8699 174.831 48.0312 175.433 48.0312ZM186.168 37.2732C185.581 37.2732 185.105 37.0899 184.738 36.7232C184.371 36.3419 184.188 35.8946 184.188 35.3812C184.188 34.8386 184.371 34.3839 184.738 34.0172C185.105 33.6359 185.581 33.4452 186.168 33.4452C186.725 33.4452 187.195 33.6359 187.576 34.0172C187.957 34.3839 188.148 34.8386 188.148 35.3812C188.148 35.8946 187.957 36.3419 187.576 36.7232C187.195 37.0899 186.725 37.2732 186.168 37.2732ZM184.496 50.5172V38.8572H187.84V50.5172H184.496ZM195.67 38.6372C196.418 38.6372 197.034 38.7619 197.518 39.0112C198.002 39.2459 198.369 39.5026 198.618 39.7812C198.882 40.0599 199.043 40.2506 199.102 40.3532H199.278V38.8572H202.622V50.5172H199.278V49.0212H199.102C199.043 49.1239 198.882 49.3146 198.618 49.5932C198.369 49.8719 198.002 50.1359 197.518 50.3852C197.034 50.6199 196.418 50.7372 195.67 50.7372C194.805 50.7372 194.049 50.5686 193.404 50.2312C192.773 49.8792 192.245 49.4172 191.82 48.8452C191.395 48.2586 191.072 47.6059 190.852 46.8872C190.647 46.1686 190.544 45.4352 190.544 44.6872C190.544 43.9392 190.647 43.2059 190.852 42.4872C191.072 41.7686 191.395 41.1232 191.82 40.5512C192.245 39.9646 192.773 39.5026 193.404 39.1652C194.049 38.8132 194.805 38.6372 195.67 38.6372ZM196.638 41.3432C196.037 41.3432 195.531 41.5119 195.12 41.8492C194.724 42.1719 194.423 42.5899 194.218 43.1032C194.027 43.6166 193.932 44.1446 193.932 44.6872C193.932 45.2299 194.027 45.7579 194.218 46.2712C194.423 46.7846 194.724 47.2099 195.12 47.5472C195.531 47.8699 196.037 48.0312 196.638 48.0312C197.239 48.0312 197.738 47.8699 198.134 47.5472C198.545 47.2099 198.845 46.7846 199.036 46.2712C199.241 45.7579 199.344 45.2299 199.344 44.6872C199.344 44.1446 199.241 43.6166 199.036 43.1032C198.845 42.5899 198.545 42.1719 198.134 41.8492C197.738 41.5119 197.239 41.3432 196.638 41.3432Z" fill="white"/>
</svg>
