<svg width="320" height="85" viewBox="0 0 320 85" fill="none" xmlns="http://www.w3.org/2000/svg">
<path d="M42.7405 72.7543C59.4947 72.7543 73.0767 59.1723 73.0767 42.4181C73.0767 25.6639 59.4947 12.0819 42.7405 12.0819C25.9863 12.0819 12.4043 25.6639 12.4043 42.4181C12.4043 59.1723 25.9863 72.7543 42.7405 72.7543Z" stroke="#00B96F" stroke-width="23" stroke-miterlimit="10"/>
<path d="M122.479 37.1381C121.13 37.1381 119.949 36.9034 118.937 36.4341C117.94 35.9501 117.104 35.3121 116.429 34.5201C115.755 33.7134 115.249 32.8114 114.911 31.8141C114.574 30.8168 114.405 29.7974 114.405 28.7561C114.405 27.7294 114.574 26.7174 114.911 25.7201C115.249 24.7228 115.755 23.8281 116.429 23.0361C117.104 22.2294 117.94 21.5914 118.937 21.1221C119.949 20.6528 121.13 20.4181 122.479 20.4181C123.609 20.4181 124.569 20.5648 125.361 20.8581C126.168 21.1368 126.835 21.5034 127.363 21.9581C127.906 22.3981 128.339 22.8748 128.661 23.3881C128.999 23.8868 129.248 24.3634 129.409 24.8181C129.571 25.2581 129.673 25.6248 129.717 25.9181C129.776 26.1968 129.805 26.3361 129.805 26.3361H126.439C126.439 26.3361 126.41 26.2408 126.351 26.0501C126.307 25.8448 126.212 25.6028 126.065 25.3241C125.919 25.0308 125.699 24.7448 125.405 24.4661C125.127 24.1874 124.745 23.9528 124.261 23.7621C123.792 23.5568 123.205 23.4541 122.501 23.4541C121.489 23.4541 120.639 23.7181 119.949 24.2461C119.275 24.7594 118.761 25.4194 118.409 26.2261C118.072 27.0328 117.903 27.8761 117.903 28.7561C117.903 29.6361 118.072 30.4868 118.409 31.3081C118.761 32.1148 119.275 32.7821 119.949 33.3101C120.639 33.8234 121.489 34.0801 122.501 34.0801C123.205 34.0801 123.792 33.9848 124.261 33.7941C124.745 33.6034 125.127 33.3688 125.405 33.0901C125.699 32.7968 125.919 32.5108 126.065 32.2321C126.212 31.9388 126.307 31.6968 126.351 31.5061C126.41 31.3154 126.439 31.2201 126.439 31.2201H129.805C129.805 31.2201 129.776 31.3668 129.717 31.6601C129.673 31.9388 129.571 32.3054 129.409 32.7601C129.248 33.2001 128.999 33.6768 128.661 34.1901C128.339 34.6888 127.906 35.1654 127.363 35.6201C126.835 36.0601 126.168 36.4268 125.361 36.7201C124.569 36.9988 123.609 37.1381 122.479 37.1381ZM131.967 36.9181V25.2581H135.289V26.9521H135.399C135.531 26.6441 135.715 26.3434 135.949 26.0501C136.184 25.7568 136.507 25.5148 136.917 25.3241C137.328 25.1334 137.856 25.0381 138.501 25.0381C138.824 25.0381 139.081 25.0601 139.271 25.1041C139.462 25.1334 139.557 25.1481 139.557 25.1481V28.4481C139.557 28.4481 139.447 28.4261 139.227 28.3821C139.022 28.3381 138.751 28.3161 138.413 28.3161C137.372 28.3161 136.595 28.6021 136.081 29.1741C135.568 29.7314 135.311 30.6481 135.311 31.9241V36.9181H131.967ZM146.713 37.1381C145.686 37.1381 144.799 36.9694 144.051 36.6321C143.303 36.2801 142.687 35.8181 142.203 35.2461C141.719 34.6594 141.352 34.0068 141.103 33.2881C140.868 32.5694 140.751 31.8288 140.751 31.0661C140.751 30.3328 140.861 29.6141 141.081 28.9101C141.316 28.1914 141.668 27.5388 142.137 26.9521C142.621 26.3654 143.23 25.9034 143.963 25.5661C144.711 25.2141 145.591 25.0381 146.603 25.0381C147.674 25.0381 148.62 25.2728 149.441 25.7421C150.277 26.2114 150.93 26.9081 151.399 27.8321C151.868 28.7414 152.103 29.8488 152.103 31.1541V31.9681H144.117C144.161 32.6721 144.403 33.2808 144.843 33.7941C145.298 34.3074 145.921 34.5641 146.713 34.5641C147.168 34.5641 147.534 34.4981 147.813 34.3661C148.106 34.2194 148.334 34.0581 148.495 33.8821C148.656 33.6914 148.766 33.5228 148.825 33.3761C148.884 33.2294 148.913 33.1561 148.913 33.1561H151.993C151.993 33.1561 151.956 33.2954 151.883 33.5741C151.824 33.8381 151.692 34.1681 151.487 34.5641C151.282 34.9601 150.981 35.3561 150.585 35.7521C150.204 36.1481 149.698 36.4781 149.067 36.7421C148.436 37.0061 147.652 37.1381 146.713 37.1381ZM144.117 29.9441H148.891C148.847 29.1374 148.605 28.5361 148.165 28.1401C147.725 27.7441 147.182 27.5461 146.537 27.5461C145.892 27.5461 145.342 27.7588 144.887 28.1841C144.432 28.5948 144.176 29.1814 144.117 29.9441ZM159.369 25.0381C160.117 25.0381 160.733 25.1628 161.217 25.4121C161.701 25.6468 162.068 25.9034 162.317 26.1821C162.581 26.4608 162.742 26.6514 162.801 26.7541H162.977V25.2581H166.321V36.9181H162.977V35.4221H162.801C162.742 35.5248 162.581 35.7154 162.317 35.9941C162.068 36.2728 161.701 36.5368 161.217 36.7861C160.733 37.0208 160.117 37.1381 159.369 37.1381C158.504 37.1381 157.748 36.9694 157.103 36.6321C156.472 36.2801 155.944 35.8181 155.519 35.2461C155.094 34.6594 154.771 34.0068 154.551 33.2881C154.346 32.5694 154.243 31.8361 154.243 31.0881C154.243 30.3401 154.346 29.6068 154.551 28.8881C154.771 28.1694 155.094 27.5241 155.519 26.9521C155.944 26.3654 156.472 25.9034 157.103 25.5661C157.748 25.2141 158.504 25.0381 159.369 25.0381ZM160.337 27.7441C159.736 27.7441 159.23 27.9128 158.819 28.2501C158.423 28.5728 158.122 28.9908 157.917 29.5041C157.726 30.0174 157.631 30.5454 157.631 31.0881C157.631 31.6308 157.726 32.1588 157.917 32.6721C158.122 33.1854 158.423 33.6108 158.819 33.9481C159.23 34.2708 159.736 34.4321 160.337 34.4321C160.938 34.4321 161.437 34.2708 161.833 33.9481C162.244 33.6108 162.544 33.1854 162.735 32.6721C162.94 32.1588 163.043 31.6308 163.043 31.0881C163.043 30.5454 162.94 30.0174 162.735 29.5041C162.544 28.9908 162.244 28.5728 161.833 28.2501C161.437 27.9128 160.938 27.7441 160.337 27.7441ZM174.14 37.1381C173.23 37.1381 172.504 37.0061 171.962 36.7421C171.419 36.4634 171.008 36.1188 170.73 35.7081C170.451 35.2828 170.268 34.8354 170.18 34.3661C170.092 33.8968 170.048 33.4641 170.048 33.0681V27.9201H168.068V25.2581H170.048V22.3761H173.392V25.2581H175.878V27.9201H173.392V32.9801C173.392 33.4641 173.516 33.8381 173.766 34.1021C174.03 34.3661 174.462 34.4981 175.064 34.4981C175.328 34.4981 175.57 34.4761 175.79 34.4321C176.01 34.3881 176.12 34.3661 176.12 34.3661V36.9401C176.12 36.9401 175.922 36.9694 175.526 37.0281C175.13 37.1014 174.668 37.1381 174.14 37.1381ZM180.332 23.6741C179.746 23.6741 179.269 23.4908 178.902 23.1241C178.536 22.7428 178.352 22.2954 178.352 21.7821C178.352 21.2394 178.536 20.7848 178.902 20.4181C179.269 20.0368 179.746 19.8461 180.332 19.8461C180.89 19.8461 181.359 20.0368 181.74 20.4181C182.122 20.7848 182.312 21.2394 182.312 21.7821C182.312 22.2954 182.122 22.7428 181.74 23.1241C181.359 23.4908 180.89 23.6741 180.332 23.6741ZM178.66 36.9181V25.2581H182.004V36.9181H178.66ZM188.36 36.9181L184.092 25.2581H187.436L190.164 33.1561L192.782 25.2581H196.148L191.858 36.9181H188.36ZM203.152 37.1381C202.126 37.1381 201.238 36.9694 200.49 36.6321C199.742 36.2801 199.126 35.8181 198.642 35.2461C198.158 34.6594 197.792 34.0068 197.542 33.2881C197.308 32.5694 197.19 31.8288 197.19 31.0661C197.19 30.3328 197.3 29.6141 197.52 28.9101C197.755 28.1914 198.107 27.5388 198.576 26.9521C199.06 26.3654 199.669 25.9034 200.402 25.5661C201.15 25.2141 202.03 25.0381 203.042 25.0381C204.113 25.0381 205.059 25.2728 205.88 25.7421C206.716 26.2114 207.369 26.9081 207.838 27.8321C208.308 28.7414 208.542 29.8488 208.542 31.1541V31.9681H200.556C200.6 32.6721 200.842 33.2808 201.282 33.7941C201.737 34.3074 202.36 34.5641 203.152 34.5641C203.607 34.5641 203.974 34.4981 204.252 34.3661C204.546 34.2194 204.773 34.0581 204.934 33.8821C205.096 33.6914 205.206 33.5228 205.264 33.3761C205.323 33.2294 205.352 33.1561 205.352 33.1561H208.432C208.432 33.1561 208.396 33.2954 208.322 33.5741C208.264 33.8381 208.132 34.1681 207.926 34.5641C207.721 34.9601 207.42 35.3561 207.024 35.7521C206.643 36.1481 206.137 36.4781 205.506 36.7421C204.876 37.0061 204.091 37.1381 203.152 37.1381ZM200.556 29.9441H205.33C205.286 29.1374 205.044 28.5361 204.604 28.1401C204.164 27.7441 203.622 27.5461 202.976 27.5461C202.331 27.5461 201.781 27.7588 201.326 28.1841C200.872 28.5948 200.615 29.1814 200.556 29.9441ZM221.602 37.1381C220.517 37.1381 219.534 36.9474 218.654 36.5661C217.774 36.1701 217.07 35.6128 216.542 34.8941C216.014 34.1608 215.75 33.2808 215.75 32.2541C215.75 31.2714 216.007 30.4281 216.52 29.7241C217.034 29.0054 217.774 28.3674 218.742 27.8101C218.405 27.4141 218.082 26.9448 217.774 26.4021C217.481 25.8594 217.334 25.1994 217.334 24.4221C217.334 23.5421 217.547 22.8088 217.972 22.2221C218.398 21.6208 218.94 21.1734 219.6 20.8801C220.275 20.5721 220.979 20.4181 221.712 20.4181C222.446 20.4181 223.135 20.5648 223.78 20.8581C224.426 21.1368 224.954 21.5474 225.364 22.0901C225.775 22.6328 225.98 23.3074 225.98 24.1141C225.98 25.0821 225.687 25.8961 225.1 26.5561C224.528 27.2161 223.81 27.7808 222.944 28.2501L225.87 31.4181C226.046 30.9341 226.186 30.3841 226.288 29.7681C226.391 29.1374 226.442 28.4334 226.442 27.6561H229.104C229.104 28.9028 228.987 30.0174 228.752 31.0001C228.532 31.9681 228.224 32.8188 227.828 33.5521L230.886 36.8741H226.794L225.848 35.8181C225.247 36.2728 224.58 36.6101 223.846 36.8301C223.128 37.0354 222.38 37.1381 221.602 37.1381ZM220.106 24.2901C220.106 24.7008 220.238 25.0968 220.502 25.4781C220.766 25.8448 221.052 26.1968 221.36 26.5341C221.874 26.2848 222.314 25.9768 222.68 25.6101C223.047 25.2288 223.23 24.7668 223.23 24.2241C223.23 23.7254 223.069 23.3514 222.746 23.1021C222.438 22.8381 222.094 22.7061 221.712 22.7061C221.302 22.7061 220.928 22.8454 220.59 23.1241C220.268 23.3881 220.106 23.7768 220.106 24.2901ZM218.786 32.0121C218.786 32.7308 219.058 33.3321 219.6 33.8161C220.143 34.3001 220.869 34.5421 221.778 34.5421C222.189 34.5421 222.592 34.4908 222.988 34.3881C223.384 34.2708 223.751 34.0874 224.088 33.8381L220.326 29.6141C219.842 29.9368 219.461 30.2961 219.182 30.6921C218.918 31.0734 218.786 31.5134 218.786 32.0121ZM238.084 36.9181V20.6381H245.608C246.664 20.6381 247.551 20.8214 248.27 21.1881C249.003 21.5548 249.561 22.0461 249.942 22.6621C250.323 23.2634 250.514 23.9308 250.514 24.6641C250.514 25.3828 250.382 25.9841 250.118 26.4681C249.854 26.9374 249.531 27.3188 249.15 27.6121C248.783 27.8908 248.424 28.0814 248.072 28.1841V28.3601C248.468 28.4481 248.908 28.6388 249.392 28.9321C249.876 29.2254 250.294 29.6434 250.646 30.1861C250.998 30.7288 251.174 31.4328 251.174 32.2981C251.174 33.0608 250.991 33.7941 250.624 34.4981C250.272 35.2021 249.693 35.7814 248.886 36.2361C248.094 36.6908 247.06 36.9181 245.784 36.9181H238.084ZM245.036 23.4761H241.472V27.2601H245.036C245.799 27.2601 246.356 27.0768 246.708 26.7101C247.06 26.3434 247.236 25.8961 247.236 25.3681C247.236 24.8548 247.06 24.4148 246.708 24.0481C246.356 23.6668 245.799 23.4761 245.036 23.4761ZM245.3 29.8561H241.472V34.0801H245.3C246.165 34.0801 246.789 33.8748 247.17 33.4641C247.566 33.0388 247.764 32.5328 247.764 31.9461C247.764 31.3741 247.566 30.8828 247.17 30.4721C246.789 30.0614 246.165 29.8561 245.3 29.8561ZM253.462 36.9181V25.2581H256.784V26.9521H256.894C257.026 26.6441 257.209 26.3434 257.444 26.0501C257.678 25.7568 258.001 25.5148 258.412 25.3241C258.822 25.1334 259.35 25.0381 259.996 25.0381C260.318 25.0381 260.575 25.0601 260.766 25.1041C260.956 25.1334 261.052 25.1481 261.052 25.1481V28.4481C261.052 28.4481 260.942 28.4261 260.722 28.3821C260.516 28.3381 260.245 28.3161 259.908 28.3161C258.866 28.3161 258.089 28.6021 257.576 29.1741C257.062 29.7314 256.806 30.6481 256.806 31.9241V36.9181H253.462ZM267.371 25.0381C268.119 25.0381 268.735 25.1628 269.219 25.4121C269.703 25.6468 270.07 25.9034 270.319 26.1821C270.583 26.4608 270.744 26.6514 270.803 26.7541H270.979V25.2581H274.323V36.9181H270.979V35.4221H270.803C270.744 35.5248 270.583 35.7154 270.319 35.9941C270.07 36.2728 269.703 36.5368 269.219 36.7861C268.735 37.0208 268.119 37.1381 267.371 37.1381C266.506 37.1381 265.75 36.9694 265.105 36.6321C264.474 36.2801 263.946 35.8181 263.521 35.2461C263.096 34.6594 262.773 34.0068 262.553 33.2881C262.348 32.5694 262.245 31.8361 262.245 31.0881C262.245 30.3401 262.348 29.6068 262.553 28.8881C262.773 28.1694 263.096 27.5241 263.521 26.9521C263.946 26.3654 264.474 25.9034 265.105 25.5661C265.75 25.2141 266.506 25.0381 267.371 25.0381ZM268.339 27.7441C267.738 27.7441 267.232 27.9128 266.821 28.2501C266.425 28.5728 266.124 28.9908 265.919 29.5041C265.728 30.0174 265.633 30.5454 265.633 31.0881C265.633 31.6308 265.728 32.1588 265.919 32.6721C266.124 33.1854 266.425 33.6108 266.821 33.9481C267.232 34.2708 267.738 34.4321 268.339 34.4321C268.94 34.4321 269.439 34.2708 269.835 33.9481C270.246 33.6108 270.546 33.1854 270.737 32.6721C270.942 32.1588 271.045 31.6308 271.045 31.0881C271.045 30.5454 270.942 30.0174 270.737 29.5041C270.546 28.9908 270.246 28.5728 269.835 28.2501C269.439 27.9128 268.94 27.7441 268.339 27.7441ZM276.944 36.9181V25.2581H280.288V26.9301H280.398C280.53 26.6954 280.721 26.4314 280.97 26.1381C281.234 25.8448 281.579 25.5881 282.004 25.3681C282.444 25.1481 283.001 25.0381 283.676 25.0381C284.585 25.0381 285.326 25.2508 285.898 25.6761C286.47 26.0868 286.888 26.6221 287.152 27.2821C287.416 27.9274 287.548 28.6094 287.548 29.3281V36.9181H284.204V29.9001C284.204 29.3428 284.05 28.8514 283.742 28.4261C283.449 28.0008 282.972 27.7881 282.312 27.7881C281.813 27.7881 281.417 27.9054 281.124 28.1401C280.831 28.3748 280.618 28.6754 280.486 29.0421C280.354 29.4088 280.288 29.7974 280.288 30.2081V36.9181H276.944ZM294.936 37.1381C294.07 37.1381 293.315 36.9694 292.67 36.6321C292.039 36.2801 291.511 35.8181 291.086 35.2461C290.66 34.6594 290.338 34.0068 290.118 33.2881C289.912 32.5694 289.81 31.8361 289.81 31.0881C289.81 30.3401 289.912 29.6068 290.118 28.8881C290.338 28.1694 290.66 27.5241 291.086 26.9521C291.511 26.3654 292.039 25.9034 292.67 25.5661C293.315 25.2141 294.07 25.0381 294.936 25.0381C295.684 25.0381 296.3 25.1628 296.784 25.4121C297.268 25.6468 297.634 25.9034 297.884 26.1821C298.148 26.4608 298.309 26.6514 298.368 26.7541H298.544V20.1981H301.888V36.9181H298.544V35.4221H298.368C298.309 35.5248 298.148 35.7154 297.884 35.9941C297.634 36.2728 297.268 36.5368 296.784 36.7861C296.3 37.0208 295.684 37.1381 294.936 37.1381ZM295.904 34.4321C296.505 34.4321 297.004 34.2708 297.4 33.9481C297.81 33.6108 298.111 33.1854 298.302 32.6721C298.507 32.1588 298.61 31.6308 298.61 31.0881C298.61 30.5454 298.507 30.0174 298.302 29.5041C298.111 28.9908 297.81 28.5728 297.4 28.2501C297.004 27.9128 296.505 27.7441 295.904 27.7441C295.302 27.7441 294.796 27.9128 294.386 28.2501C293.99 28.5728 293.689 28.9908 293.484 29.5041C293.293 30.0174 293.198 30.5454 293.198 31.0881C293.198 31.6308 293.293 32.1588 293.484 32.6721C293.689 33.1854 293.99 33.6108 294.386 33.9481C294.796 34.2708 295.302 34.4321 295.904 34.4321ZM115.021 64.9181V48.6381H126.241V51.5861H118.409V55.2381H125.229V58.0761H118.409V61.9701H126.351V64.9181H115.021ZM128.521 64.9181L132.063 59.1101L128.521 53.2581H131.997L134.307 57.1081L136.661 53.2581H140.137L136.463 59.1101L140.115 64.9181H136.661L134.307 61.0681L132.019 64.9181H128.521ZM142.521 69.2081V53.2581H145.865V54.7541H146.019C146.093 54.6514 146.254 54.4608 146.503 54.1821C146.767 53.9034 147.141 53.6468 147.625 53.4121C148.109 53.1628 148.725 53.0381 149.473 53.0381C150.339 53.0381 151.087 53.2141 151.717 53.5661C152.363 53.9034 152.898 54.3654 153.323 54.9521C153.749 55.5241 154.064 56.1694 154.269 56.8881C154.489 57.6068 154.599 58.3401 154.599 59.0881C154.599 59.8361 154.489 60.5694 154.269 61.2881C154.064 62.0068 153.749 62.6594 153.323 63.2461C152.898 63.8181 152.363 64.2801 151.717 64.6321C151.087 64.9694 150.339 65.1381 149.473 65.1381C148.725 65.1381 148.109 65.0208 147.625 64.7861C147.141 64.5368 146.767 64.2728 146.503 63.9941C146.254 63.7154 146.093 63.5248 146.019 63.4221H145.865V69.2081H142.521ZM145.799 59.0881C145.799 59.6308 145.895 60.1588 146.085 60.6721C146.291 61.1854 146.591 61.6108 146.987 61.9481C147.398 62.2708 147.904 62.4321 148.505 62.4321C149.107 62.4321 149.605 62.2708 150.001 61.9481C150.412 61.6108 150.713 61.1854 150.903 60.6721C151.109 60.1588 151.211 59.6308 151.211 59.0881C151.211 58.5454 151.109 58.0174 150.903 57.5041C150.713 56.9908 150.412 56.5728 150.001 56.2501C149.605 55.9128 149.107 55.7441 148.505 55.7441C147.904 55.7441 147.398 55.9128 146.987 56.2501C146.591 56.5728 146.291 56.9908 146.085 57.5041C145.895 58.0174 145.799 58.5454 145.799 59.0881ZM162.697 65.1381C161.671 65.1381 160.783 64.9694 160.035 64.6321C159.287 64.2801 158.671 63.8181 158.187 63.2461C157.703 62.6594 157.337 62.0068 157.087 61.2881C156.853 60.5694 156.735 59.8288 156.735 59.0661C156.735 58.3328 156.845 57.6141 157.065 56.9101C157.3 56.1914 157.652 55.5388 158.121 54.9521C158.605 54.3654 159.214 53.9034 159.947 53.5661C160.695 53.2141 161.575 53.0381 162.587 53.0381C163.658 53.0381 164.604 53.2728 165.425 53.7421C166.261 54.2114 166.914 54.9081 167.383 55.8321C167.853 56.7414 168.087 57.8488 168.087 59.1541V59.9681H160.101C160.145 60.6721 160.387 61.2808 160.827 61.7941C161.282 62.3074 161.905 62.5641 162.697 62.5641C163.152 62.5641 163.519 62.4981 163.797 62.3661C164.091 62.2194 164.318 62.0581 164.479 61.8821C164.641 61.6914 164.751 61.5228 164.809 61.3761C164.868 61.2294 164.897 61.1561 164.897 61.1561H167.977C167.977 61.1561 167.941 61.2954 167.867 61.5741C167.809 61.8381 167.677 62.1681 167.471 62.5641C167.266 62.9601 166.965 63.3561 166.569 63.7521C166.188 64.1481 165.682 64.4781 165.051 64.7421C164.421 65.0061 163.636 65.1381 162.697 65.1381ZM160.101 57.9441H164.875C164.831 57.1374 164.589 56.5361 164.149 56.1401C163.709 55.7441 163.167 55.5461 162.521 55.5461C161.876 55.5461 161.326 55.7588 160.871 56.1841C160.417 56.5948 160.16 57.1814 160.101 57.9441ZM170.489 64.9181V53.2581H173.811V54.9521H173.921C174.053 54.6441 174.236 54.3434 174.471 54.0501C174.706 53.7568 175.028 53.5148 175.439 53.3241C175.85 53.1334 176.378 53.0381 177.023 53.0381C177.346 53.0381 177.602 53.0601 177.793 53.1041C177.984 53.1334 178.079 53.1481 178.079 53.1481V56.4481C178.079 56.4481 177.969 56.4261 177.749 56.3821C177.544 56.3381 177.272 56.3161 176.935 56.3161C175.894 56.3161 175.116 56.6021 174.603 57.1741C174.09 57.7314 173.833 58.6481 173.833 59.9241V64.9181H170.489ZM182.201 51.6741C181.615 51.6741 181.138 51.4908 180.771 51.1241C180.405 50.7428 180.221 50.2954 180.221 49.7821C180.221 49.2394 180.405 48.7848 180.771 48.4181C181.138 48.0368 181.615 47.8461 182.201 47.8461C182.759 47.8461 183.228 48.0368 183.609 48.4181C183.991 48.7848 184.181 49.2394 184.181 49.7821C184.181 50.2954 183.991 50.7428 183.609 51.1241C183.228 51.4908 182.759 51.6741 182.201 51.6741ZM180.529 64.9181V53.2581H183.873V64.9181H180.529ZM192.539 65.1381C191.512 65.1381 190.625 64.9694 189.877 64.6321C189.129 64.2801 188.513 63.8181 188.029 63.2461C187.545 62.6594 187.178 62.0068 186.929 61.2881C186.694 60.5694 186.577 59.8288 186.577 59.0661C186.577 58.3328 186.687 57.6141 186.907 56.9101C187.142 56.1914 187.494 55.5388 187.963 54.9521C188.447 54.3654 189.056 53.9034 189.789 53.5661C190.537 53.2141 191.417 53.0381 192.429 53.0381C193.5 53.0381 194.446 53.2728 195.267 53.7421C196.103 54.2114 196.756 54.9081 197.225 55.8321C197.694 56.7414 197.929 57.8488 197.929 59.1541V59.9681H189.943C189.987 60.6721 190.229 61.2808 190.669 61.7941C191.124 62.3074 191.747 62.5641 192.539 62.5641C192.994 62.5641 193.36 62.4981 193.639 62.3661C193.932 62.2194 194.16 62.0581 194.321 61.8821C194.482 61.6914 194.592 61.5228 194.651 61.3761C194.71 61.2294 194.739 61.1561 194.739 61.1561H197.819C197.819 61.1561 197.782 61.2954 197.709 61.5741C197.65 61.8381 197.518 62.1681 197.313 62.5641C197.108 62.9601 196.807 63.3561 196.411 63.7521C196.03 64.1481 195.524 64.4781 194.893 64.7421C194.262 65.0061 193.478 65.1381 192.539 65.1381ZM189.943 57.9441H194.717C194.673 57.1374 194.431 56.5361 193.991 56.1401C193.551 55.7441 193.008 55.5461 192.363 55.5461C191.718 55.5461 191.168 55.7588 190.713 56.1841C190.258 56.5948 190.002 57.1814 189.943 57.9441ZM200.202 64.9181V53.2581H203.546V54.9301H203.656C203.788 54.6954 203.978 54.4314 204.228 54.1381C204.492 53.8448 204.836 53.5881 205.262 53.3681C205.702 53.1481 206.259 53.0381 206.934 53.0381C207.843 53.0381 208.584 53.2508 209.156 53.6761C209.728 54.0868 210.146 54.6221 210.41 55.2821C210.674 55.9274 210.806 56.6094 210.806 57.3281V64.9181H207.462V57.9001C207.462 57.3428 207.308 56.8514 207 56.4261C206.706 56.0008 206.23 55.7881 205.57 55.7881C205.071 55.7881 204.675 55.9054 204.382 56.1401C204.088 56.3748 203.876 56.6754 203.744 57.0421C203.612 57.4088 203.546 57.7974 203.546 58.2081V64.9181H200.202ZM219.139 65.1381C218.113 65.1381 217.218 64.9694 216.455 64.6321C215.693 64.2801 215.062 63.8181 214.563 63.2461C214.065 62.6741 213.691 62.0288 213.441 61.3101C213.192 60.5768 213.067 59.8361 213.067 59.0881C213.067 58.3401 213.192 57.6068 213.441 56.8881C213.691 56.1694 214.065 55.5241 214.563 54.9521C215.062 54.3654 215.693 53.9034 216.455 53.5661C217.218 53.2141 218.113 53.0381 219.139 53.0381C220.181 53.0381 221.039 53.1921 221.713 53.5001C222.388 53.7934 222.923 54.1674 223.319 54.6221C223.73 55.0621 224.031 55.5094 224.221 55.9641C224.412 56.4041 224.529 56.7781 224.573 57.0861C224.632 57.3794 224.661 57.5261 224.661 57.5261H221.537C221.537 57.5261 221.508 57.4381 221.449 57.2621C221.405 57.0714 221.303 56.8588 221.141 56.6241C220.995 56.3748 220.767 56.1621 220.459 55.9861C220.151 55.7954 219.741 55.7001 219.227 55.7001C218.597 55.7001 218.069 55.8614 217.643 56.1841C217.233 56.4921 216.925 56.9028 216.719 57.4161C216.514 57.9294 216.411 58.4868 216.411 59.0881C216.411 59.6894 216.514 60.2468 216.719 60.7601C216.925 61.2734 217.233 61.6914 217.643 62.0141C218.069 62.3221 218.597 62.4761 219.227 62.4761C219.741 62.4761 220.151 62.3881 220.459 62.2121C220.767 62.0214 220.995 61.8088 221.141 61.5741C221.303 61.3248 221.405 61.1121 221.449 60.9361C221.508 60.7454 221.537 60.6501 221.537 60.6501H224.661C224.661 60.6501 224.632 60.8041 224.573 61.1121C224.529 61.4054 224.412 61.7794 224.221 62.2341C224.031 62.6741 223.73 63.1214 223.319 63.5761C222.923 64.0161 222.388 64.3901 221.713 64.6981C221.039 64.9914 220.181 65.1381 219.139 65.1381ZM232.736 65.1381C231.71 65.1381 230.822 64.9694 230.074 64.6321C229.326 64.2801 228.71 63.8181 228.226 63.2461C227.742 62.6594 227.376 62.0068 227.126 61.2881C226.892 60.5694 226.774 59.8288 226.774 59.0661C226.774 58.3328 226.884 57.6141 227.104 56.9101C227.339 56.1914 227.691 55.5388 228.16 54.9521C228.644 54.3654 229.253 53.9034 229.986 53.5661C230.734 53.2141 231.614 53.0381 232.626 53.0381C233.697 53.0381 234.643 53.2728 235.464 53.7421C236.3 54.2114 236.953 54.9081 237.422 55.8321C237.892 56.7414 238.126 57.8488 238.126 59.1541V59.9681H230.14C230.184 60.6721 230.426 61.2808 230.866 61.7941C231.321 62.3074 231.944 62.5641 232.736 62.5641C233.191 62.5641 233.558 62.4981 233.836 62.3661C234.13 62.2194 234.357 62.0581 234.518 61.8821C234.68 61.6914 234.79 61.5228 234.848 61.3761C234.907 61.2294 234.936 61.1561 234.936 61.1561H238.016C238.016 61.1561 237.98 61.2954 237.906 61.5741C237.848 61.8381 237.716 62.1681 237.51 62.5641C237.305 62.9601 237.004 63.3561 236.608 63.7521C236.227 64.1481 235.721 64.4781 235.09 64.7421C234.46 65.0061 233.675 65.1381 232.736 65.1381ZM230.14 57.9441H234.914C234.87 57.1374 234.628 56.5361 234.188 56.1401C233.748 55.7441 233.206 55.5461 232.56 55.5461C231.915 55.5461 231.365 55.7588 230.91 56.1841C230.456 56.5948 230.199 57.1814 230.14 57.9441Z" fill="white"/>
</svg>
