<svg width="190" height="60" viewBox="0 0 190 60" fill="none" xmlns="http://www.w3.org/2000/svg">
<path d="M17.5 43.4828C24.4036 43.4828 30 37.8863 30 30.9828C30 24.0792 24.4036 18.4828 17.5 18.4828C10.5964 18.4828 5 24.0792 5 30.9828C5 37.8863 10.5964 43.4828 17.5 43.4828Z" stroke="#8300F1" stroke-width="10" stroke-miterlimit="10"/>
<path d="M68.954 22.7028C67.6047 22.7028 66.424 22.4681 65.412 21.9988C64.4147 21.5148 63.5787 20.8768 62.904 20.0848C62.2293 19.2781 61.7233 18.3761 61.386 17.3788C61.0487 16.3814 60.88 15.3621 60.88 14.3208C60.88 13.2941 61.0487 12.2821 61.386 11.2848C61.7233 10.2874 62.2293 9.39276 62.904 8.60076C63.5787 7.79409 64.4147 7.15609 65.412 6.68676C66.424 6.21742 67.6047 5.98276 68.954 5.98276C70.0833 5.98276 71.044 6.12942 71.836 6.42276C72.6427 6.70142 73.31 7.06809 73.838 7.52276C74.3807 7.96276 74.8133 8.43942 75.136 8.95276C75.4733 9.45142 75.7227 9.92809 75.884 10.3828C76.0453 10.8228 76.148 11.1894 76.192 11.4828C76.2507 11.7614 76.28 11.9008 76.28 11.9008H72.914C72.914 11.9008 72.8847 11.8054 72.826 11.6148C72.782 11.4094 72.6867 11.1674 72.54 10.8888C72.3933 10.5954 72.1733 10.3094 71.88 10.0308C71.6013 9.75209 71.22 9.51742 70.736 9.32676C70.2667 9.12142 69.68 9.01876 68.976 9.01876C67.964 9.01876 67.1133 9.28276 66.424 9.81076C65.7493 10.3241 65.236 10.9841 64.884 11.7908C64.5467 12.5974 64.378 13.4408 64.378 14.3208C64.378 15.2008 64.5467 16.0514 64.884 16.8728C65.236 17.6794 65.7493 18.3468 66.424 18.8748C67.1133 19.3881 67.964 19.6448 68.976 19.6448C69.68 19.6448 70.2667 19.5494 70.736 19.3588C71.22 19.1681 71.6013 18.9334 71.88 18.6548C72.1733 18.3614 72.3933 18.0754 72.54 17.7968C72.6867 17.5034 72.782 17.2614 72.826 17.0708C72.8847 16.8801 72.914 16.7848 72.914 16.7848H76.28C76.28 16.7848 76.2507 16.9314 76.192 17.2248C76.148 17.5034 76.0453 17.8701 75.884 18.3248C75.7227 18.7648 75.4733 19.2414 75.136 19.7548C74.8133 20.2534 74.3807 20.7301 73.838 21.1848C73.31 21.6248 72.6427 21.9914 71.836 22.2848C71.044 22.5634 70.0833 22.7028 68.954 22.7028ZM84.404 22.7028C83.0987 22.7028 81.9913 22.4241 81.082 21.8668C80.1727 21.2948 79.476 20.5541 78.992 19.6448C78.5227 18.7208 78.288 17.7234 78.288 16.6528C78.288 15.5821 78.5227 14.5921 78.992 13.6828C79.476 12.7588 80.1727 12.0181 81.082 11.4608C81.9913 10.8888 83.0987 10.6028 84.404 10.6028C85.7093 10.6028 86.8167 10.8888 87.726 11.4608C88.6353 12.0181 89.3247 12.7588 89.794 13.6828C90.278 14.5921 90.52 15.5821 90.52 16.6528C90.52 17.7234 90.278 18.7208 89.794 19.6448C89.3247 20.5541 88.6353 21.2948 87.726 21.8668C86.8167 22.4241 85.7093 22.7028 84.404 22.7028ZM84.404 19.9748C84.9907 19.9748 85.482 19.8208 85.878 19.5128C86.2887 19.2048 86.604 18.8014 86.824 18.3028C87.044 17.7894 87.154 17.2394 87.154 16.6528C87.154 16.0514 87.044 15.5014 86.824 15.0028C86.604 14.5041 86.2887 14.1008 85.878 13.7928C85.482 13.4848 84.9907 13.3308 84.404 13.3308C83.8173 13.3308 83.3187 13.4848 82.908 13.7928C82.4973 14.1008 82.182 14.5041 81.962 15.0028C81.7567 15.5014 81.654 16.0514 81.654 16.6528C81.654 17.2394 81.7567 17.7894 81.962 18.3028C82.182 18.8014 82.4973 19.2048 82.908 19.5128C83.3187 19.8208 83.8173 19.9748 84.404 19.9748ZM92.7936 22.4828V10.8228H96.1376V12.4948H96.2476C96.3796 12.2601 96.5702 11.9961 96.8196 11.7028C97.0836 11.4094 97.4282 11.1528 97.8536 10.9328C98.2936 10.7128 98.8509 10.6028 99.5256 10.6028C100.435 10.6028 101.176 10.8154 101.748 11.2408C102.32 11.6514 102.738 12.1868 103.002 12.8468C103.266 13.4921 103.398 14.1741 103.398 14.8928V22.4828H100.054V15.4648C100.054 14.9074 99.8996 14.4161 99.5916 13.9908C99.2982 13.5654 98.8216 13.3528 98.1616 13.3528C97.6629 13.3528 97.2669 13.4701 96.9736 13.7048C96.6802 13.9394 96.4676 14.2401 96.3356 14.6068C96.2036 14.9734 96.1376 15.3621 96.1376 15.7728V22.4828H92.7936ZM110.848 22.7028C109.88 22.7028 109.081 22.5708 108.45 22.3068C107.819 22.0428 107.313 21.7201 106.932 21.3388C106.565 20.9428 106.287 20.5541 106.096 20.1728C105.92 19.7768 105.803 19.4468 105.744 19.1828C105.7 18.9188 105.678 18.7868 105.678 18.7868H108.78C108.78 18.7868 108.802 18.8601 108.846 19.0068C108.89 19.1534 108.985 19.3221 109.132 19.5128C109.293 19.7034 109.521 19.8721 109.814 20.0188C110.107 20.1654 110.503 20.2388 111.002 20.2388C111.618 20.2388 112.036 20.1141 112.256 19.8648C112.491 19.6154 112.608 19.3661 112.608 19.1168C112.608 18.5888 112.175 18.2368 111.31 18.0608L109.726 17.7528C109.051 17.6208 108.413 17.4301 107.812 17.1808C107.225 16.9168 106.749 16.5574 106.382 16.1028C106.03 15.6334 105.854 15.0321 105.854 14.2988C105.854 13.5948 106.037 12.9641 106.404 12.4068C106.771 11.8494 107.291 11.4094 107.966 11.0868C108.655 10.7641 109.477 10.6028 110.43 10.6028C111.325 10.6028 112.065 10.7274 112.652 10.9768C113.253 11.2114 113.73 11.5121 114.082 11.8788C114.434 12.2308 114.698 12.5901 114.874 12.9568C115.05 13.3088 115.16 13.6094 115.204 13.8588C115.263 14.0934 115.292 14.2108 115.292 14.2108H112.3C112.3 14.2108 112.256 14.1154 112.168 13.9248C112.08 13.7194 111.897 13.5214 111.618 13.3308C111.354 13.1254 110.943 13.0228 110.386 13.0228C109.814 13.0228 109.418 13.1401 109.198 13.3748C108.978 13.5948 108.868 13.8294 108.868 14.0788C108.868 14.3721 108.993 14.5921 109.242 14.7388C109.506 14.8854 109.843 15.0028 110.254 15.0908L111.772 15.3988C112.887 15.6188 113.803 16.0074 114.522 16.5648C115.241 17.1074 115.6 17.8994 115.6 18.9408C115.6 19.6448 115.417 20.2828 115.05 20.8548C114.683 21.4268 114.148 21.8814 113.444 22.2188C112.74 22.5414 111.875 22.7028 110.848 22.7028ZM121.388 22.7028C120.567 22.7028 119.885 22.5268 119.342 22.1748C118.814 21.8228 118.418 21.3534 118.154 20.7668C117.89 20.1654 117.758 19.4908 117.758 18.7428V10.8228H121.08V18.0828C121.08 18.6401 121.227 19.0948 121.52 19.4468C121.814 19.7841 122.246 19.9528 122.818 19.9528C123.302 19.9528 123.684 19.8354 123.962 19.6008C124.256 19.3661 124.468 19.0654 124.6 18.6988C124.732 18.3321 124.798 17.9434 124.798 17.5328V10.8228H128.142V22.4828H124.798V20.8328H124.666C124.417 21.2874 124.028 21.7128 123.5 22.1088C122.987 22.5048 122.283 22.7028 121.388 22.7028ZM130.912 22.4828V5.76276H134.256V22.4828H130.912ZM142.464 22.7028C141.555 22.7028 140.829 22.5708 140.286 22.3068C139.743 22.0281 139.333 21.6834 139.054 21.2728C138.775 20.8474 138.592 20.4001 138.504 19.9308C138.416 19.4614 138.372 19.0288 138.372 18.6328V13.4848H136.392V10.8228H138.372V7.94076H141.716V10.8228H144.202V13.4848H141.716V18.5448C141.716 19.0288 141.841 19.4028 142.09 19.6668C142.354 19.9308 142.787 20.0628 143.388 20.0628C143.652 20.0628 143.894 20.0408 144.114 19.9968C144.334 19.9528 144.444 19.9308 144.444 19.9308V22.5048C144.444 22.5048 144.246 22.5341 143.85 22.5928C143.454 22.6661 142.992 22.7028 142.464 22.7028ZM148.656 9.23876C148.07 9.23876 147.593 9.05542 147.226 8.68876C146.86 8.30742 146.676 7.86009 146.676 7.34676C146.676 6.80409 146.86 6.34942 147.226 5.98276C147.593 5.60142 148.07 5.41076 148.656 5.41076C149.214 5.41076 149.683 5.60142 150.064 5.98276C150.446 6.34942 150.636 6.80409 150.636 7.34676C150.636 7.86009 150.446 8.30742 150.064 8.68876C149.683 9.05542 149.214 9.23876 148.656 9.23876ZM146.984 22.4828V10.8228H150.328V22.4828H146.984ZM153.186 22.4828V10.8228H156.53V12.4948H156.64C156.772 12.2601 156.963 11.9961 157.212 11.7028C157.476 11.4094 157.821 11.1528 158.246 10.9328C158.686 10.7128 159.243 10.6028 159.918 10.6028C160.827 10.6028 161.568 10.8154 162.14 11.2408C162.712 11.6514 163.13 12.1868 163.394 12.8468C163.658 13.4921 163.79 14.1741 163.79 14.8928V22.4828H160.446V15.4648C160.446 14.9074 160.292 14.4161 159.984 13.9908C159.691 13.5654 159.214 13.3528 158.554 13.3528C158.055 13.3528 157.659 13.4701 157.366 13.7048C157.073 13.9394 156.86 14.2401 156.728 14.6068C156.596 14.9734 156.53 15.3621 156.53 15.7728V22.4828H153.186ZM172.19 27.1468C171.104 27.1468 170.21 27.0148 169.506 26.7508C168.816 26.4868 168.266 26.1494 167.856 25.7388C167.445 25.3428 167.144 24.9468 166.954 24.5508C166.763 24.1548 166.638 23.8174 166.58 23.5388C166.536 23.2748 166.514 23.1428 166.514 23.1428H169.77C169.77 23.1428 169.792 23.2088 169.836 23.3408C169.894 23.4874 170.004 23.6488 170.166 23.8248C170.327 24.0154 170.562 24.1768 170.87 24.3088C171.192 24.4554 171.618 24.5288 172.146 24.5288C173.055 24.5288 173.722 24.2721 174.148 23.7588C174.588 23.2454 174.808 22.5708 174.808 21.7348V20.5028H174.654C174.507 20.7374 174.287 20.9941 173.994 21.2728C173.7 21.5514 173.326 21.7861 172.872 21.9768C172.417 22.1674 171.867 22.2628 171.222 22.2628C170.356 22.2628 169.601 22.1014 168.956 21.7788C168.31 21.4414 167.768 20.9941 167.328 20.4368C166.902 19.8794 166.58 19.2561 166.36 18.5668C166.154 17.8774 166.052 17.1661 166.052 16.4328C166.052 15.7141 166.154 15.0101 166.36 14.3208C166.58 13.6168 166.902 12.9861 167.328 12.4288C167.768 11.8714 168.31 11.4314 168.956 11.1088C169.601 10.7714 170.356 10.6028 171.222 10.6028C171.867 10.6028 172.417 10.7054 172.872 10.9108C173.326 11.1014 173.7 11.3361 173.994 11.6148C174.302 11.8788 174.522 12.1354 174.654 12.3848H174.808V10.8228H178.152V21.7348C178.152 22.7028 177.939 23.5974 177.514 24.4188C177.088 25.2401 176.436 25.9001 175.556 26.3988C174.676 26.8974 173.554 27.1468 172.19 27.1468ZM172.146 19.6228C172.762 19.6228 173.268 19.4688 173.664 19.1608C174.074 18.8528 174.382 18.4568 174.588 17.9728C174.793 17.4741 174.896 16.9608 174.896 16.4328C174.896 15.8901 174.793 15.3768 174.588 14.8928C174.382 14.4088 174.074 14.0128 173.664 13.7048C173.268 13.3968 172.762 13.2428 172.146 13.2428C171.544 13.2428 171.038 13.3968 170.628 13.7048C170.232 14.0128 169.931 14.4088 169.726 14.8928C169.52 15.3768 169.418 15.8901 169.418 16.4328C169.418 16.9608 169.52 17.4741 169.726 17.9728C169.931 18.4568 170.232 18.8528 170.628 19.1608C171.038 19.4688 171.544 19.6228 172.146 19.6228ZM66.864 50.7028C65.7787 50.7028 64.796 50.5121 63.916 50.1308C63.036 49.7348 62.332 49.1774 61.804 48.4588C61.276 47.7254 61.012 46.8454 61.012 45.8188C61.012 44.8361 61.2687 43.9928 61.782 43.2888C62.2953 42.5701 63.036 41.9321 64.004 41.3748C63.6667 40.9788 63.344 40.5094 63.036 39.9668C62.7427 39.4241 62.596 38.7641 62.596 37.9868C62.596 37.1068 62.8087 36.3734 63.234 35.7868C63.6593 35.1854 64.202 34.7381 64.862 34.4448C65.5367 34.1368 66.2407 33.9828 66.974 33.9828C67.7073 33.9828 68.3967 34.1294 69.042 34.4228C69.6873 34.7014 70.2153 35.1121 70.626 35.6548C71.0367 36.1974 71.242 36.8721 71.242 37.6788C71.242 38.6468 70.9487 39.4608 70.362 40.1208C69.79 40.7808 69.0713 41.3454 68.206 41.8148L71.132 44.9828C71.308 44.4988 71.4473 43.9488 71.55 43.3328C71.6527 42.7021 71.704 41.9981 71.704 41.2208H74.366C74.366 42.4674 74.2487 43.5821 74.014 44.5648C73.794 45.5328 73.486 46.3834 73.09 47.1168L76.148 50.4388H72.056L71.11 49.3828C70.5087 49.8374 69.8413 50.1748 69.108 50.3948C68.3893 50.6001 67.6413 50.7028 66.864 50.7028ZM65.368 37.8548C65.368 38.2654 65.5 38.6614 65.764 39.0428C66.028 39.4094 66.314 39.7614 66.622 40.0988C67.1353 39.8494 67.5753 39.5414 67.942 39.1748C68.3087 38.7934 68.492 38.3314 68.492 37.7888C68.492 37.2901 68.3307 36.9161 68.008 36.6668C67.7 36.4028 67.3553 36.2708 66.974 36.2708C66.5633 36.2708 66.1893 36.4101 65.852 36.6888C65.5293 36.9528 65.368 37.3414 65.368 37.8548ZM64.048 45.5768C64.048 46.2954 64.3193 46.8968 64.862 47.3808C65.4047 47.8648 66.1307 48.1068 67.04 48.1068C67.4507 48.1068 67.854 48.0554 68.25 47.9528C68.646 47.8354 69.0127 47.6521 69.35 47.4028L65.588 43.1788C65.104 43.5014 64.7227 43.8608 64.444 44.2568C64.18 44.6381 64.048 45.0781 64.048 45.5768ZM89.4176 50.7028C88.3616 50.7028 87.4596 50.5781 86.7116 50.3288C85.9783 50.0648 85.3623 49.7348 84.8636 49.3388C84.3796 48.9281 83.9909 48.5028 83.6976 48.0628C83.4043 47.6081 83.1843 47.1828 83.0376 46.7868C82.9056 46.3761 82.8176 46.0461 82.7736 45.7968C82.7443 45.5328 82.7296 45.4008 82.7296 45.4008H86.1616C86.1616 45.4008 86.1909 45.5254 86.2496 45.7748C86.3229 46.0241 86.4696 46.3174 86.6896 46.6548C86.9096 46.9774 87.2469 47.2634 87.7016 47.5128C88.1563 47.7474 88.7723 47.8648 89.5496 47.8648C90.5029 47.8648 91.2069 47.6668 91.6616 47.2708C92.1163 46.8601 92.3436 46.3761 92.3436 45.8188C92.3436 45.3201 92.1676 44.9241 91.8156 44.6308C91.4783 44.3374 90.9503 44.1174 90.2316 43.9708L88.0536 43.5528C87.1736 43.3914 86.3523 43.1348 85.5896 42.7828C84.8416 42.4308 84.2329 41.9468 83.7636 41.3308C83.2943 40.7001 83.0596 39.8934 83.0596 38.9108C83.0596 37.9134 83.3089 37.0481 83.8076 36.3148C84.3063 35.5668 85.0029 34.9948 85.8976 34.5988C86.8069 34.1881 87.8703 33.9828 89.0876 33.9828C90.2316 33.9828 91.1776 34.1514 91.9256 34.4888C92.6883 34.8114 93.2896 35.2148 93.7296 35.6988C94.1843 36.1681 94.5143 36.6448 94.7196 37.1288C94.9396 37.6128 95.0789 38.0161 95.1376 38.3388C95.2109 38.6614 95.2476 38.8228 95.2476 38.8228H91.9036C91.9036 38.8228 91.8743 38.7201 91.8156 38.5148C91.7716 38.3094 91.6543 38.0748 91.4636 37.8108C91.2729 37.5468 90.9796 37.3121 90.5836 37.1068C90.2023 36.9014 89.6743 36.7988 88.9996 36.7988C88.0756 36.7988 87.4083 37.0041 86.9976 37.4148C86.5869 37.8108 86.3816 38.2434 86.3816 38.7128C86.3816 39.1968 86.5869 39.5708 86.9976 39.8348C87.4083 40.0988 87.9436 40.2968 88.6036 40.4288L90.9136 40.8908C91.7936 41.0521 92.6003 41.3234 93.3336 41.7048C94.0669 42.0861 94.6463 42.5994 95.0716 43.2448C95.5116 43.8754 95.7316 44.6601 95.7316 45.5988C95.7316 46.5668 95.4896 47.4394 95.0056 48.2168C94.5216 48.9794 93.8103 49.5881 92.8716 50.0428C91.9329 50.4828 90.7816 50.7028 89.4176 50.7028ZM102.75 38.6028C103.498 38.6028 104.114 38.7274 104.598 38.9768C105.082 39.2114 105.449 39.4681 105.698 39.7468C105.962 40.0254 106.123 40.2161 106.182 40.3188H106.358V38.8228H109.702V50.4828H106.358V48.9868H106.182C106.123 49.0894 105.962 49.2801 105.698 49.5588C105.449 49.8374 105.082 50.1014 104.598 50.3508C104.114 50.5854 103.498 50.7028 102.75 50.7028C101.885 50.7028 101.129 50.5341 100.484 50.1968C99.8533 49.8448 99.3253 49.3828 98.9 48.8108C98.4746 48.2241 98.152 47.5714 97.932 46.8528C97.7266 46.1341 97.624 45.4008 97.624 44.6528C97.624 43.9048 97.7266 43.1714 97.932 42.4528C98.152 41.7341 98.4746 41.0888 98.9 40.5168C99.3253 39.9301 99.8533 39.4681 100.484 39.1308C101.129 38.7788 101.885 38.6028 102.75 38.6028ZM103.718 41.3088C103.117 41.3088 102.611 41.4774 102.2 41.8148C101.804 42.1374 101.503 42.5554 101.298 43.0688C101.107 43.5821 101.012 44.1101 101.012 44.6528C101.012 45.1954 101.107 45.7234 101.298 46.2368C101.503 46.7501 101.804 47.1754 102.2 47.5128C102.611 47.8354 103.117 47.9968 103.718 47.9968C104.319 47.9968 104.818 47.8354 105.214 47.5128C105.625 47.1754 105.925 46.7501 106.116 46.2368C106.321 45.7234 106.424 45.1954 106.424 44.6528C106.424 44.1101 106.321 43.5821 106.116 43.0688C105.925 42.5554 105.625 42.1374 105.214 41.8148C104.818 41.4774 104.319 41.3088 103.718 41.3088ZM112.543 50.4828V33.7628H115.887V50.4828H112.543ZM124.34 50.7028C123.313 50.7028 122.426 50.5341 121.678 50.1968C120.93 49.8448 120.314 49.3828 119.83 48.8108C119.346 48.2241 118.979 47.5714 118.73 46.8528C118.495 46.1341 118.378 45.3934 118.378 44.6308C118.378 43.8974 118.488 43.1788 118.708 42.4748C118.943 41.7561 119.295 41.1034 119.764 40.5168C120.248 39.9301 120.857 39.4681 121.59 39.1308C122.338 38.7788 123.218 38.6028 124.23 38.6028C125.301 38.6028 126.247 38.8374 127.068 39.3068C127.904 39.7761 128.557 40.4728 129.026 41.3968C129.495 42.3061 129.73 43.4134 129.73 44.7188V45.5328H121.744C121.788 46.2368 122.03 46.8454 122.47 47.3588C122.925 47.8721 123.548 48.1288 124.34 48.1288C124.795 48.1288 125.161 48.0628 125.44 47.9308C125.733 47.7841 125.961 47.6228 126.122 47.4468C126.283 47.2561 126.393 47.0874 126.452 46.9408C126.511 46.7941 126.54 46.7208 126.54 46.7208H129.62C129.62 46.7208 129.583 46.8601 129.51 47.1388C129.451 47.4028 129.319 47.7328 129.114 48.1288C128.909 48.5248 128.608 48.9208 128.212 49.3168C127.831 49.7128 127.325 50.0428 126.694 50.3068C126.063 50.5708 125.279 50.7028 124.34 50.7028ZM121.744 43.5088H126.518C126.474 42.7021 126.232 42.1008 125.792 41.7048C125.352 41.3088 124.809 41.1108 124.164 41.1108C123.519 41.1108 122.969 41.3234 122.514 41.7488C122.059 42.1594 121.803 42.7461 121.744 43.5088ZM137.037 50.7028C136.069 50.7028 135.27 50.5708 134.639 50.3068C134.009 50.0428 133.503 49.7201 133.121 49.3388C132.755 48.9428 132.476 48.5541 132.285 48.1728C132.109 47.7768 131.992 47.4468 131.933 47.1828C131.889 46.9188 131.867 46.7868 131.867 46.7868H134.969C134.969 46.7868 134.991 46.8601 135.035 47.0068C135.079 47.1534 135.175 47.3221 135.321 47.5128C135.483 47.7034 135.71 47.8721 136.003 48.0188C136.297 48.1654 136.693 48.2388 137.191 48.2388C137.807 48.2388 138.225 48.1141 138.445 47.8648C138.68 47.6154 138.797 47.3661 138.797 47.1168C138.797 46.5888 138.365 46.2368 137.499 46.0608L135.915 45.7528C135.241 45.6208 134.603 45.4301 134.001 45.1808C133.415 44.9168 132.938 44.5574 132.571 44.1028C132.219 43.6334 132.043 43.0321 132.043 42.2988C132.043 41.5948 132.227 40.9641 132.593 40.4068C132.96 39.8494 133.481 39.4094 134.155 39.0868C134.845 38.7641 135.666 38.6028 136.619 38.6028C137.514 38.6028 138.255 38.7274 138.841 38.9768C139.443 39.2114 139.919 39.5121 140.271 39.8788C140.623 40.2308 140.887 40.5901 141.063 40.9568C141.239 41.3088 141.349 41.6094 141.393 41.8588C141.452 42.0934 141.481 42.2108 141.481 42.2108H138.489C138.489 42.2108 138.445 42.1154 138.357 41.9248C138.269 41.7194 138.086 41.5214 137.807 41.3308C137.543 41.1254 137.133 41.0228 136.575 41.0228C136.003 41.0228 135.607 41.1401 135.387 41.3748C135.167 41.5948 135.057 41.8294 135.057 42.0788C135.057 42.3721 135.182 42.5921 135.431 42.7388C135.695 42.8854 136.033 43.0028 136.443 43.0908L137.961 43.3988C139.076 43.6188 139.993 44.0074 140.711 44.5648C141.43 45.1074 141.789 45.8994 141.789 46.9408C141.789 47.6448 141.606 48.2828 141.239 48.8548C140.873 49.4268 140.337 49.8814 139.633 50.2188C138.929 50.5414 138.064 50.7028 137.037 50.7028Z" fill="white"/>
</svg>
