<svg width="270" height="85" viewBox="0 0 270 85" fill="none" xmlns="http://www.w3.org/2000/svg">
<path d="M42.6721 72.7543C59.4264 72.7543 73.0084 59.1723 73.0084 42.4181C73.0084 25.6639 59.4264 12.0819 42.6721 12.0819C25.9179 12.0819 12.3359 25.6639 12.3359 42.4181C12.3359 59.1723 25.9179 72.7543 42.6721 72.7543Z" stroke="#FF4502" stroke-width="23" stroke-miterlimit="10"/>
<path d="M114.953 36.9181V20.6381H119.529L123.247 29.0201L127.075 20.6381H131.497V36.9181H128.153V25.8301L124.809 33.1121H121.663L118.297 25.7861V36.9181H114.953ZM139.105 25.0381C139.853 25.0381 140.469 25.1628 140.953 25.4121C141.437 25.6468 141.804 25.9034 142.053 26.1821C142.317 26.4608 142.479 26.6514 142.537 26.7541H142.713V25.2581H146.057V36.9181H142.713V35.4221H142.537C142.479 35.5248 142.317 35.7154 142.053 35.9941C141.804 36.2728 141.437 36.5368 140.953 36.7861C140.469 37.0208 139.853 37.1381 139.105 37.1381C138.24 37.1381 137.485 36.9694 136.839 36.6321C136.209 36.2801 135.681 35.8181 135.255 35.2461C134.83 34.6594 134.507 34.0068 134.287 33.2881C134.082 32.5694 133.979 31.8361 133.979 31.0881C133.979 30.3401 134.082 29.6068 134.287 28.8881C134.507 28.1694 134.83 27.5241 135.255 26.9521C135.681 26.3654 136.209 25.9034 136.839 25.5661C137.485 25.2141 138.24 25.0381 139.105 25.0381ZM140.073 27.7441C139.472 27.7441 138.966 27.9128 138.555 28.2501C138.159 28.5728 137.859 28.9908 137.653 29.5041C137.463 30.0174 137.367 30.5454 137.367 31.0881C137.367 31.6308 137.463 32.1588 137.653 32.6721C137.859 33.1854 138.159 33.6108 138.555 33.9481C138.966 34.2708 139.472 34.4321 140.073 34.4321C140.675 34.4321 141.173 34.2708 141.569 33.9481C141.98 33.6108 142.281 33.1854 142.471 32.6721C142.677 32.1588 142.779 31.6308 142.779 31.0881C142.779 30.5454 142.677 30.0174 142.471 29.5041C142.281 28.9908 141.98 28.5728 141.569 28.2501C141.173 27.9128 140.675 27.7441 140.073 27.7441ZM148.614 36.9181V25.2581H151.936V26.9521H152.046C152.178 26.6441 152.361 26.3434 152.596 26.0501C152.831 25.7568 153.153 25.5148 153.564 25.3241C153.975 25.1334 154.503 25.0381 155.148 25.0381C155.471 25.0381 155.727 25.0601 155.918 25.1041C156.109 25.1334 156.204 25.1481 156.204 25.1481V28.4481C156.204 28.4481 156.094 28.4261 155.874 28.3821C155.669 28.3381 155.397 28.3161 155.06 28.3161C154.019 28.3161 153.241 28.6021 152.728 29.1741C152.215 29.7314 151.958 30.6481 151.958 31.9241V36.9181H148.614ZM158.266 36.9181V20.1981H161.61V29.8341L165.46 25.2581H169.266L164.69 30.5821L169.464 36.9181H165.526L161.61 31.6821V36.9181H158.266ZM176.164 37.1381C175.137 37.1381 174.25 36.9694 173.502 36.6321C172.754 36.2801 172.138 35.8181 171.654 35.2461C171.17 34.6594 170.803 34.0068 170.554 33.2881C170.319 32.5694 170.202 31.8288 170.202 31.0661C170.202 30.3328 170.312 29.6141 170.532 28.9101C170.767 28.1914 171.119 27.5388 171.588 26.9521C172.072 26.3654 172.681 25.9034 173.414 25.5661C174.162 25.2141 175.042 25.0381 176.054 25.0381C177.125 25.0381 178.071 25.2728 178.892 25.7421C179.728 26.2114 180.381 26.9081 180.85 27.8321C181.319 28.7414 181.554 29.8488 181.554 31.1541V31.9681H173.568C173.612 32.6721 173.854 33.2808 174.294 33.7941C174.749 34.3074 175.372 34.5641 176.164 34.5641C176.619 34.5641 176.985 34.4981 177.264 34.3661C177.557 34.2194 177.785 34.0581 177.946 33.8821C178.107 33.6914 178.217 33.5228 178.276 33.3761C178.335 33.2294 178.364 33.1561 178.364 33.1561H181.444C181.444 33.1561 181.407 33.2954 181.334 33.5741C181.275 33.8381 181.143 34.1681 180.938 34.5641C180.733 34.9601 180.432 35.3561 180.036 35.7521C179.655 36.1481 179.149 36.4781 178.518 36.7421C177.887 37.0061 177.103 37.1381 176.164 37.1381ZM173.568 29.9441H178.342C178.298 29.1374 178.056 28.5361 177.616 28.1401C177.176 27.7441 176.633 27.5461 175.988 27.5461C175.343 27.5461 174.793 27.7588 174.338 28.1841C173.883 28.5948 173.627 29.1814 173.568 29.9441ZM189.175 37.1381C188.266 37.1381 187.54 37.0061 186.997 36.7421C186.454 36.4634 186.044 36.1188 185.765 35.7081C185.486 35.2828 185.303 34.8354 185.215 34.3661C185.127 33.8968 185.083 33.4641 185.083 33.0681V27.9201H183.103V25.2581H185.083V22.3761H188.427V25.2581H190.913V27.9201H188.427V32.9801C188.427 33.4641 188.552 33.8381 188.801 34.1021C189.065 34.3661 189.498 34.4981 190.099 34.4981C190.363 34.4981 190.605 34.4761 190.825 34.4321C191.045 34.3881 191.155 34.3661 191.155 34.3661V36.9401C191.155 36.9401 190.957 36.9694 190.561 37.0281C190.165 37.1014 189.703 37.1381 189.175 37.1381ZM195.367 23.6741C194.781 23.6741 194.304 23.4908 193.937 23.1241C193.571 22.7428 193.387 22.2954 193.387 21.7821C193.387 21.2394 193.571 20.7848 193.937 20.4181C194.304 20.0368 194.781 19.8461 195.367 19.8461C195.925 19.8461 196.394 20.0368 196.775 20.4181C197.157 20.7848 197.347 21.2394 197.347 21.7821C197.347 22.2954 197.157 22.7428 196.775 23.1241C196.394 23.4908 195.925 23.6741 195.367 23.6741ZM193.695 36.9181V25.2581H197.039V36.9181H193.695ZM199.897 36.9181V25.2581H203.241V26.9301H203.351C203.483 26.6954 203.674 26.4314 203.923 26.1381C204.187 25.8448 204.532 25.5881 204.957 25.3681C205.397 25.1481 205.954 25.0381 206.629 25.0381C207.538 25.0381 208.279 25.2508 208.851 25.6761C209.423 26.0868 209.841 26.6221 210.105 27.2821C210.369 27.9274 210.501 28.6094 210.501 29.3281V36.9181H207.157V29.9001C207.157 29.3428 207.003 28.8514 206.695 28.4261C206.402 28.0008 205.925 27.7881 205.265 27.7881C204.766 27.7881 204.37 27.9054 204.077 28.1401C203.784 28.3748 203.571 28.6754 203.439 29.0421C203.307 29.4088 203.241 29.7974 203.241 30.2081V36.9181H199.897ZM218.901 41.5821C217.815 41.5821 216.921 41.4501 216.217 41.1861C215.527 40.9221 214.977 40.5848 214.567 40.1741C214.156 39.7781 213.855 39.3821 213.665 38.9861C213.474 38.5901 213.349 38.2528 213.291 37.9741C213.247 37.7101 213.225 37.5781 213.225 37.5781H216.481C216.481 37.5781 216.503 37.6441 216.547 37.7761C216.605 37.9228 216.715 38.0841 216.877 38.2601C217.038 38.4508 217.273 38.6121 217.581 38.7441C217.903 38.8908 218.329 38.9641 218.857 38.9641C219.766 38.9641 220.433 38.7074 220.859 38.1941C221.299 37.6808 221.519 37.0061 221.519 36.1701V34.9381H221.365C221.218 35.1728 220.998 35.4294 220.705 35.7081C220.411 35.9868 220.037 36.2214 219.583 36.4121C219.128 36.6028 218.578 36.6981 217.933 36.6981C217.067 36.6981 216.312 36.5368 215.667 36.2141C215.021 35.8768 214.479 35.4294 214.039 34.8721C213.613 34.3148 213.291 33.6914 213.071 33.0021C212.865 32.3128 212.763 31.6014 212.763 30.8681C212.763 30.1494 212.865 29.4454 213.071 28.7561C213.291 28.0521 213.613 27.4214 214.039 26.8641C214.479 26.3068 215.021 25.8668 215.667 25.5441C216.312 25.2068 217.067 25.0381 217.933 25.0381C218.578 25.0381 219.128 25.1408 219.583 25.3461C220.037 25.5368 220.411 25.7714 220.705 26.0501C221.013 26.3141 221.233 26.5708 221.365 26.8201H221.519V25.2581H224.863V36.1701C224.863 37.1381 224.65 38.0328 224.225 38.8541C223.799 39.6754 223.147 40.3354 222.267 40.8341C221.387 41.3328 220.265 41.5821 218.901 41.5821ZM218.857 34.0581C219.473 34.0581 219.979 33.9041 220.375 33.5961C220.785 33.2881 221.093 32.8921 221.299 32.4081C221.504 31.9094 221.607 31.3961 221.607 30.8681C221.607 30.3254 221.504 29.8121 221.299 29.3281C221.093 28.8441 220.785 28.4481 220.375 28.1401C219.979 27.8321 219.473 27.6781 218.857 27.6781C218.255 27.6781 217.749 27.8321 217.339 28.1401C216.943 28.4481 216.642 28.8441 216.437 29.3281C216.231 29.8121 216.129 30.3254 216.129 30.8681C216.129 31.3961 216.231 31.9094 216.437 32.4081C216.642 32.8921 216.943 33.2881 217.339 33.5961C217.749 33.9041 218.255 34.0581 218.857 34.0581ZM238.077 37.1381C236.992 37.1381 236.009 36.9474 235.129 36.5661C234.249 36.1701 233.545 35.6128 233.017 34.8941C232.489 34.1608 232.225 33.2808 232.225 32.2541C232.225 31.2714 232.482 30.4281 232.995 29.7241C233.508 29.0054 234.249 28.3674 235.217 27.8101C234.88 27.4141 234.557 26.9448 234.249 26.4021C233.956 25.8594 233.809 25.1994 233.809 24.4221C233.809 23.5421 234.022 22.8088 234.447 22.2221C234.872 21.6208 235.415 21.1734 236.075 20.8801C236.75 20.5721 237.454 20.4181 238.187 20.4181C238.92 20.4181 239.61 20.5648 240.255 20.8581C240.9 21.1368 241.428 21.5474 241.839 22.0901C242.25 22.6328 242.455 23.3074 242.455 24.1141C242.455 25.0821 242.162 25.8961 241.575 26.5561C241.003 27.2161 240.284 27.7808 239.419 28.2501L242.345 31.4181C242.521 30.9341 242.66 30.3841 242.763 29.7681C242.866 29.1374 242.917 28.4334 242.917 27.6561H245.579C245.579 28.9028 245.462 30.0174 245.227 31.0001C245.007 31.9681 244.699 32.8188 244.303 33.5521L247.361 36.8741H243.269L242.323 35.8181C241.722 36.2728 241.054 36.6101 240.321 36.8301C239.602 37.0354 238.854 37.1381 238.077 37.1381ZM236.581 24.2901C236.581 24.7008 236.713 25.0968 236.977 25.4781C237.241 25.8448 237.527 26.1968 237.835 26.5341C238.348 26.2848 238.788 25.9768 239.155 25.6101C239.522 25.2288 239.705 24.7668 239.705 24.2241C239.705 23.7254 239.544 23.3514 239.221 23.1021C238.913 22.8381 238.568 22.7061 238.187 22.7061C237.776 22.7061 237.402 22.8454 237.065 23.1241C236.742 23.3881 236.581 23.7768 236.581 24.2901ZM235.261 32.0121C235.261 32.7308 235.532 33.3321 236.075 33.8161C236.618 34.3001 237.344 34.5421 238.253 34.5421C238.664 34.5421 239.067 34.4908 239.463 34.3881C239.859 34.2708 240.226 34.0874 240.563 33.8381L236.801 29.6141C236.317 29.9368 235.936 30.2961 235.657 30.6921C235.393 31.0734 235.261 31.5134 235.261 32.0121ZM121.025 65.1381C119.969 65.1381 119.067 65.0134 118.319 64.7641C117.586 64.5001 116.97 64.1701 116.471 63.7741C115.987 63.3634 115.598 62.9381 115.305 62.4981C115.012 62.0434 114.792 61.6181 114.645 61.2221C114.513 60.8114 114.425 60.4814 114.381 60.2321C114.352 59.9681 114.337 59.8361 114.337 59.8361H117.769C117.769 59.8361 117.798 59.9608 117.857 60.2101C117.93 60.4594 118.077 60.7528 118.297 61.0901C118.517 61.4128 118.854 61.6988 119.309 61.9481C119.764 62.1828 120.38 62.3001 121.157 62.3001C122.11 62.3001 122.814 62.1021 123.269 61.7061C123.724 61.2954 123.951 60.8114 123.951 60.2541C123.951 59.7554 123.775 59.3594 123.423 59.0661C123.086 58.7728 122.558 58.5528 121.839 58.4061L119.661 57.9881C118.781 57.8268 117.96 57.5701 117.197 57.2181C116.449 56.8661 115.84 56.3821 115.371 55.7661C114.902 55.1354 114.667 54.3288 114.667 53.3461C114.667 52.3488 114.916 51.4834 115.415 50.7501C115.914 50.0021 116.61 49.4301 117.505 49.0341C118.414 48.6234 119.478 48.4181 120.695 48.4181C121.839 48.4181 122.785 48.5868 123.533 48.9241C124.296 49.2468 124.897 49.6501 125.337 50.1341C125.792 50.6034 126.122 51.0801 126.327 51.5641C126.547 52.0481 126.686 52.4514 126.745 52.7741C126.818 53.0968 126.855 53.2581 126.855 53.2581H123.511C123.511 53.2581 123.482 53.1554 123.423 52.9501C123.379 52.7448 123.262 52.5101 123.071 52.2461C122.88 51.9821 122.587 51.7474 122.191 51.5421C121.81 51.3368 121.282 51.2341 120.607 51.2341C119.683 51.2341 119.016 51.4394 118.605 51.8501C118.194 52.2461 117.989 52.6788 117.989 53.1481C117.989 53.6321 118.194 54.0061 118.605 54.2701C119.016 54.5341 119.551 54.7321 120.211 54.8641L122.521 55.3261C123.401 55.4874 124.208 55.7588 124.941 56.1401C125.674 56.5214 126.254 57.0348 126.679 57.6801C127.119 58.3108 127.339 59.0954 127.339 60.0341C127.339 61.0021 127.097 61.8748 126.613 62.6521C126.129 63.4148 125.418 64.0234 124.479 64.4781C123.54 64.9181 122.389 65.1381 121.025 65.1381ZM135.347 65.1381C134.042 65.1381 132.935 64.8594 132.025 64.3021C131.116 63.7301 130.419 62.9894 129.935 62.0801C129.466 61.1561 129.231 60.1588 129.231 59.0881C129.231 58.0174 129.466 57.0274 129.935 56.1181C130.419 55.1941 131.116 54.4534 132.025 53.8961C132.935 53.3241 134.042 53.0381 135.347 53.0381C136.653 53.0381 137.76 53.3241 138.669 53.8961C139.579 54.4534 140.268 55.1941 140.737 56.1181C141.221 57.0274 141.463 58.0174 141.463 59.0881C141.463 60.1588 141.221 61.1561 140.737 62.0801C140.268 62.9894 139.579 63.7301 138.669 64.3021C137.76 64.8594 136.653 65.1381 135.347 65.1381ZM135.347 62.4101C135.934 62.4101 136.425 62.2561 136.821 61.9481C137.232 61.6401 137.547 61.2368 137.767 60.7381C137.987 60.2248 138.097 59.6748 138.097 59.0881C138.097 58.4868 137.987 57.9368 137.767 57.4381C137.547 56.9394 137.232 56.5361 136.821 56.2281C136.425 55.9201 135.934 55.7661 135.347 55.7661C134.761 55.7661 134.262 55.9201 133.851 56.2281C133.441 56.5361 133.125 56.9394 132.905 57.4381C132.7 57.9368 132.597 58.4868 132.597 59.0881C132.597 59.6748 132.7 60.2248 132.905 60.7381C133.125 61.2368 133.441 61.6401 133.851 61.9481C134.262 62.2561 134.761 62.4101 135.347 62.4101ZM149.676 65.1381C148.65 65.1381 147.755 64.9694 146.992 64.6321C146.23 64.2801 145.599 63.8181 145.1 63.2461C144.602 62.6741 144.228 62.0288 143.978 61.3101C143.729 60.5768 143.604 59.8361 143.604 59.0881C143.604 58.3401 143.729 57.6068 143.978 56.8881C144.228 56.1694 144.602 55.5241 145.1 54.9521C145.599 54.3654 146.23 53.9034 146.992 53.5661C147.755 53.2141 148.65 53.0381 149.676 53.0381C150.718 53.0381 151.576 53.1921 152.25 53.5001C152.925 53.7934 153.46 54.1674 153.856 54.6221C154.267 55.0621 154.568 55.5094 154.758 55.9641C154.949 56.4041 155.066 56.7781 155.11 57.0861C155.169 57.3794 155.198 57.5261 155.198 57.5261H152.074C152.074 57.5261 152.045 57.4381 151.986 57.2621C151.942 57.0714 151.84 56.8588 151.678 56.6241C151.532 56.3748 151.304 56.1621 150.996 55.9861C150.688 55.7954 150.278 55.7001 149.764 55.7001C149.134 55.7001 148.606 55.8614 148.18 56.1841C147.77 56.4921 147.462 56.9028 147.256 57.4161C147.051 57.9294 146.948 58.4868 146.948 59.0881C146.948 59.6894 147.051 60.2468 147.256 60.7601C147.462 61.2734 147.77 61.6914 148.18 62.0141C148.606 62.3221 149.134 62.4761 149.764 62.4761C150.278 62.4761 150.688 62.3881 150.996 62.2121C151.304 62.0214 151.532 61.8088 151.678 61.5741C151.84 61.3248 151.942 61.1121 151.986 60.9361C152.045 60.7454 152.074 60.6501 152.074 60.6501H155.198C155.198 60.6501 155.169 60.8041 155.11 61.1121C155.066 61.4054 154.949 61.7794 154.758 62.2341C154.568 62.6741 154.267 63.1214 153.856 63.5761C153.46 64.0161 152.925 64.3901 152.25 64.6981C151.576 64.9914 150.718 65.1381 149.676 65.1381ZM159.574 51.6741C158.988 51.6741 158.511 51.4908 158.144 51.1241C157.778 50.7428 157.594 50.2954 157.594 49.7821C157.594 49.2394 157.778 48.7848 158.144 48.4181C158.511 48.0368 158.988 47.8461 159.574 47.8461C160.132 47.8461 160.601 48.0368 160.982 48.4181C161.364 48.7848 161.554 49.2394 161.554 49.7821C161.554 50.2954 161.364 50.7428 160.982 51.1241C160.601 51.4908 160.132 51.6741 159.574 51.6741ZM157.902 64.9181V53.2581H161.246V64.9181H157.902ZM169.076 53.0381C169.824 53.0381 170.44 53.1628 170.924 53.4121C171.408 53.6468 171.775 53.9034 172.024 54.1821C172.288 54.4608 172.449 54.6514 172.508 54.7541H172.684V53.2581H176.028V64.9181H172.684V63.4221H172.508C172.449 63.5248 172.288 63.7154 172.024 63.9941C171.775 64.2728 171.408 64.5368 170.924 64.7861C170.44 65.0208 169.824 65.1381 169.076 65.1381C168.211 65.1381 167.455 64.9694 166.81 64.6321C166.179 64.2801 165.651 63.8181 165.226 63.2461C164.801 62.6594 164.478 62.0068 164.258 61.2881C164.053 60.5694 163.95 59.8361 163.95 59.0881C163.95 58.3401 164.053 57.6068 164.258 56.8881C164.478 56.1694 164.801 55.5241 165.226 54.9521C165.651 54.3654 166.179 53.9034 166.81 53.5661C167.455 53.2141 168.211 53.0381 169.076 53.0381ZM170.044 55.7441C169.443 55.7441 168.937 55.9128 168.526 56.2501C168.13 56.5728 167.829 56.9908 167.624 57.5041C167.433 58.0174 167.338 58.5454 167.338 59.0881C167.338 59.6308 167.433 60.1588 167.624 60.6721C167.829 61.1854 168.13 61.6108 168.526 61.9481C168.937 62.2708 169.443 62.4321 170.044 62.4321C170.645 62.4321 171.144 62.2708 171.54 61.9481C171.951 61.6108 172.251 61.1854 172.442 60.6721C172.647 60.1588 172.75 59.6308 172.75 59.0881C172.75 58.5454 172.647 58.0174 172.442 57.5041C172.251 56.9908 171.951 56.5728 171.54 56.2501C171.144 55.9128 170.645 55.7441 170.044 55.7441ZM178.869 64.9181V48.1981H182.213V64.9181H178.869ZM190.277 64.9181V48.6381H194.853L198.571 57.0201L202.399 48.6381H206.821V64.9181H203.477V53.8301L200.133 61.1121H196.987L193.621 53.7861V64.9181H190.277ZM215.266 65.1381C214.239 65.1381 213.352 64.9694 212.604 64.6321C211.856 64.2801 211.24 63.8181 210.756 63.2461C210.272 62.6594 209.905 62.0068 209.656 61.2881C209.421 60.5694 209.304 59.8288 209.304 59.0661C209.304 58.3328 209.414 57.6141 209.634 56.9101C209.868 56.1914 210.22 55.5388 210.69 54.9521C211.174 54.3654 211.782 53.9034 212.516 53.5661C213.264 53.2141 214.144 53.0381 215.156 53.0381C216.226 53.0381 217.172 53.2728 217.994 53.7421C218.83 54.2114 219.482 54.9081 219.952 55.8321C220.421 56.7414 220.656 57.8488 220.656 59.1541V59.9681H212.67C212.714 60.6721 212.956 61.2808 213.396 61.7941C213.85 62.3074 214.474 62.5641 215.266 62.5641C215.72 62.5641 216.087 62.4981 216.366 62.3661C216.659 62.2194 216.886 62.0581 217.048 61.8821C217.209 61.6914 217.319 61.5228 217.378 61.3761C217.436 61.2294 217.466 61.1561 217.466 61.1561H220.546C220.546 61.1561 220.509 61.2954 220.436 61.5741C220.377 61.8381 220.245 62.1681 220.04 62.5641C219.834 62.9601 219.534 63.3561 219.138 63.7521C218.756 64.1481 218.25 64.4781 217.62 64.7421C216.989 65.0061 216.204 65.1381 215.266 65.1381ZM212.67 57.9441H217.444C217.4 57.1374 217.158 56.5361 216.718 56.1401C216.278 55.7441 215.735 55.5461 215.09 55.5461C214.444 55.5461 213.894 55.7588 213.44 56.1841C212.985 56.5948 212.728 57.1814 212.67 57.9441ZM227.922 65.1381C227.056 65.1381 226.301 64.9694 225.656 64.6321C225.025 64.2801 224.497 63.8181 224.072 63.2461C223.646 62.6594 223.324 62.0068 223.104 61.2881C222.898 60.5694 222.796 59.8361 222.796 59.0881C222.796 58.3401 222.898 57.6068 223.104 56.8881C223.324 56.1694 223.646 55.5241 224.072 54.9521C224.497 54.3654 225.025 53.9034 225.656 53.5661C226.301 53.2141 227.056 53.0381 227.922 53.0381C228.67 53.0381 229.286 53.1628 229.77 53.4121C230.254 53.6468 230.62 53.9034 230.87 54.1821C231.134 54.4608 231.295 54.6514 231.354 54.7541H231.53V48.1981H234.874V64.9181H231.53V63.4221H231.354C231.295 63.5248 231.134 63.7154 230.87 63.9941C230.62 64.2728 230.254 64.5368 229.77 64.7861C229.286 65.0208 228.67 65.1381 227.922 65.1381ZM228.89 62.4321C229.491 62.4321 229.99 62.2708 230.386 61.9481C230.796 61.6108 231.097 61.1854 231.288 60.6721C231.493 60.1588 231.596 59.6308 231.596 59.0881C231.596 58.5454 231.493 58.0174 231.288 57.5041C231.097 56.9908 230.796 56.5728 230.386 56.2501C229.99 55.9128 229.491 55.7441 228.89 55.7441C228.288 55.7441 227.782 55.9128 227.372 56.2501C226.976 56.5728 226.675 56.9908 226.47 57.5041C226.279 58.0174 226.184 58.5454 226.184 59.0881C226.184 59.6308 226.279 60.1588 226.47 60.6721C226.675 61.1854 226.976 61.6108 227.372 61.9481C227.782 62.2708 228.288 62.4321 228.89 62.4321ZM239.625 51.6741C239.038 51.6741 238.562 51.4908 238.195 51.1241C237.828 50.7428 237.645 50.2954 237.645 49.7821C237.645 49.2394 237.828 48.7848 238.195 48.4181C238.562 48.0368 239.038 47.8461 239.625 47.8461C240.182 47.8461 240.652 48.0368 241.033 48.4181C241.414 48.7848 241.605 49.2394 241.605 49.7821C241.605 50.2954 241.414 50.7428 241.033 51.1241C240.652 51.4908 240.182 51.6741 239.625 51.6741ZM237.953 64.9181V53.2581H241.297V64.9181H237.953ZM249.127 53.0381C249.875 53.0381 250.491 53.1628 250.975 53.4121C251.459 53.6468 251.826 53.9034 252.075 54.1821C252.339 54.4608 252.5 54.6514 252.559 54.7541H252.735V53.2581H256.079V64.9181H252.735V63.4221H252.559C252.5 63.5248 252.339 63.7154 252.075 63.9941C251.826 64.2728 251.459 64.5368 250.975 64.7861C250.491 65.0208 249.875 65.1381 249.127 65.1381C248.262 65.1381 247.506 64.9694 246.861 64.6321C246.23 64.2801 245.702 63.8181 245.277 63.2461C244.852 62.6594 244.529 62.0068 244.309 61.2881C244.104 60.5694 244.001 59.8361 244.001 59.0881C244.001 58.3401 244.104 57.6068 244.309 56.8881C244.529 56.1694 244.852 55.5241 245.277 54.9521C245.702 54.3654 246.23 53.9034 246.861 53.5661C247.506 53.2141 248.262 53.0381 249.127 53.0381ZM250.095 55.7441C249.494 55.7441 248.988 55.9128 248.577 56.2501C248.181 56.5728 247.88 56.9908 247.675 57.5041C247.484 58.0174 247.389 58.5454 247.389 59.0881C247.389 59.6308 247.484 60.1588 247.675 60.6721C247.88 61.1854 248.181 61.6108 248.577 61.9481C248.988 62.2708 249.494 62.4321 250.095 62.4321C250.696 62.4321 251.195 62.2708 251.591 61.9481C252.002 61.6108 252.302 61.1854 252.493 60.6721C252.698 60.1588 252.801 59.6308 252.801 59.0881C252.801 58.5454 252.698 58.0174 252.493 57.5041C252.302 56.9908 252.002 56.5728 251.591 56.2501C251.195 55.9128 250.696 55.7441 250.095 55.7441Z" fill="white"/>
</svg>
