<svg xmlns="http://www.w3.org/2000/svg" viewBox="0 0 31.27 31.27"><defs><style>.cls-1{fill:#fff;}</style></defs><g id="Layer_2" data-name="Layer 2"><g id="MENU_HOME_MOB." data-name="MENU HOME MOB."><rect class="cls-1" width="31.27" height="31.27" rx="15.63"/><path d="M12.69,20.77V12.63H10v8.14Zm-1.35-9.25a1.41,1.41,0,1,0,0-2.81,1.41,1.41,0,1,0,0,2.81Zm2.85,9.25H16.9V16.23a1.65,1.65,0,0,1,.09-.66,1.47,1.47,0,0,1,1.38-1c1,0,1.37.74,1.37,1.84v4.35h2.71V16.1c0-2.5-1.34-3.66-3.11-3.66a2.72,2.72,0,0,0-2.46,1.37h0V12.63H14.19c0,.77,0,8.14,0,8.14Z"/></g></g></svg>