<svg xmlns="http://www.w3.org/2000/svg" viewBox="0 0 134.67 40.58"><defs><style>.cls-1{fill:#333;fill-rule:evenodd;}</style></defs><g id="Layer_2" data-name="Layer 2"><g id="DESKTOP"><path class="cls-1" d="M83.55,31.74c-7.83,5.77-19.17,8.84-28.94,8.84A52.39,52.39,0,0,1,19.26,27.1c-.73-.66-.08-1.57.8-1.05a71.25,71.25,0,0,0,35.37,9.38,70.39,70.39,0,0,0,27-5.52C83.73,29.35,84.84,30.78,83.55,31.74Z"/><path class="cls-1" d="M86.8,28c-1-1.28-6.61-.61-9.14-.3-.76.09-.88-.58-.19-1.06,4.48-3.15,11.82-2.24,12.67-1.19s-.23,8.42-4.42,11.93c-.65.54-1.26.25-1-.46C85.69,34.58,87.8,29.3,86.8,28Z"/><path class="cls-1" d="M77.84,4.43v-3A.76.76,0,0,1,78.62.6h13.7a.77.77,0,0,1,.79.77V4a4.38,4.38,0,0,1-1,1.93L85,16.05a15.15,15.15,0,0,1,7.81,1.68,1.39,1.39,0,0,1,.73,1.19v3.26c0,.45-.49,1-1,.7a15.78,15.78,0,0,0-14.48,0c-.47.25-1-.26-1-.71V19.1a3.67,3.67,0,0,1,.51-2.1L85.79,5.2H78.63A.76.76,0,0,1,77.84,4.43Z"/><path class="cls-1" d="M27.87,23.52H23.7a.78.78,0,0,1-.75-.7V1.43a.78.78,0,0,1,.8-.77h3.88a.78.78,0,0,1,.76.72V4.17h.08A5.5,5.5,0,0,1,34,.21c2.61,0,4.24,1.26,5.41,4A6.15,6.15,0,0,1,50,2.55C51.28,4.35,51,7,51,9.25v13.5a.78.78,0,0,1-.8.77H46a.77.77,0,0,1-.74-.76V11.42a28.06,28.06,0,0,0-.12-4,2.18,2.18,0,0,0-2.45-1.85,2.77,2.77,0,0,0-2.49,1.76,12.89,12.89,0,0,0-.39,4.1V22.75a.79.79,0,0,1-.81.77H34.87a.77.77,0,0,1-.75-.76V11.42c0-2.39.39-5.9-2.57-5.9s-2.88,3.42-2.88,5.9V22.75A.78.78,0,0,1,27.87,23.52Z"/><path class="cls-1" d="M104.9.21c6.19,0,9.53,5.31,9.53,12.06,0,6.53-3.69,11.71-9.53,11.71-6.07,0-9.38-5.32-9.38-11.93S98.87.21,104.9.21Zm0,4.36c-3.07,0-3.27,4.19-3.27,6.8s0,8.19,3.23,8.19,3.39-4.5,3.39-7.24a19.66,19.66,0,0,0-.63-5.68A2.61,2.61,0,0,0,104.94,4.57Z"/><path class="cls-1" d="M122.45,23.52H118.3a.77.77,0,0,1-.75-.76V1.36a.78.78,0,0,1,.8-.7h3.86a.77.77,0,0,1,.74.6V4.53H123c1.17-2.93,2.8-4.32,5.68-4.32a5.47,5.47,0,0,1,4.87,2.52c1.09,1.71,1.09,4.59,1.09,6.66V22.85a.79.79,0,0,1-.8.67h-4.18a.76.76,0,0,1-.74-.67V11.24c0-2.34.27-5.77-2.61-5.77a2.74,2.74,0,0,0-2.41,1.71,9.44,9.44,0,0,0-.66,4.06V22.75A.8.8,0,0,1,122.45,23.52Z"/><path class="cls-1" d="M66.92,13.31a8.16,8.16,0,0,1-.78,4.42,3.39,3.39,0,0,1-2.89,1.89c-1.59,0-2.53-1.21-2.53-3,0-3.55,3.18-4.19,6.2-4.19Zm4.2,10.16a.86.86,0,0,1-1,.1,10.06,10.06,0,0,1-2.39-2.78c-2.29,2.33-3.91,3-6.87,3-3.51,0-6.24-2.17-6.24-6.5a7.08,7.08,0,0,1,4.44-6.81c2.26-1,5.42-1.17,7.84-1.44V8.53a5.31,5.31,0,0,0-.51-3,2.79,2.79,0,0,0-2.34-1.08,3.18,3.18,0,0,0-3.35,2.5.87.87,0,0,1-.72.77l-4-.44a.73.73,0,0,1-.62-.87C56.27,1.48,60.69,0,64.66,0c2,0,4.68.54,6.28,2.08C73,4,72.77,6.5,72.77,9.25v6.49a5.67,5.67,0,0,0,1.57,3.86.78.78,0,0,1,0,1.11c-.85.72-2.37,2-3.2,2.77Z"/><path class="cls-1" d="M12.28,13.31a8.16,8.16,0,0,1-.78,4.42,3.37,3.37,0,0,1-2.88,1.89c-1.6,0-2.54-1.21-2.54-3,0-3.55,3.19-4.19,6.2-4.19Zm4.2,10.16a.86.86,0,0,1-1,.1,10.06,10.06,0,0,1-2.39-2.78c-2.29,2.33-3.91,3-6.87,3C2.73,23.82,0,21.65,0,17.32a7.08,7.08,0,0,1,4.44-6.81c2.27-1,5.42-1.17,7.84-1.44V8.53a5.39,5.39,0,0,0-.5-3A2.82,2.82,0,0,0,9.44,4.42a3.17,3.17,0,0,0-3.35,2.5.89.89,0,0,1-.73.77l-4-.44A.73.73,0,0,1,.7,6.38C1.63,1.48,6.05,0,10,0c2,0,4.68.54,6.28,2.08,2,1.89,1.83,4.42,1.83,7.17v6.49A5.67,5.67,0,0,0,19.7,19.6a.78.78,0,0,1,0,1.11c-.85.72-2.36,2-3.2,2.77Z"/></g></g></svg>