<svg xmlns="http://www.w3.org/2000/svg" viewBox="0 0 129.09 42.01"><defs><style>.cls-1{fill:#333;}</style></defs><g id="Layer_2" data-name="Layer 2"><g id="DESKTOP"><path class="cls-1" d="M3.77,17.39C7.47,10.54,13.87,3.06,21.43.56c1.56-.39,3.62-.82,5,.24a3.71,3.71,0,0,1,1.11,3.86c-.36,1.65-1.5,3.74-3.39,4a1.11,1.11,0,0,1-.85-.36A2,2,0,0,1,23,6.5a3.88,3.88,0,0,1,2.92-2.89c.24-.15.14-.44.07-.65a1.13,1.13,0,0,0-.74-.58c-1.52-.17-2.67.78-3.83,1.57A45.64,45.64,0,0,0,11.07,16.6,36.19,36.19,0,0,0,6.45,29.68c-.27,3.46.83,6.85,3.91,8.52,3.33,1.76,7.65.57,11-.34l3.07-.94,5.9-1.76c5.6-1.63,12.61-2,18.07.17,3.3,1.37,6.71,3.26,8.86,6.51,0,.08,0,.18-.1.17-4.69-1.28-10.78-2.55-15.43-.33l-.22,0a9.31,9.31,0,0,0-6.23-4c-7.87-.76-14.34,3-21.74,3.9-3.76.35-7.78.23-10.39-2.64C-1,34.76-.5,27.49,1.46,22.52A41.3,41.3,0,0,1,3.77,17.39Z"/><path class="cls-1" d="M14.63,19.85c2-3.59,5-8,9.11-9.29a3.55,3.55,0,0,1,3.15.59c1.78,1.78,1.09,4.83.48,6.92a.31.31,0,0,0,.22.28,6.07,6.07,0,0,0,4-1.88c2.46-2.76,5.1-6.36,9.1-5.94a2.58,2.58,0,0,1,1.87,1.25c1,2,0,4.25-1.36,5.79a2,2,0,0,1-2,.66,1.18,1.18,0,0,1-.68-.72A3.43,3.43,0,0,1,40.26,14c.32-.32,1.31-.1,1-.83a.91.91,0,0,0-.83-.33c-1.95.82-3.22,2.81-4.35,4.47a28.92,28.92,0,0,0-3.33,7.1,4,4,0,0,0,.06,2.91,1.58,1.58,0,0,0,1.7.59,14.77,14.77,0,0,0,5.09-3.9C43,20,44.81,15,49.32,11.7c1.4-1,3.38-1.71,5.06-.81.28.1.5.46.84.32s.46-.85,1-.71c1.24,0,2.67,0,4,.08l.09.12-.36.87-7,14.23a.86.86,0,0,0,0,.53.46.46,0,0,0,.56.12,9.63,9.63,0,0,0,2.5-2.55,18.2,18.2,0,0,0,1.61-2.67c.19-.28.41-.61.79-.56s.88-.12,1.17.16a26.78,26.78,0,0,1-1.77,3.4c-1.9,2.92-4.38,6.32-7.88,7.2a2.15,2.15,0,0,1-1.74-.31c-.68-.52-.71-1.34-.89-2.07a.26.26,0,0,0-.29-.07c-1.49,1.34-3,2.68-5.13,2.42a2.32,2.32,0,0,1-1.54-1.25c-.54-1-.28-2.39-.31-3.55-.06-.13-.23-.08-.29,0-2.28,2.24-4.74,4.26-7.76,4.83a4,4,0,0,1-3.54-1.24c-2.26-3-.47-6.84.71-9.71.06-.14,0-.33-.13-.36-.82.06-1.6.2-2.39.31l-.27.31c-1.84,3.4-3.83,7-7.13,9.54-1.36,1-3.4,1.66-5,.75-1.67-1.15-1.82-3.2-1.61-5.09A24.44,24.44,0,0,1,14.63,19.85Zm5.22-.17a14.51,14.51,0,0,0-2,6.2,1.3,1.3,0,0,0,.83,1A1.64,1.64,0,0,0,20,26.54a18.27,18.27,0,0,0,4.25-5.82c.09-.2.24-.46.12-.68a8.48,8.48,0,0,1-3.08-2.19l-.18,0c-.17,0-.24.2-.36.32Zm2.93-3.94A2.9,2.9,0,0,0,24.7,18c.22.07.58.25.77,0a8.76,8.76,0,0,0,.72-2.07c.17-.94.31-2.2-.59-2.82a1.3,1.3,0,0,0-1.09,0A3,3,0,0,0,22.78,15.74Zm23.09,7.94a4.73,4.73,0,0,0-.39,2.7.76.76,0,0,0,.48.38c.77,0,1.28-.68,1.78-1.22a56.32,56.32,0,0,0,5.5-9.87,6.13,6.13,0,0,0,.66-2.18c0-.17-.19-.29-.32-.37-.34-.16-.67.08-.94.21-3,2.33-4.66,5.67-6.17,8.83Z"/><path class="cls-1" d="M60.44,14.93a35.57,35.57,0,0,1,2.08-4,1.91,1.91,0,0,1,1.33-.41l3.35,0,.14.13a42.37,42.37,0,0,1-1.89,4,1.3,1.3,0,0,1-.92.71,37.53,37.53,0,0,1-4.11,0C60.28,15.27,60.4,15.08,60.44,14.93Z"/><path class="cls-1" d="M63.81,21.74a50.82,50.82,0,0,1,9.13-13.6c3.87-3.86,8-7,13.12-7.94a5,5,0,0,1,4,.87.74.74,0,0,0,.73.24c3.63-1.45,8.68-2,12.32-.14a68.66,68.66,0,0,1,6.15,3.62c.25.13.13.4,0,.56-1.16,1.29-2.14,2.62-3.18,4a.36.36,0,0,1-.43,0l-5.35-3.69c-2.5-1.69-5.38-2.88-8.64-2.34-.36.18-.19.63-.24,1a16.3,16.3,0,0,1-2.72,8.9c-1.29,1.86-2.78,3.79-5,4.42a2.37,2.37,0,0,1-2.46-.86c-1.59-2.43-.18-5.39,1-7.55A21.5,21.5,0,0,1,87.89,2.9c0-.08.16-.17.09-.27-.22-.22-.6-.09-.87,0C83.47,3.81,80.57,7,77.88,10.06a55.44,55.44,0,0,0-10.5,19.33c-.64,2.64-1.51,6.7,1.18,8.55,2.36,1.27,4.64-.36,6.42-1.89a19,19,0,0,0,5.26-9.53c.13-1.07.42-2.54-.57-3.27-.88-.4-1.62.33-2.22.94A10.65,10.65,0,0,0,75.24,30c-.62.51-1.35.83-2,1.32a18.47,18.47,0,0,0-3.42,3.13c-.12,0-.14-.11-.17-.17a16.55,16.55,0,0,1,3.44-10.39c1.73-2,4-3.72,6.64-3.08a3.4,3.4,0,0,1,2.18,2.67c.43,3.71-1.14,7-2.82,10-2.71,4.26-7,8.55-12.4,8A6,6,0,0,1,61.79,38c-2-4.08-.63-9.32.75-13.27Zm18.43-7A1.26,1.26,0,0,0,83,15.83c.92.26,1.65-.42,2.33-.95a15.43,15.43,0,0,0,4.35-9.07c0-.51.17-1.16-.12-1.6a.84.84,0,0,0-.59.16,17.13,17.13,0,0,0-4.35,4.35A11.72,11.72,0,0,0,82.24,14.7Z"/><path class="cls-1" d="M85.7,26.27c2-2.6,4.59-5.44,7.89-5.65a2.55,2.55,0,0,1,2.08,1.06c1.41,2.09.22,4.76-.3,6.87a.33.33,0,0,0,.22.38,3.66,3.66,0,0,0,2.07-.3l.25-.32A79.13,79.13,0,0,1,108,9.23c2.62-3.47,6-7,9.87-8.73.92-.32,2.25-.71,3.13,0s.71,2.2.45,3.27c-.1,1-1.16,1.06-1.86,1.28,0,0-.07,0-.1,0A10.74,10.74,0,0,1,120,3.24a1.65,1.65,0,0,0,0-.91c-.17-.3-.55-.2-.8-.12a11.74,11.74,0,0,0-3.39,3,69.27,69.27,0,0,0-9,14.11c-.82,1.71-1.68,3.39-2.35,5.16a.22.22,0,0,0,.1.24c.58,0,.92-.61,1.37-.92a60,60,0,0,0,8.49-10,5,5,0,0,1,1.75-.3l.12,0c0,.48-.44.85-.67,1.27a65.63,65.63,0,0,1-9.75,11.31L103,28.39c-.58.51-.6,1.29-.9,1.94A21.55,21.55,0,0,0,101,35.8a1,1,0,0,0,.41.8c.73.33,1.31-.37,1.82-.84,3.75-4.34,5.41-9.65,10-13.54,1.5-1.19,3.48-2.2,5.42-1.31.34.12.6.56,1,.36s.31-.66.72-.64c1.34,0,2.78-.06,4.07,0,.12.11,0,.28,0,.4l-.93,1.87-5.73,11.57a3.62,3.62,0,0,0-.57,1.69c.08.25.36.27.58.22a8.12,8.12,0,0,0,2.57-2.58c.7-1,1.26-2,1.93-3a2.4,2.4,0,0,1,1.25,0c.23.23-.07.51-.12.77-1.69,3.49-4,7.3-7.71,9.23a3.35,3.35,0,0,1-3,.3c-.74-.52-.67-1.45-1-2.17a.26.26,0,0,0-.32,0c-1.53,1.36-3.17,2.89-5.3,2.3-1.32-.62-1.47-2.15-1.57-3.46-.07,0,0-.16-.12-.21l-.17.07c-1.49,1.78-3.37,4-5.88,3.8a2.71,2.71,0,0,1-2.07-1.85c-.88-2.78,0-5.83.68-8.5a.38.38,0,0,0-.31-.33l-2.1,0-.34.39a29.58,29.58,0,0,1-5.91,8.48c-1.4,1.24-3.13,2.28-5,1.71-1.6-.69-2-2.43-2-4.07C81.58,33.09,83.44,29.6,85.7,26.27Zm.55,9.26a1.44,1.44,0,0,0,.91,1.36,1.53,1.53,0,0,0,1.16-.2c2-1.46,3.13-3.7,4.2-5.74.1-.21.19-.53-.09-.69A10.06,10.06,0,0,1,89.61,28,.36.36,0,0,0,89.2,28a18.3,18.3,0,0,0-1.73,3.16A11.08,11.08,0,0,0,86.25,35.53ZM91.19,26A2.84,2.84,0,0,0,93,28.32c.19.07.53.16.66-.08a7.43,7.43,0,0,0,.84-4.38,1.36,1.36,0,0,0-.8-.84,1.63,1.63,0,0,0-1.09.17A3.36,3.36,0,0,0,91.19,26ZM110,35.06c0,.5-.16,1.11.21,1.49a.81.81,0,0,0,.79.14,7.29,7.29,0,0,0,2.27-2.48,59.94,59.94,0,0,0,5-10.1c0-.3.14-.73-.15-.93-.83-.4-1.48.52-2.1,1-2.72,2.7-4.16,6-5.52,9.25Z"/><path class="cls-1" d="M114,9.64l1.82-2.34.27-.24c5.25-.1,9.35-3.22,13-6.91a4.35,4.35,0,0,1-.42,1.4c-2.42,5.7-8.3,10.71-14.66,10.79l-1.5,0c-.27-.06-.08-.34,0-.47Z"/><path class="cls-1" d="M120.57,39.74A1.23,1.23,0,1,1,121.8,41,1.22,1.22,0,0,1,120.57,39.74Zm1.23,1.51a1.51,1.51,0,1,0-1.53-1.51A1.5,1.5,0,0,0,121.8,41.25Zm-.32-1.39h.3l.46.75h.3l-.5-.76a.45.45,0,0,0,.45-.48c0-.34-.2-.49-.61-.49h-.66v1.73h.26Zm0-.22V39.1h.36c.18,0,.38,0,.38.25s-.2.29-.42.29Z"/></g></g></svg>