<svg xmlns="http://www.w3.org/2000/svg" viewBox="0 0 127.07 63.95"><defs><style>.cls-1{fill:#333;fill-rule:evenodd;}</style></defs><g id="Layer_2" data-name="Layer 2"><g id="DESKTOP"><path class="cls-1" d="M55.58,19.42c-1.46,0-1.95,3.06-1.95,8,0,5.27-.51,9.26,2.11,9.26,1.24,0,1.77-.84,1.73-2.11-.21-6.88.68-15.1-1.89-15.1Z"/><path class="cls-1" d="M77.43,19.83c0-.72-3.29-1.31-5.09-1.31-3.18,0-13,.9-13,5.58,0,3,3.92,2.71,7.71,2.71,3.44,0,7.06.73,7.16,2.76.1,2.19-4,3.29-9.12,3.29-1.57,0-2.9-.58-2.9-1.75,0-.73.58-1.11,1.47-1.11,1.66,0,3.18,1.11,5.12,1.11s3.32-.64,3.32-1.4c0-1.45-5.84-1.48-7.82-1.48-2.42,0-3.59,1.63-3.59,2.88,0,1.75,2.34,5.19,8.33,5.19,3.74,0,8-1.75,8-6.08,0-4.57-4.45-5.45-7.6-5.45-1.38,0-6.24-.13-6.24-1.07,0-2.29,14.23-.48,14.23-3.87Z"/><path class="cls-1" d="M80.49,36.16c-1.31,0-2.25-2.22-2.25-3.9C78.24,31,79.3,20,81.82,20c2.15,0,6.57,9.5,7.6,9.5.75,0,.57-2.42.11-4.76-.69-3.47-1.85-7.1-1.85-7.3,0-.37-.09-1.12.56-1.12,1.65,0,5,5.61,5,11.36,0,2-.62,7.1-3.62,7.1-2.74,0-5.93-9.07-6.84-9.07s-1,6.86-1,7.47,0,3-1.32,3Z"/><path class="cls-1" d="M96.13,28.59c-.39-.17-.47-.67-.47-1.31a1.58,1.58,0,0,1,1.47-1.59c.53-1.5.83-2.62,1.07-3.37a4.43,4.43,0,0,1-.54,0c-1.64-.18-1.74-.88-2.14-1.92-.26-.7,9.11-2,10.84-2a2.81,2.81,0,0,1,2.53,1.08c.37.37,1.07,1,1.07,1.54s-.89,1.35-2.1,1.45c-1.46.12-4.08.14-6.06.09-.12.47-.44,1.44-.9,2.91,1.95-.11,4.12-.22,4.57-.19.83,0,1.39.24,1.34,1.41s-.39,1.34-1.54,1.55c-.46.08-3.07.22-5.34.32-.49,1.6-.78,2.34-.82,2.48-.21.76.14,1.4.52,1.4s5.42-1.27,6.26-1.27,1.37.92,1.37,1.76-4.83,4.38-8.1,4.38-4.26-3.84-4.26-4.91a25.78,25.78,0,0,1,1.23-3.77Z"/><path class="cls-1" d="M19.93,23.47l-.1,10.91c-7-2.46-11.16-6.79-11.16-8.13,0-1.69,6.05-2.48,11.26-2.78l.1-3.68c-6.49,1.06-12.38,3.59-12.38,6.32,0,2.38,5.41,7.72,12.22,11,.14,2.85.65,4.14,2.25,4.14s2-.5,2.1-2.46a21.61,21.61,0,0,0,6.53,1.1c11.27,0,20.48-5.45,20.48-14.54C51.23,14.65,35.1,0,10.33,0,4.65,0,1.55,1.73,1.19,2.38.94,2.85,0,4,0,4.33c0,.91,1.75,1.23,2.16,1.23,1.16,0,1.71-.5,1.71-.8,0-.75-1.71-.51-1.71-1.14,0-1,4.18-1.41,7.69-1.36,18.1.26,36.75,12.27,36.75,23,0,6.8-7.57,10.8-16.36,10.8a29.71,29.71,0,0,1-6.06-.55c-.06-1.92-.16-4.44-.16-7.77,0-1.61,0-3.08-.06-4.48h.9c3.15,0,11.27.44,11.27,2.32,0,1.33-1.53,1.7-1.53,2.58,0,.3,0,.46,1.6.46,2,0,3.46-2.48,3.46-3.77,0-4.16-8.27-5.64-13.48-5.64-.74,0-1.49.05-2.26.1-.2-5.26-.74-8.24-2.26-8.24-.93,0-1.43,3.41-1.63,8.68l-.1,3.68Z"/><path class="cls-1" d="M58.29,6.14l0,0a8.78,8.78,0,0,0-1.66-.25c-1.65-.12-4.5,2.6-4.63,4.41a1.44,1.44,0,0,0,.29,1,18.07,18.07,0,0,1,6-5.09Zm-7.51,7.68a4.62,4.62,0,0,1-1.19-3.3C49.86,6.76,55.92,3,60.13,3.26c2.1.14,3.39.94,3.35,1.64l.52,0A2.92,2.92,0,0,1,66.76,8.3c-.17,2.46-5.87,8.26-11.05,7.9a7.51,7.51,0,0,1-2.19-.48c-.55,1-1,1.43-1.58,1.39-.93-.06-1.3-1.36-1.16-3.29Zm3.94-.88a5.72,5.72,0,0,0,1.66.4c3.31.23,7.83-2,8.05-5.15.06-.89-.52-1.3-1.45-1.37-2-.14-7,3.63-8.26,6.12Z"/><path class="cls-1" d="M116.68,32.24a3.6,3.6,0,0,0,.71.11c2.52.09,7.41-2.2,7.58-7.19,0-1.12-.3-2.07-.86-2.09s-3.54,1.71-7.43,9.17l-3.36-2.76c3.85-6,8.49-9.88,10.65-9.8,1.4.05,3.18,3.48,3.1,5.65-.27,7.71-7.71,11.24-11.44,11.11a3.08,3.08,0,0,1-.92-.27A39.21,39.21,0,0,0,113,40.94c3.88.26,7.6.56,11.1.85,2.74.25,1.25,1.5-.25,1.5-.36,0-4.75-.24-11.39-.27-1.25,5.31-1.06,9-2,9s-3.29-2.41-3.23-3.95a32.38,32.38,0,0,1,.58-5.06c-22.42.19-61.73,2.83-73.75,18-1.49,3-2.86,3.36-4.61,2.62s-2.37-4.87-.62-7.11C46.7,40.3,80.67,39.16,108.38,40.67a39.4,39.4,0,0,1,2.77-7.37,6.63,6.63,0,0,1-1.32-4c.18-5.11,5.27-10.9,6.41-10.86.5,0,.48.3.46.81C116.64,21,113.05,25.81,113,28a3.1,3.1,0,0,0,.35,1.48l3.36,2.76Z"/></g></g></svg>