<svg xmlns="http://www.w3.org/2000/svg" viewBox="0 0 20.99 20.99"><defs><style>.cls-1{fill:#00b56f;}</style></defs><g id="Layer_2" data-name="Layer 2"><g id="HOME_DESKTOP" data-name="HOME DESKTOP"><path class="cls-1" d="M7,10.5A3.5,3.5,0,1,1,10.5,14,3.49,3.49,0,0,1,7,10.5m-1.89,0A5.39,5.39,0,1,0,10.5,5.11,5.38,5.38,0,0,0,5.11,10.5m9.73-5.61a1.26,1.26,0,1,0,2.52,0,1.26,1.26,0,1,0-2.52,0M6.25,19a6,6,0,0,1-1.94-.36,3.26,3.26,0,0,1-1.21-.79,3.14,3.14,0,0,1-.79-1.2,6,6,0,0,1-.36-2c-.05-1.11-.06-1.44-.06-4.24s0-3.14.06-4.25A6.1,6.1,0,0,1,2.31,4.3,3.22,3.22,0,0,1,3.1,3.1a3.18,3.18,0,0,1,1.21-.79A6,6,0,0,1,6.25,2c1.11-.05,1.44-.06,4.25-.06s3.13,0,4.24.06a6,6,0,0,1,2,.36,3.14,3.14,0,0,1,1.2.79,3.14,3.14,0,0,1,.79,1.2,6,6,0,0,1,.36,2c.05,1.11.06,1.44.06,4.25s0,3.13-.06,4.24a6,6,0,0,1-.36,2,3.56,3.56,0,0,1-2,2,6,6,0,0,1-2,.36c-1.11.05-1.44.06-4.24.06s-3.14,0-4.25-.06M6.17.06A7.67,7.67,0,0,0,3.62.55,5.28,5.28,0,0,0,1.76,1.76,5.19,5.19,0,0,0,.55,3.62,7.67,7.67,0,0,0,.06,6.17C0,7.29,0,7.65,0,10.5s0,3.2.06,4.32a7.67,7.67,0,0,0,.49,2.55,5.36,5.36,0,0,0,3.07,3.07,7.67,7.67,0,0,0,2.55.49C7.29,21,7.65,21,10.5,21s3.2,0,4.32-.06a7.67,7.67,0,0,0,2.55-.49,5.28,5.28,0,0,0,1.86-1.21,5.19,5.19,0,0,0,1.21-1.86,7.67,7.67,0,0,0,.49-2.55C21,13.7,21,13.35,21,10.5s0-3.21-.06-4.33a7.67,7.67,0,0,0-.49-2.55,5.28,5.28,0,0,0-1.21-1.86A5.19,5.19,0,0,0,17.37.55,7.67,7.67,0,0,0,14.82.06C13.7,0,13.35,0,10.5,0S7.29,0,6.17.06"/></g></g></svg>