<svg xmlns="http://www.w3.org/2000/svg" viewBox="0 0 300.77 50.41"><defs><style>.cls-1{fill:#ffb600;}.cls-2{fill:#ff4502;}.cls-3{fill:#8000ed;}.cls-4{fill:#00b56f;}</style></defs><g id="Layer_2" data-name="Layer 2"><g id="HOME_DESKTOP" data-name="HOME DESKTOP"><path d="M85.14,41.26a16.59,16.59,0,0,1-6.07-1,12.14,12.14,0,0,1-4.55-3,13.06,13.06,0,0,1-2.85-4.83,19.59,19.59,0,0,1-1-6.45,19.06,19.06,0,0,1,1-6.4,13.3,13.3,0,0,1,2.88-4.82,12.51,12.51,0,0,1,4.55-3,17.84,17.84,0,0,1,12.06,0,12.64,12.64,0,0,1,4.56,3,13.28,13.28,0,0,1,2.87,4.82,19.06,19.06,0,0,1,1,6.4,19.59,19.59,0,0,1-1,6.45,13.18,13.18,0,0,1-2.84,4.83,12.26,12.26,0,0,1-4.56,3A16.55,16.55,0,0,1,85.14,41.26Zm0-6.34A5.57,5.57,0,0,0,90,32.57a11.33,11.33,0,0,0,1.69-6.65,15.09,15.09,0,0,0-.44-3.78,8.15,8.15,0,0,0-1.28-2.82,5.82,5.82,0,0,0-2-1.76A5.91,5.91,0,0,0,85.14,17a6,6,0,0,0-2.76.61,5.7,5.7,0,0,0-2,1.76,8.53,8.53,0,0,0-1.27,2.82,15.09,15.09,0,0,0-.44,3.78,11.3,11.3,0,0,0,1.68,6.66A5.58,5.58,0,0,0,85.14,34.92Z"/><path d="M120.15,10.77a11.64,11.64,0,0,1,5,1,10.18,10.18,0,0,1,3.77,3,13.69,13.69,0,0,1,2.38,4.77,22.56,22.56,0,0,1,.83,6.37,23,23,0,0,1-.81,6.38A13.56,13.56,0,0,1,129,37.05a10.51,10.51,0,0,1-3.74,3,11.43,11.43,0,0,1-4.94,1,10.91,10.91,0,0,1-5.47-1.31,8,8,0,0,1-3.4-3.65h-.48V50.37h-7.75V10.66h7.51v5.41h.48a8.83,8.83,0,0,1,1.51-2.21,9.34,9.34,0,0,1,4.58-2.73A11.33,11.33,0,0,1,120.15,10.77ZM117.51,34.6a6.51,6.51,0,0,0,2.81-.58,5.57,5.57,0,0,0,2.09-1.71,8.1,8.1,0,0,0,1.31-2.72,13.71,13.71,0,0,0,.45-3.67,13.38,13.38,0,0,0-.45-3.62,8.16,8.16,0,0,0-1.32-2.71,5.94,5.94,0,0,0-2.09-1.72,6.23,6.23,0,0,0-2.77-.6,6.34,6.34,0,0,0-2.79.6,5.89,5.89,0,0,0-2.1,1.72,7.91,7.91,0,0,0-1.33,2.73,13,13,0,0,0-.47,3.63,12.92,12.92,0,0,0,.47,3.62,8,8,0,0,0,1.33,2.72A6,6,0,0,0,114.74,34,6.36,6.36,0,0,0,117.51,34.6Z"/><path d="M161.92,32.26A10.43,10.43,0,0,1,160.33,36a10.59,10.59,0,0,1-2.86,2.84,13.49,13.49,0,0,1-4,1.8,18.92,18.92,0,0,1-5,.62,16.55,16.55,0,0,1-6-1,12.13,12.13,0,0,1-4.47-3,12.79,12.79,0,0,1-2.79-4.78,19.77,19.77,0,0,1-1-6.39,19.91,19.91,0,0,1,1-6.45,13.4,13.4,0,0,1,2.81-4.86,12.23,12.23,0,0,1,4.44-3.08,15.3,15.3,0,0,1,5.89-1.08,15.71,15.71,0,0,1,5.8,1,11.72,11.72,0,0,1,4.33,2.92,12.84,12.84,0,0,1,2.71,4.66,19.49,19.49,0,0,1,.93,6.24v2.37H142v.4a8.77,8.77,0,0,0,.52,3,6.53,6.53,0,0,0,1.36,2.22A5.53,5.53,0,0,0,146,34.8a7.23,7.23,0,0,0,2.74.5,8.32,8.32,0,0,0,3.85-.79,4.37,4.37,0,0,0,2.14-2.25Zm-13.5-15.71a6.6,6.6,0,0,0-2.48.45,5.89,5.89,0,0,0-2,1.28,6.29,6.29,0,0,0-1.34,2,7.87,7.87,0,0,0-.61,2.6h12.51a6.85,6.85,0,0,0-1.76-4.62A5.75,5.75,0,0,0,148.42,16.55Z"/><path d="M165.77,10.66h7.51V16h.48A8.21,8.21,0,0,1,177,12a9.83,9.83,0,0,1,5.47-1.43q4.89,0,7.47,2.88c1.71,1.92,2.57,4.63,2.57,8.15v19h-7.75V23.47a7,7,0,0,0-1.32-4.62,5.05,5.05,0,0,0-4.09-1.55,6.18,6.18,0,0,0-2.42.45A5.16,5.16,0,0,0,175.07,19a5.64,5.64,0,0,0-1.15,2,8.11,8.11,0,0,0-.4,2.63V40.62h-7.75Z"/><path d="M196.55,4.27h7.74v6.39h6.1v7h-6.1V30.85a3.85,3.85,0,0,0,.91,2.82,3.94,3.94,0,0,0,2.9.91c.52,0,.93,0,1.25,0s.67,0,1-.08v5.91q-.72.13-1.74.24a21.18,21.18,0,0,1-2.15.11,20.08,20.08,0,0,1-4.58-.45,7.66,7.66,0,0,1-3.08-1.43,5.63,5.63,0,0,1-1.75-2.49,11,11,0,0,1-.54-3.67Z"/><path d="M240.31,32.26A10.59,10.59,0,0,1,238.73,36a10.73,10.73,0,0,1-2.86,2.84,13.61,13.61,0,0,1-4,1.8,19.06,19.06,0,0,1-5,.62,16.54,16.54,0,0,1-6-1,12,12,0,0,1-4.47-3,12.81,12.81,0,0,1-2.8-4.78,19.77,19.77,0,0,1-1-6.39,20.19,20.19,0,0,1,1-6.45,13.54,13.54,0,0,1,2.81-4.86,12.35,12.35,0,0,1,4.45-3.08,15.27,15.27,0,0,1,5.89-1.08,15.74,15.74,0,0,1,5.8,1,11.8,11.8,0,0,1,4.33,2.92,12.69,12.69,0,0,1,2.7,4.66,19.49,19.49,0,0,1,.93,6.24v2.37H220.39v.4a8.77,8.77,0,0,0,.52,3,6.53,6.53,0,0,0,1.36,2.22,5.69,5.69,0,0,0,2.09,1.41,7.27,7.27,0,0,0,2.74.5,8.3,8.3,0,0,0,3.85-.79,4.39,4.39,0,0,0,2.15-2.25Zm-13.5-15.71a6.54,6.54,0,0,0-2.47.45,5.89,5.89,0,0,0-2,1.28,6.32,6.32,0,0,0-1.35,2,8.13,8.13,0,0,0-.61,2.6h12.52a6.9,6.9,0,0,0-1.76-4.62A5.76,5.76,0,0,0,226.81,16.55Z"/><path d="M262.91,21.61a5.75,5.75,0,0,0-1.86-3.37,5.89,5.89,0,0,0-4-1.26,5.64,5.64,0,0,0-4.83,2.26q-1.69,2.27-1.7,6.63t1.7,6.72a5.61,5.61,0,0,0,4.83,2.31A6.3,6.3,0,0,0,261,33.77a5.36,5.36,0,0,0,1.94-3.32h7.24a12.73,12.73,0,0,1-1.23,4.47,10.55,10.55,0,0,1-2.68,3.41,11.86,11.86,0,0,1-4,2.17,16.4,16.4,0,0,1-5.18.76,17.05,17.05,0,0,1-6.11-1,11.77,11.77,0,0,1-4.5-3,12.94,12.94,0,0,1-2.79-4.82,20.84,20.84,0,0,1-1-6.56,20.64,20.64,0,0,1,.94-6.5,12.74,12.74,0,0,1,2.78-4.79,11.94,11.94,0,0,1,4.52-3,17.28,17.28,0,0,1,6.11-1,16.71,16.71,0,0,1,5.23.77,11.72,11.72,0,0,1,4,2.21,10.85,10.85,0,0,1,2.64,3.48,13.17,13.17,0,0,1,1.22,4.54Z"/><path d="M273.74,0h7.61v16h.48a8,8,0,0,1,3.32-4,10.32,10.32,0,0,1,5.55-1.43,11.65,11.65,0,0,1,4.23.73,8.53,8.53,0,0,1,3.17,2.13,9.38,9.38,0,0,1,2,3.47,15.05,15.05,0,0,1,.68,4.7v18.9H293V23.55a6.83,6.83,0,0,0-1.37-4.62,5.09,5.09,0,0,0-4-1.55,6.76,6.76,0,0,0-2.59.46,5.33,5.33,0,0,0-1.92,1.31,5.5,5.5,0,0,0-1.2,2,7.69,7.69,0,0,0-.41,2.61V40.62h-7.75Z"/><path class="cls-1" d="M50.41,24.48h0V11.11h0A11.13,11.13,0,0,1,39.29,0H25.92A24.49,24.49,0,0,0,50.41,24.48Z"/><path class="cls-2" d="M.1,25.82H0V39.19H.1A11.13,11.13,0,0,1,11.21,50.31v.1H24.58s0-.07,0-.1A24.49,24.49,0,0,0,.1,25.82Z"/><path class="cls-3" d="M25.92,50.31s0,.06,0,.1H39.3s0-.07,0-.1A11.13,11.13,0,0,1,50.41,39.19h0V25.82h0A24.49,24.49,0,0,0,25.92,50.31Z"/><circle cx="25.2" cy="25.2" r="6.41"/><path class="cls-4" d="M24.59,0H11.21A11.12,11.12,0,0,1,.1,11.11H0V24.48H.1A24.49,24.49,0,0,0,24.59,0Z"/></g></g></svg>