<svg xmlns="http://www.w3.org/2000/svg" viewBox="0 0 48.24 37.06"><defs><style>.cls-1{fill:#c6c6c6;}</style></defs><g id="Layer_2" data-name="Layer 2"><g id="Capa_1" data-name="Capa 1"><path class="cls-1" d="M26.49,37.06l10-16.52a9.76,9.76,0,0,1-6.86-3.23,10.14,10.14,0,0,1-2.74-7.1,9.7,9.7,0,0,1,3-7.29A10.45,10.45,0,0,1,37.43,0a10.86,10.86,0,0,1,7.65,2.92,10.19,10.19,0,0,1,3.16,7.89,15.81,15.81,0,0,1-1.34,6,47.68,47.68,0,0,1-4.31,7.84q-3,4.55-7.72,11.11L34,37.06ZM0,37.06,10.09,20.54a9.68,9.68,0,0,1-6.93-3.23,10.27,10.27,0,0,1-2.68-7.1,9.79,9.79,0,0,1,3-7.29A10.25,10.25,0,0,1,10.94,0a10.77,10.77,0,0,1,7.71,2.92,10.29,10.29,0,0,1,3.1,7.89,15.81,15.81,0,0,1-1.34,6,49.86,49.86,0,0,1-4.25,7.84q-2.91,4.55-7.65,11.11l-1,1.34Z"/></g></g></svg>