<svg xmlns="http://www.w3.org/2000/svg" viewBox="0 0 48.79 48.79"><defs><style>.cls-1{fill:#fff;}</style></defs><g id="Layer_2" data-name="Layer 2"><g id="MOBILE"><rect width="48.79" height="48.79" rx="24.39"/><path class="cls-1" d="M33.33,13.84a.87.87,0,0,0-.43-.21,1,1,0,0,0-.48,0l-22.2,8.25h0a.91.91,0,0,0-.51.49.88.88,0,0,0,0,.71.9.9,0,0,0,.52.49l10,3.45,3.45,10a.91.91,0,0,0,.48.52.92.92,0,0,0,.71,0,.88.88,0,0,0,.49-.51l8.25-22.21a.87.87,0,0,0,0-.53.91.91,0,0,0-.27-.45ZM29.2,16.78l-8.54,8.54-7.47-2.59Zm1.27,1.27-5.95,16-2.59-7.46Z"/></g></g></svg>