<svg xmlns="http://www.w3.org/2000/svg" viewBox="0 0 74.21 11.15"><defs><style>.cls-1{fill:#ffb600;stroke:#ffb600;}.cls-1,.cls-2{stroke-linecap:round;stroke-linejoin:round;stroke-width:2.03px;}.cls-2{fill:#e0e0e0;stroke:#e0e0e0;}</style></defs><g id="Layer_2" data-name="Layer 2"><g id="HOME_DESKTOP" data-name="HOME DESKTOP"><polygon class="cls-1" points="5.81 1.02 6.94 4.5 10.61 4.5 7.64 6.65 8.78 10.14 5.81 7.98 2.85 10.14 3.98 6.65 1.02 4.5 4.68 4.5 5.81 1.02"/><polygon class="cls-1" points="21.46 1.02 22.59 4.5 26.25 4.5 23.29 6.65 24.42 10.14 21.46 7.98 18.5 10.14 19.63 6.65 16.66 4.5 20.33 4.5 21.46 1.02"/><polygon class="cls-1" points="37.1 1.02 38.24 4.5 41.9 4.5 38.94 6.65 40.07 10.14 37.1 7.98 34.14 10.14 35.27 6.65 32.31 4.5 35.97 4.5 37.1 1.02"/><polygon class="cls-1" points="52.75 1.02 53.88 4.5 57.55 4.5 54.58 6.65 55.72 10.14 52.75 7.98 49.79 10.14 50.92 6.65 47.96 4.5 51.62 4.5 52.75 1.02"/><polygon class="cls-2" points="68.4 1.02 69.53 4.5 73.19 4.5 70.23 6.65 71.36 10.14 68.4 7.98 65.44 10.14 66.57 6.65 63.6 4.5 67.27 4.5 68.4 1.02"/></g></g></svg>