<svg width="301" height="51" viewBox="0 0 301 51" fill="none" xmlns="http://www.w3.org/2000/svg">
<g clip-path="url(#clip0_1_2)">
<path d="M85.14 41.26C83.072 41.308 81.0133 40.9688 79.07 40.26C77.3456 39.6178 75.7897 38.5919 74.52 37.26C73.2314 35.8754 72.259 34.2274 71.67 32.43C70.9783 30.3511 70.6403 28.1708 70.67 25.98C70.6357 23.8052 70.9739 21.6407 71.67 19.58C72.2761 17.7867 73.2579 16.1434 74.55 14.76C75.8278 13.4378 77.3813 12.4135 79.1 11.76C82.9981 10.36 87.2619 10.36 91.16 11.76C92.8804 12.416 94.4366 13.4398 95.72 14.76C97.009 16.144 97.9875 17.7873 98.59 19.58C99.2861 21.6407 99.6243 23.8052 99.59 25.98C99.6197 28.1708 99.2817 30.3511 98.59 32.43C98.0005 34.2249 97.0319 35.8722 95.75 37.26C94.4748 38.59 92.9161 39.6154 91.19 40.26C89.2532 40.9673 87.2014 41.3064 85.14 41.26V41.26ZM85.14 34.92C86.0829 34.9724 87.0236 34.7842 87.8737 34.3731C88.7239 33.962 89.4555 33.3416 90 32.57C91.2371 30.5813 91.8275 28.2581 91.69 25.92C91.7034 24.6465 91.5556 23.3764 91.25 22.14C91.0075 21.1268 90.573 20.1696 89.97 19.32C89.4484 18.5866 88.7638 17.9841 87.97 17.56C87.0874 17.1424 86.1151 16.95 85.14 17C84.1846 16.9806 83.2383 17.1898 82.38 17.61C81.5837 18.0305 80.8983 18.6336 80.38 19.37C79.7884 20.2248 79.358 21.1805 79.11 22.19C78.8044 23.4264 78.6566 24.6965 78.67 25.97C78.5254 28.3105 79.1125 30.6381 80.35 32.63C80.8954 33.3795 81.6189 33.9814 82.4552 34.3812C83.2915 34.781 84.2142 34.9662 85.14 34.92Z" fill="white"/>
<path d="M120.15 10.77C121.87 10.7297 123.578 11.0712 125.15 11.77C126.629 12.4539 127.921 13.4827 128.92 14.77C130.018 16.1887 130.827 17.8094 131.3 19.54C131.879 21.6129 132.159 23.7579 132.13 25.91C132.16 28.0641 131.887 30.2118 131.32 32.29C130.867 34.0137 130.079 35.6312 129 37.05C128.001 38.3248 126.721 39.3515 125.26 40.05C123.708 40.7468 122.021 41.0884 120.32 41.05C118.414 41.0989 116.527 40.6473 114.85 39.74C113.357 38.9168 112.165 37.6379 111.45 36.09H110.97V50.37H103.22V10.66H110.73V16.07H111.21C111.598 15.2609 112.107 14.5157 112.72 13.86C113.949 12.5243 115.541 11.5757 117.3 11.13C118.231 10.8896 119.189 10.7686 120.15 10.77ZM117.51 34.6C118.478 34.6181 119.438 34.4199 120.32 34.02C121.146 33.6301 121.864 33.0428 122.41 32.31C123.013 31.4934 123.458 30.5708 123.72 29.59C124.035 28.3926 124.186 27.158 124.17 25.92C124.186 24.6985 124.035 23.4805 123.72 22.3C123.452 21.3225 123.004 20.4035 122.4 19.59C121.845 18.8635 121.13 18.2749 120.31 17.87C119.445 17.4598 118.497 17.2545 117.54 17.27C116.576 17.2554 115.622 17.4606 114.75 17.87C113.926 18.272 113.207 18.861 112.65 19.59C112.035 20.4056 111.583 21.3326 111.32 22.32C110.993 23.5018 110.835 24.7239 110.85 25.95C110.835 27.1728 110.993 28.3917 111.32 29.57C111.586 30.5531 112.038 31.4763 112.65 32.29C113.208 33.0114 113.922 33.5962 114.74 34C115.606 34.4058 116.553 34.6109 117.51 34.6Z" fill="white"/>
<path d="M161.92 32.26C161.64 33.5989 161.1 34.8696 160.33 36C159.567 37.121 158.596 38.0852 157.47 38.84C156.244 39.6542 154.893 40.2622 153.47 40.64C151.838 41.0686 150.157 41.2772 148.47 41.26C146.425 41.3002 144.391 40.9612 142.47 40.26C140.774 39.6074 139.246 38.5822 138 37.26C136.732 35.8894 135.78 34.2579 135.21 32.48C134.528 30.4193 134.19 28.2605 134.21 26.09C134.186 23.8996 134.524 21.7203 135.21 19.64C135.793 17.8398 136.751 16.1834 138.02 14.78C139.252 13.4351 140.769 12.3828 142.46 11.7C144.333 10.9556 146.335 10.5885 148.35 10.62C150.329 10.585 152.297 10.9243 154.15 11.62C155.795 12.2553 157.275 13.2534 158.48 14.54C159.703 15.8841 160.627 17.4724 161.19 19.2C161.837 21.2157 162.151 23.3233 162.12 25.44V27.81H142V28.21C141.997 29.2327 142.173 30.248 142.52 31.21C142.82 32.0338 143.282 32.7888 143.88 33.43C144.472 34.044 145.197 34.5129 146 34.8C146.872 35.1427 147.803 35.3125 148.74 35.3C150.068 35.3479 151.388 35.077 152.59 34.51C153.555 34.0473 154.316 33.2467 154.73 32.26H161.92ZM148.42 16.55C147.572 16.5393 146.73 16.6921 145.94 17C145.193 17.2865 144.513 17.722 143.94 18.28C143.369 18.8542 142.914 19.5333 142.6 20.28C142.25 21.1056 142.044 21.9849 141.99 22.88H154.5C154.509 21.1746 153.881 19.5272 152.74 18.26C152.179 17.6901 151.504 17.2437 150.76 16.9492C150.017 16.6548 149.219 16.5188 148.42 16.55V16.55Z" fill="white"/>
<path d="M165.77 10.66H173.28V16H173.76C174.383 14.3538 175.519 12.9515 177 12C178.644 10.9979 180.546 10.5007 182.47 10.57C185.73 10.57 188.22 11.53 189.94 13.45C191.65 15.37 192.51 18.08 192.51 21.6V40.6H184.76V23.47C184.879 21.8225 184.411 20.186 183.44 18.85C182.918 18.3016 182.279 17.8775 181.572 17.6092C180.864 17.3409 180.104 17.2352 179.35 17.3C178.521 17.2862 177.698 17.4392 176.93 17.75C176.226 18.0254 175.591 18.4521 175.07 19C174.553 19.5803 174.161 20.2612 173.92 21C173.643 21.8487 173.508 22.7373 173.52 23.63V40.62H165.77V10.66Z" fill="white"/>
<path d="M196.55 4.27H204.29V10.66H210.39V17.66H204.29V30.85C204.248 31.3569 204.307 31.867 204.463 32.3511C204.619 32.8351 204.87 33.2834 205.2 33.67C205.599 34.0061 206.061 34.2597 206.559 34.4159C207.057 34.5721 207.58 34.6279 208.1 34.58C208.62 34.58 209.03 34.58 209.35 34.58C209.67 34.58 210.02 34.58 210.35 34.5V40.41C209.87 40.4967 209.29 40.5767 208.61 40.65C207.896 40.7231 207.178 40.7598 206.46 40.76C204.921 40.786 203.384 40.635 201.88 40.31C200.759 40.0698 199.707 39.5811 198.8 38.88C197.999 38.2264 197.394 37.3649 197.05 36.39C196.664 35.2061 196.481 33.9651 196.51 32.72L196.55 4.27Z" fill="white"/>
<path d="M240.31 32.26C240.029 33.5969 239.493 34.8669 238.73 36C237.965 37.1188 236.994 38.0825 235.87 38.84C234.643 39.6523 233.292 40.2602 231.87 40.64C230.238 41.067 228.557 41.2755 226.87 41.26C224.825 41.3005 222.791 40.9614 220.87 40.26C219.172 39.6114 217.644 38.5856 216.4 37.26C215.129 35.89 214.174 34.2585 213.6 32.48C212.918 30.4193 212.58 28.2605 212.6 26.09C212.581 23.9 212.919 21.7215 213.6 19.64C214.187 17.8415 215.144 16.1859 216.41 14.78C217.647 13.437 219.167 12.385 220.86 11.7C222.733 10.9548 224.735 10.5877 226.75 10.62C228.729 10.5857 230.697 10.925 232.55 11.62C234.193 12.2577 235.673 13.2555 236.88 14.54C238.103 15.8823 239.024 17.4714 239.58 19.2C240.227 21.2157 240.541 23.3233 240.51 25.44V27.81H220.39V28.21C220.387 29.2327 220.563 30.248 220.91 31.21C221.21 32.0338 221.672 32.7888 222.27 33.43C222.852 34.0504 223.567 34.5322 224.36 34.84C225.233 35.1817 226.163 35.3515 227.1 35.34C228.428 35.3887 229.748 35.1178 230.95 34.55C231.917 34.0877 232.682 33.2874 233.1 32.3L240.31 32.26ZM226.81 16.55C225.965 16.5391 225.127 16.6919 224.34 17C223.593 17.2865 222.913 17.722 222.34 18.28C221.766 18.8538 221.307 19.5328 220.99 20.28C220.645 21.1071 220.439 21.9856 220.38 22.88H232.9C232.904 21.1755 232.277 19.5297 231.14 18.26C230.577 17.6894 229.901 17.2425 229.155 16.9481C228.41 16.6536 227.611 16.518 226.81 16.55V16.55Z" fill="white"/>
<path d="M262.91 21.61C262.696 20.3063 262.039 19.1163 261.05 18.24C259.916 17.3435 258.493 16.895 257.05 16.98C256.121 16.9291 255.194 17.1088 254.351 17.5031C253.508 17.8974 252.776 18.4941 252.22 19.24C251.093 20.7533 250.527 22.9633 250.52 25.87C250.513 28.7767 251.08 31.0167 252.22 32.59C252.769 33.3471 253.498 33.9549 254.342 34.3584C255.185 34.7618 256.116 34.948 257.05 34.9C258.456 34.9753 259.847 34.5775 261 33.77C262.035 32.9414 262.726 31.7585 262.94 30.45H270.18C270.047 32.0027 269.63 33.5178 268.95 34.92C268.302 36.23 267.39 37.3912 266.27 38.33C265.089 39.3048 263.731 40.0416 262.27 40.5C260.595 41.0291 258.846 41.2857 257.09 41.26C255.009 41.3023 252.939 40.9634 250.98 40.26C249.267 39.6229 247.727 38.5957 246.48 37.26C245.211 35.8749 244.259 34.2301 243.69 32.44C243.008 30.3208 242.671 28.106 242.69 25.88C242.654 23.677 242.972 21.4826 243.63 19.38C244.194 17.5988 245.143 15.9635 246.41 14.59C247.667 13.2564 249.213 12.2299 250.93 11.59C252.89 10.8915 254.96 10.5528 257.04 10.59C258.813 10.5675 260.579 10.8275 262.27 11.36C263.735 11.8271 265.095 12.578 266.27 13.57C267.377 14.539 268.275 15.723 268.91 17.05C269.586 18.4779 269.999 20.0157 270.13 21.59L262.91 21.61Z" fill="white"/>
<path d="M273.74 0H281.35V16H281.83C282.461 14.3343 283.629 12.9266 285.15 12C286.828 11.0089 288.752 10.5131 290.7 10.57C292.143 10.5492 293.577 10.7968 294.93 11.3C296.134 11.7613 297.218 12.4895 298.1 13.43C299.009 14.4292 299.691 15.6128 300.1 16.9C300.574 18.4208 300.803 20.0072 300.78 21.6V40.5H293V23.55C293.12 21.8947 292.633 20.2524 291.63 18.93C291.116 18.3961 290.492 17.9807 289.801 17.713C289.11 17.4453 288.369 17.3316 287.63 17.38C286.745 17.3623 285.865 17.5186 285.04 17.84C284.311 18.1301 283.656 18.5774 283.12 19.15C282.582 19.7232 282.172 20.4052 281.92 21.15C281.634 21.9898 281.495 22.8729 281.51 23.76V40.62H273.76L273.74 0Z" fill="white"/>
<path d="M50.41 24.48V11.11C47.4633 11.1074 44.638 9.93631 42.5534 7.85364C40.4689 5.77097 39.2953 2.94666 39.29 0L25.92 0C25.9226 6.49342 28.504 12.72 33.0965 17.3106C37.689 21.9012 43.9166 24.48 50.41 24.48V24.48Z" fill="#FFB600"/>
<path d="M0.1 25.82H0V39.19H0.1C3.04666 39.1953 5.87097 40.3689 7.95364 42.4534C10.0363 44.538 11.2074 47.3633 11.21 50.31V50.41H24.58C24.58 50.41 24.58 50.34 24.58 50.31C24.58 43.8166 22.0012 37.589 17.4106 32.9965C12.82 28.404 6.59342 25.8227 0.1 25.82V25.82Z" fill="#FF4502"/>
<path d="M25.92 50.31C25.92 50.31 25.92 50.37 25.92 50.41H39.3C39.3 50.41 39.3 50.34 39.3 50.31C39.3026 47.3633 40.4737 44.538 42.5564 42.4534C44.639 40.3689 47.4633 39.1953 50.41 39.19V39.19V25.82C43.9148 25.82 37.6857 28.4002 33.093 32.993C28.5002 37.5857 25.92 43.8148 25.92 50.31V50.31Z" fill="#8000ED"/>
<path d="M25.2 31.61C28.7401 31.61 31.61 28.7401 31.61 25.2C31.61 21.6599 28.7401 18.79 25.2 18.79C21.6599 18.79 18.79 21.6599 18.79 25.2C18.79 28.7401 21.6599 31.61 25.2 31.61Z" fill="white"/>
<path d="M24.59 0H11.21C11.2074 2.94574 10.036 5.77008 7.95303 7.85303C5.87008 9.93599 3.04574 11.1074 0.1 11.11H0V24.48H0.1C6.59342 24.48 12.821 21.9012 17.4135 17.3106C22.006 12.72 24.5873 6.49342 24.59 0V0Z" fill="#00B56F"/>
</g>
<defs>
<clipPath id="clip0_1_2">
<rect width="300.77" height="50.41" fill="white"/>
</clipPath>
</defs>
</svg>
