<svg xmlns="http://www.w3.org/2000/svg" viewBox="0 0 31.27 31.27"><defs><style>.cls-1{fill:#fff;}</style></defs><g id="Layer_2" data-name="Layer 2"><g id="MENU_HOME_MOB." data-name="MENU HOME MOB."><rect class="cls-1" width="31.27" height="31.27" rx="15.63"/><path d="M13.54,15.63a2.09,2.09,0,1,1,2.09,2.09,2.1,2.1,0,0,1-2.09-2.09m-1.12,0a3.22,3.22,0,1,0,3.21-3.21,3.22,3.22,0,0,0-3.21,3.21m5.81-3.34a.75.75,0,1,0,.75-.75.75.75,0,0,0-.75.75M13.1,20.73a3.19,3.19,0,0,1-1.16-.21,1.84,1.84,0,0,1-.72-.47,1.91,1.91,0,0,1-.47-.72,3.36,3.36,0,0,1-.22-1.16c0-.66,0-.86,0-2.54s0-1.87,0-2.53a3.36,3.36,0,0,1,.22-1.16,2.09,2.09,0,0,1,1.19-1.19,3.36,3.36,0,0,1,1.16-.22c.66,0,.86,0,2.53,0s1.88,0,2.54,0a3.36,3.36,0,0,1,1.16.22,1.91,1.91,0,0,1,.72.47,1.77,1.77,0,0,1,.47.72,3.36,3.36,0,0,1,.22,1.16c0,.66,0,.86,0,2.53s0,1.87,0,2.54a3.36,3.36,0,0,1-.22,1.16,2.09,2.09,0,0,1-1.19,1.19,3.19,3.19,0,0,1-1.16.21c-.66,0-.86,0-2.54,0s-1.87,0-2.53,0m0-11.33a4.7,4.7,0,0,0-1.52.29A3.23,3.23,0,0,0,9.7,11.53a4.42,4.42,0,0,0-.3,1.52c0,.67,0,.88,0,2.58s0,1.92,0,2.59a4.48,4.48,0,0,0,.3,1.52,3.17,3.17,0,0,0,1.83,1.83,4.45,4.45,0,0,0,1.52.29c.67,0,.88,0,2.58,0s1.92,0,2.59,0a4.5,4.5,0,0,0,1.52-.29,3.17,3.17,0,0,0,1.83-1.83,4.5,4.5,0,0,0,.29-1.52c0-.67,0-.88,0-2.59s0-1.91,0-2.58a4.45,4.45,0,0,0-.29-1.52,3.23,3.23,0,0,0-1.83-1.84,4.76,4.76,0,0,0-1.52-.29c-.67,0-.88,0-2.59,0s-1.91,0-2.58,0"/></g></g></svg>